<?xml version="1.0" standalone="no"?>
<!DOCTYPE svg PUBLIC "-//W3C//DTD SVG 20010904//EN"
 "http://www.w3.org/TR/2001/REC-SVG-20010904/DTD/svg10.dtd">
<svg version="1.0" xmlns="http://www.w3.org/2000/svg"
 width="32.000000pt" height="32.000000pt" viewBox="0 0 32.000000 32.000000"
 preserveAspectRatio="xMidYMid meet">

<g transform="translate(0.000000,32.000000) scale(0.100000,-0.100000)"
fill="#000000" stroke="none">
<path d="M0 205 l0 -72 40 -12 c22 -6 59 -20 82 -31 l43 -19 -45 6 c-25 3 -62
12 -82 19 l-38 13 0 -34 0 -35 96 0 c69 0 93 3 88 11 -5 9 1 10 22 5 16 -4 48
-9 72 -13 l42 -6 0 122 0 122 -160 -2 -160 -1 0 -73z m267 29 c-3 -3 -12 -4
-19 -1 -8 3 -5 6 6 6 11 1 17 -2 13 -5z m-32 -10 c13 -5 14 -8 3 -15 -10 -7
-10 -9 0 -9 18 0 15 -34 -7 -62 -15 -18 -30 -25 -58 -25 -21 -1 -32 1 -25 4 9
4 10 8 2 18 -8 10 -6 15 9 20 23 7 28 21 9 27 -7 3 -2 13 12 26 26 24 30 25
55 16z"/>
</g>
</svg>
