<?xml version="1.0" standalone="no"?>
<!DOCTYPE svg PUBLIC "-//W3C//DTD SVG 20010904//EN"
 "http://www.w3.org/TR/2001/REC-SVG-20010904/DTD/svg10.dtd">
<svg version="1.0" xmlns="http://www.w3.org/2000/svg"
 width="643.000000pt" height="262.000000pt" viewBox="0 0 643.000000 262.000000"
 preserveAspectRatio="xMidYMid meet">

<g transform="translate(0.000000,262.000000) scale(0.100000,-0.100000)"
fill="#000000" stroke="none">
<path d="M0 1310 l0 -1310 1244 0 1243 0 23 93 c38 162 50 224 48 253 -1 16
-1 42 0 57 l2 29 63 -7 c61 -7 113 -24 75 -25 -10 0 -17 -3 -16 -7 0 -5 -6
-24 -15 -43 -27 -61 -31 -105 -11 -125 14 -14 15 -21 6 -36 -10 -16 -10 -21 2
-25 19 -7 63 25 70 51 3 10 7 17 10 14 3 -3 -1 -29 -9 -59 -8 -30 -15 -72 -15
-93 0 -21 -5 -47 -10 -58 -11 -19 14 -19 1855 -19 l1865 0 0 1310 0 1310
-2032 -1 c-1766 -1 -2029 -2 -2000 -15 17 -8 32 -19 32 -24 0 -6 6 -10 14 -10
7 0 19 -7 26 -15 11 -13 8 -15 -15 -15 -21 0 -26 -4 -21 -16 6 -16 -17 -48
-28 -37 -3 4 -6 1 -6 -5 0 -6 -6 -9 -14 -6 -8 3 -34 -1 -58 -9 -23 -8 -64 -15
-90 -15 -27 -1 -56 -6 -66 -11 -11 -6 -41 -12 -68 -14 -27 -2 -60 -9 -73 -16
-19 -10 -25 -10 -31 -1 -17 27 -29 -3 -27 -67 2 -54 -1 -68 -15 -77 -10 -6
-18 -16 -18 -23 0 -7 -16 -24 -35 -39 -25 -19 -34 -32 -29 -43 4 -9 6 -35 5
-58 -1 -23 3 -44 8 -47 5 -3 41 1 81 9 159 33 296 2 398 -91 31 -28 54 -55 50
-59 -12 -13 -64 -8 -105 10 -102 46 -105 47 -98 82 4 25 3 31 -8 27 -20 -7
-56 -102 -60 -160 -3 -44 -10 -57 -41 -89 -25 -25 -41 -34 -48 -27 -7 7 -7 16
0 29 7 12 7 25 0 36 -6 12 -6 29 0 50 6 18 12 54 15 80 4 40 1 49 -15 58 -28
15 -48 4 -48 -25 0 -17 9 -30 25 -39 l26 -13 -21 -19 c-11 -10 -20 -24 -20
-32 0 -29 -74 -85 -82 -61 -3 8 -11 7 -28 -3 -14 -7 -31 -12 -37 -11 -8 2 -13
-9 -13 -28 0 -26 -4 -31 -31 -37 -18 -3 -34 -14 -36 -23 -4 -16 -70 -47 -80
-37 -8 9 7 28 18 22 16 -11 9 7 -8 21 -24 18 -33 17 -34 -3 0 -10 -3 -13 -5
-6 -3 7 -12 9 -20 6 -8 -3 -14 1 -14 9 0 22 12 29 26 17 11 -9 15 -7 20 6 4
10 1 20 -6 25 -24 15 0 62 66 126 61 60 76 84 53 84 -5 0 -7 -4 -4 -10 3 -5 0
-10 -7 -10 -15 0 -88 -65 -88 -78 0 -5 -11 -22 -24 -37 -14 -16 -22 -33 -19
-39 4 -5 -1 -7 -11 -3 -10 4 -15 3 -11 -3 9 -15 -37 -79 -67 -92 -16 -7 -28
-16 -28 -20 0 -5 -8 -8 -19 -8 -33 0 -93 -30 -88 -44 8 -21 -8 -36 -44 -41
-25 -3 -38 1 -49 15 -13 17 -31 20 -134 25 -65 3 -127 10 -137 15 -10 6 -39
12 -64 14 -24 2 -51 8 -58 15 -8 6 -34 11 -58 12 -59 1 -79 8 -79 25 0 8 -10
14 -24 14 -19 0 -23 4 -19 19 4 16 -3 23 -32 35 -43 18 -102 21 -107 5 -2 -7
-13 -7 -33 2 l-30 12 25 7 c19 5 7 9 -47 15 -42 4 -73 12 -73 19 -1 6 -10 0
-21 -13 -15 -18 -30 -25 -55 -24 -22 1 -34 -4 -34 -12 0 -7 -6 -16 -12 -18 -8
-3 -6 -6 5 -6 10 -1 17 -9 17 -21 0 -23 -15 -27 -24 -5 -6 18 -36 20 -36 3 0
-6 -3 -8 -7 -4 -5 4 -8 18 -8 29 0 15 -7 23 -21 25 -12 2 -27 14 -35 28 -12
23 -11 27 4 35 12 7 18 25 19 62 l2 52 3 -47 c3 -40 8 -48 24 -48 14 0 19 7
19 25 0 14 5 25 12 25 9 0 9 3 0 12 -7 7 -12 22 -12 35 0 14 -6 23 -15 23 -8
0 -20 10 -26 22 -15 29 -35 48 -48 48 -5 0 -11 12 -13 28 -2 15 -8 26 -15 25
-7 -2 -10 3 -7 11 3 8 -2 25 -11 39 -9 14 -15 29 -14 33 4 26 -2 74 -10 70 -4
-3 -8 7 -8 22 -1 15 -7 52 -14 82 -12 43 -19 56 -39 61 -14 4 -21 7 -16 8 5 1
2 9 -6 19 -9 9 -19 32 -23 50 -4 18 -13 36 -21 39 -8 3 -14 16 -14 29 0 13 -4
24 -10 24 -7 0 -10 -443 -10 -1310z m2500 1206 c0 -3 -4 -8 -10 -11 -5 -3 -10
-1 -10 4 0 6 5 11 10 11 6 0 10 -2 10 -4z m2010 -66 c0 -5 -2 -10 -4 -10 -3 0
-8 5 -11 10 -3 6 -1 10 4 10 6 0 11 -4 11 -10z m-2490 -80 c0 -5 -4 -10 -10
-10 -5 0 -10 5 -10 10 0 6 5 10 10 10 6 0 10 -4 10 -10z m1671 -51 c11 -5 17
-14 14 -19 -3 -4 3 -6 14 -3 10 3 22 0 25 -6 4 -6 16 -11 27 -11 22 0 26 -25
4 -33 -19 -8 -111 20 -136 41 -10 9 -19 22 -19 29 0 16 44 17 71 2z m-245
-248 c39 -10 95 -34 125 -53 31 -20 66 -39 80 -43 32 -10 129 -72 129 -83 0
-17 -86 -6 -127 16 -51 27 -108 30 -99 6 3 -9 6 -25 6 -35 0 -11 5 -17 10 -14
14 9 13 -1 -4 -34 -18 -34 -6 -61 21 -45 24 14 69 2 64 -17 -3 -8 -4 -50 -2
-94 3 -97 16 -118 59 -95 14 9 33 29 42 45 8 17 27 51 42 78 16 26 28 55 28
65 0 25 53 72 124 111 53 29 65 32 120 28 136 -11 159 -16 185 -41 31 -31 24
-40 -18 -25 -44 16 -48 7 -12 -30 34 -35 37 -51 19 -81 -9 -14 -10 -27 -3 -47
17 -46 8 -70 -28 -76 -18 -2 -35 1 -39 7 -11 16 -10 74 1 80 12 8 20 56 10 56
-13 0 -11 27 3 50 16 25 6 34 -35 33 -58 -2 -82 -9 -85 -26 -3 -15 1 -16 23
-7 35 13 35 13 35 -12 0 -38 -15 -51 -59 -51 -28 0 -41 -4 -41 -14 0 -7 -12
-19 -26 -25 -22 -10 -25 -17 -20 -41 6 -29 5 -30 -30 -24 -43 7 -69 -4 -77
-33 -4 -17 0 -20 25 -20 22 0 41 -11 74 -45 35 -37 40 -45 24 -45 -32 0 -23
-25 13 -38 45 -16 81 -16 74 1 -5 15 -2 15 116 23 l87 6 20 44 c28 60 58 63
103 8 16 -19 32 -32 36 -30 4 3 22 -4 39 -15 18 -10 42 -19 53 -19 35 0 123
-32 147 -54 13 -11 22 -29 20 -41 -3 -17 -9 -20 -51 -18 -26 1 -56 7 -66 13
-39 20 -51 13 -51 -30 0 -40 -7 -48 -46 -54 -10 -2 -21 -11 -24 -22 -6 -17
-10 -16 -39 14 -31 30 -33 36 -28 87 3 42 1 55 -9 55 -8 0 -14 -5 -14 -11 0
-6 -9 -8 -20 -4 -15 5 -20 2 -20 -13 0 -11 -8 -23 -17 -26 -12 -5 -14 -9 -5
-18 15 -15 16 -42 2 -33 -5 3 -10 0 -10 -7 0 -7 -13 1 -28 18 -31 35 -52 34
-52 -2 0 -27 -6 -29 -45 -14 -17 7 -24 7 -20 0 3 -6 -1 -10 -9 -10 -20 0 -29
17 -14 24 7 4 3 4 -9 2 -13 -2 -23 -1 -23 2 0 4 -14 8 -30 9 -21 2 -28 -1 -24
-9 4 -7 3 -8 -5 -4 -6 4 -9 11 -7 15 3 4 -5 13 -16 20 -18 11 -20 11 -15 -3
12 -32 -2 -42 -51 -39 -113 7 -119 11 -96 67 5 13 4 17 -4 12 -6 -3 -13 -2
-16 3 -4 5 -14 8 -24 6 -9 -2 -19 -4 -22 -4 -3 -1 -12 -22 -19 -48 -8 -27 -17
-55 -21 -63 -26 -57 -47 -150 -43 -188 4 -31 1 -48 -11 -60 -8 -10 -22 -38
-31 -62 -8 -24 -45 -87 -80 -139 -148 -218 -154 -225 -161 -208 -3 10 -1 24 6
31 9 11 9 20 -1 37 -10 19 -9 25 6 35 22 16 55 79 55 105 0 11 -9 32 -20 46
-16 21 -21 22 -26 10 -3 -9 -18 -20 -33 -25 -20 -7 -30 -19 -34 -39 -6 -30 0
-44 11 -28 10 14 32 17 32 5 0 -14 -30 -27 -80 -34 -25 -3 -39 -3 -32 0 6 3
12 16 12 29 0 16 -7 24 -25 27 -26 6 -43 -6 -25 -17 20 -12 10 -21 -27 -23
-20 -2 -43 -8 -50 -14 -16 -13 -43 -3 -43 17 0 26 -18 17 -25 -13 -11 -48 -60
-92 -102 -92 -27 0 -32 30 -8 50 18 15 10 30 -16 30 -11 0 -17 5 -14 10 12 20
-24 21 -46 2 -16 -16 -24 -18 -34 -9 -7 7 -12 14 -10 17 2 3 -3 11 -11 18 -8
7 -14 10 -14 6 0 -4 -20 15 -46 41 -25 27 -41 51 -36 54 4 3 2 17 -5 31 -7 14
-13 21 -13 15 0 -5 -5 -3 -10 5 -5 8 -10 10 -10 4 0 -6 7 -17 15 -24 9 -7 13
-20 10 -27 -2 -8 0 -23 5 -33 7 -13 7 -21 -2 -26 -7 -5 -8 -3 -3 6 5 9 2 10
-14 5 -12 -4 -21 -2 -21 4 0 6 -6 8 -14 5 -8 -3 -17 -1 -20 5 -4 6 -13 8 -21
4 -9 -3 -27 3 -42 12 -25 17 -26 17 -19 0 5 -15 4 -16 -9 -5 -8 7 -15 20 -15
28 0 13 -3 12 -15 -4 -13 -18 -14 -18 -15 -1 0 10 -4 15 -10 12 -5 -3 -10 -1
-10 4 0 6 -4 11 -10 11 -5 0 -7 -7 -4 -15 4 -9 0 -15 -10 -15 -19 0 -21 31 -4
48 8 8 15 9 25 1 10 -9 13 -8 13 4 0 9 10 19 23 23 12 4 33 15 46 25 28 22 44
16 36 -14 -2 -12 -2 -17 0 -11 3 6 17 9 31 6 24 -4 25 -3 15 17 -7 11 -9 22
-6 22 13 3 22 6 48 17 34 14 67 16 67 3 0 -5 8 -7 19 -4 10 2 25 -3 35 -12 9
-9 16 -13 16 -9 0 5 5 3 12 -4 15 -15 32 -16 22 -1 -4 8 0 8 14 0 12 -7 26
-29 32 -52 9 -31 14 -39 23 -30 15 15 30 14 21 -1 -6 -10 -5 -10 8 -1 8 7 18
10 21 6 6 -6 11 23 11 69 0 9 2 16 5 15 3 -1 16 4 27 11 12 6 24 9 27 6 7 -7
77 34 95 56 11 13 11 13 6 -2 -3 -9 -1 -25 4 -34 9 -16 10 -16 20 2 6 11 7 26
3 33 -5 7 -6 22 -3 34 3 14 1 18 -6 13 -11 -7 -16 7 -15 42 1 6 -5 12 -13 12
-8 0 -14 -4 -14 -10 0 -5 -5 -10 -12 -10 -6 0 -1 11 12 25 23 24 21 50 -2 27
-17 -17 -28 -15 -22 3 4 8 11 15 16 15 12 0 37 30 37 45 0 6 -8 0 -18 -12 -20
-24 -33 -27 -90 -25 -48 3 -31 14 19 14 22 0 38 3 35 8 -3 5 -27 7 -53 5 -79
-6 -209 37 -209 69 0 8 4 13 9 10 5 -3 6 -10 3 -15 -6 -8 22 -14 55 -11 30 3
60 -9 60 -23 0 -17 71 -20 105 -4 15 7 9 8 -20 4 -29 -4 -36 -3 -25 4 11 8 11
11 3 12 -28 3 -32 4 -40 13 -5 5 -3 6 5 2 7 -4 12 -1 12 7 0 8 -8 14 -17 13
-10 0 -17 5 -15 12 1 6 -3 11 -10 10 -7 -2 -13 2 -14 7 -8 46 -17 56 -44 50
-17 -4 -33 -1 -42 8 -18 19 -60 4 -52 -18 3 -8 9 -13 13 -11 4 3 13 1 21 -4 9
-5 -1 -7 -26 -5 -75 8 -134 18 -134 23 0 3 8 14 18 25 10 12 11 17 3 12 -10
-5 -12 -4 -7 3 4 7 19 12 34 12 19 0 23 -3 13 -9 -11 -7 -9 -10 8 -16 23 -7
28 -21 9 -27 -7 -3 -2 -7 11 -11 17 -4 21 -2 17 9 -3 8 -1 14 4 14 5 0 7 6 4
14 -3 7 2 16 11 20 9 3 13 10 10 16 -3 5 -1 10 4 10 14 0 14 -13 -1 -28 -9 -9
-9 -12 0 -12 7 0 15 7 18 15 4 8 17 15 30 15 14 0 27 6 30 14 3 8 11 13 19 10
20 -8 25 23 6 40 -10 9 -16 29 -16 51 1 19 -2 35 -6 35 -10 0 -3 39 11 55 9
11 7 12 -11 8 -15 -4 -20 -3 -15 5 4 7 1 12 -10 12 -13 0 -14 3 -4 15 6 8 9
19 5 24 -3 7 0 8 9 5 9 -3 16 -10 16 -15 0 -5 11 -4 25 1 22 8 25 7 25 -11 0
-12 10 -29 23 -40 l22 -18 -32 9 c-20 5 -33 5 -33 -1 0 -8 29 -13 67 -12 7 1
10 -3 7 -8 -3 -5 -12 -9 -20 -9 -8 0 -13 -4 -9 -9 3 -5 0 -13 -6 -16 -5 -4 -8
-13 -5 -21 3 -8 1 -14 -5 -14 -6 0 -7 -5 -4 -11 5 -6 13 -2 22 11 15 21 15 21
32 -11 10 -18 24 -35 32 -37 11 -3 11 -1 -1 7 -12 8 -12 11 -1 11 8 0 11 6 7
17 -4 10 -4 15 -1 11 4 -3 39 18 78 48 40 30 76 54 82 54 33 1 -124 60 -165
63 -33 1 -45 5 -39 13 5 6 6 14 2 17 -3 4 -12 -1 -19 -11 -11 -15 -12 -12 -8
18 l6 35 -27 -35 -26 -35 4 40 c4 33 3 37 -8 22 -12 -16 -14 -15 -23 13 -6 16
-14 30 -17 30 -3 0 -3 -4 0 -10 10 -16 -21 -12 -35 4 -6 8 -19 12 -28 9 -13
-4 -14 -3 -3 5 7 5 16 15 20 21 5 7 23 2 55 -14 52 -26 66 -25 66 4 0 10 17
31 38 47 20 15 54 44 74 65 22 21 56 41 83 49 25 7 45 17 45 21 0 15 102 9
176 -10z m1279 -8 c11 -15 29 -37 40 -49 40 -42 53 -59 60 -82 6 -21 5 -22
-13 -11 -12 7 -18 17 -16 21 3 4 -2 8 -10 8 -9 0 -16 4 -16 10 0 12 -48 60
-61 60 -6 0 -8 4 -5 9 3 5 0 11 -8 14 -9 4 -12 14 -9 26 7 28 14 26 38 -6z
m-4428 -145 c-2 -13 -4 -3 -4 22 0 25 2 35 4 23 2 -13 2 -33 0 -45z m4233 31
c0 -6 -9 -13 -20 -16 -11 -3 -17 -9 -14 -15 3 -5 0 -16 -7 -24 -10 -12 -14
-12 -20 -2 -13 19 -11 26 11 48 22 22 50 27 50 9z m-1632 -34 c12 -12 -9 -17
-23 -5 -18 15 -32 6 -19 -13 5 -7 2 -5 -7 5 -22 23 -32 11 -13 -16 12 -20 12
-23 -1 -23 -8 0 -12 3 -10 7 3 4 -4 15 -15 25 -11 10 -20 13 -20 7 0 -6 8 -16
18 -21 9 -6 13 -11 8 -11 -5 0 -3 -6 4 -14 9 -12 8 -15 -9 -13 -11 0 -17 5
-15 9 3 4 0 8 -5 8 -6 0 -11 -4 -11 -10 0 -5 -6 -7 -13 -4 -21 8 -17 36 5 31
10 -3 16 -2 13 3 -3 4 -14 10 -25 13 -12 3 -17 1 -14 -5 3 -5 0 -9 -7 -7 -37
5 -41 -3 -11 -21 29 -18 48 -51 20 -34 -7 4 -9 3 -5 -1 7 -9 28 -15 55 -17 6
-1 10 -4 7 -6 -3 -3 2 -14 12 -24 9 -10 13 -18 9 -18 -4 0 -4 -5 -1 -10 4 -6
14 -1 25 12 17 20 19 21 20 5 0 -10 8 -21 17 -24 15 -6 15 -7 -3 -14 -17 -7
-17 -8 -1 -8 9 -1 17 -5 17 -9 0 -5 -17 -7 -37 -5 -35 2 -57 19 -47 35 3 4 -5
8 -18 8 -18 0 -20 2 -8 9 8 6 18 7 24 4 5 -3 6 -1 2 5 -4 6 -13 9 -20 6 -7 -3
-19 2 -26 11 -7 8 -22 15 -34 14 l-21 0 21 -9 c37 -15 38 -30 2 -26 -18 2 -33
8 -33 14 0 18 -14 25 -27 15 -16 -13 -51 -8 -56 6 -2 6 -13 10 -25 10 -21 -1
-21 -2 -2 -7 l20 -5 -20 -9 c-18 -8 -18 -8 3 -4 12 2 22 1 22 -4 0 -14 49 -18
54 -4 7 19 23 18 23 -1 0 -8 -4 -15 -9 -15 -5 0 -7 -4 -3 -9 3 -5 0 -13 -6
-16 -5 -4 -8 -13 -5 -21 7 -17 -5 -18 -39 -2 -34 15 -32 27 5 23 16 -2 33 1
36 7 5 8 1 9 -10 5 -10 -4 -15 -3 -11 3 3 6 -2 10 -12 11 -10 0 -30 3 -44 5
-18 3 -26 0 -26 -10 0 -8 3 -15 6 -14 19 2 24 -4 11 -12 -12 -7 -10 -11 10
-19 24 -9 24 -10 3 -10 -24 -1 -31 -15 -13 -26 6 -4 18 -1 27 7 15 11 16 11
10 -6 -6 -15 -5 -16 5 -8 20 16 52 -10 35 -28 -9 -10 -9 -11 1 -6 6 4 12 2 12
-3 0 -6 -6 -12 -12 -12 -7 -1 -17 -2 -23 -4 -5 -1 -19 -3 -30 -3 -14 -2 -8 -8
23 -23 27 -13 41 -27 38 -35 -3 -9 0 -11 11 -7 11 4 14 2 9 -5 -4 -7 -1 -12 7
-12 20 0 29 -27 11 -34 -8 -3 -14 0 -14 5 0 7 -9 9 -22 5 -65 -18 -65 -18 -71
3 -3 11 0 19 5 18 6 -1 12 6 13 16 2 10 -3 17 -12 17 -10 0 -13 6 -9 16 5 14
4 15 -9 4 -8 -7 -12 -17 -8 -23 3 -6 1 -7 -5 -3 -20 12 -51 15 -57 6 -3 -5 3
-7 15 -5 11 2 23 -2 26 -8 4 -7 3 -9 -1 -4 -5 4 -19 0 -32 -8 -13 -9 -23 -13
-23 -9 0 4 -8 0 -17 -7 -10 -7 -15 -9 -11 -5 4 5 2 16 -5 24 -10 13 -8 14 13
9 14 -4 19 -4 13 -1 -23 10 -14 32 16 39 16 3 32 12 35 20 8 21 -23 27 -52 9
-24 -13 -24 -15 -4 -11 12 3 20 1 16 -4 -3 -5 -14 -9 -24 -9 -10 0 -22 -5 -26
-12 -5 -7 -3 -8 6 -3 9 5 11 4 6 -3 -4 -7 -14 -12 -23 -12 -9 0 -13 -3 -10 -6
3 -4 -5 -15 -18 -26 -14 -10 -24 -24 -22 -31 3 -15 -101 -43 -114 -30 -14 14
0 43 20 43 9 0 22 5 28 11 6 6 26 14 45 18 22 5 33 13 32 24 -1 9 3 15 10 14
6 -1 10 4 8 12 -2 7 3 21 11 30 17 20 20 61 4 61 -7 0 -4 5 6 11 9 6 15 14 12
20 -4 5 0 9 9 9 9 0 13 8 11 26 -1 15 3 28 11 31 8 3 12 9 9 13 -3 5 5 6 17 3
19 -4 20 -3 8 6 -11 8 -12 11 -2 11 7 0 10 5 7 10 -4 6 8 10 27 11 20 0 27 3
18 7 -21 9 -19 38 2 34 9 -1 23 7 32 20 13 18 31 24 103 32 78 10 167 5 181
-9z m-678 -13 c0 -12 -23 -32 -37 -32 -17 0 -17 27 0 33 19 8 37 8 37 -1z
m2690 -57 c30 -19 51 -35 47 -35 -9 0 51 -58 100 -97 45 -35 110 -66 124 -57
5 3 9 -4 9 -15 0 -11 5 -23 12 -27 8 -5 9 0 5 15 -7 29 11 91 26 91 20 0 317
-327 317 -349 0 -4 -7 -16 -16 -27 -8 -10 -12 -13 -8 -5 5 10 3 13 -9 8 -8 -3
-32 -9 -51 -13 -34 -6 -52 -34 -22 -34 15 0 42 -28 34 -36 -19 -18 -131 75
-142 119 -4 16 -31 46 -65 74 -46 37 -60 54 -60 75 -1 26 -4 28 -36 23 -19 -2
-37 1 -41 6 -3 6 -12 8 -20 5 -7 -3 -31 11 -51 30 -55 52 -77 65 -117 70 -26
3 -36 0 -36 -9 0 -8 -9 -24 -20 -37 -19 -21 -20 -22 -26 -4 -4 11 -29 43 -56
72 -28 29 -48 60 -46 69 2 9 18 21 35 25 33 9 51 42 40 72 -6 14 1 26 12 26 3
0 31 -16 61 -35z m-428 -20 c-13 -21 -10 -38 11 -56 12 -10 28 -18 35 -19 6 0
12 -5 12 -11 0 -6 -9 -8 -20 -4 -16 5 -20 2 -20 -14 0 -26 -14 -27 -48 -2 -15
10 -47 27 -72 39 -25 11 -54 27 -65 35 -18 14 -18 17 -5 31 14 14 19 14 53 -4
51 -28 73 -26 82 7 5 21 8 24 16 12 7 -11 9 -10 9 6 0 16 2 17 9 5 6 -8 7 -19
3 -25z m-1522 21 c0 -2 -7 -7 -16 -10 -8 -3 -12 -2 -9 4 6 10 25 14 25 6z
m1647 -11 c7 -20 1 -26 -31 -29 -30 -4 -34 11 -8 30 23 18 31 17 39 -1z
m-1642 -24 c3 -5 2 -12 -3 -15 -5 -3 -9 1 -9 9 0 17 3 19 12 6z m-1075 -51 c0
-5 -4 -10 -10 -10 -5 0 -10 5 -10 10 0 6 5 10 10 10 6 0 10 -4 10 -10z m-1487
-33 c-18 -11 -25 -5 -17 16 4 13 9 14 19 4 11 -10 10 -14 -2 -20z m106 14 c11
-7 10 -11 -4 -19 -17 -9 -16 -11 5 -22 13 -7 38 -10 61 -6 31 5 40 3 48 -13
13 -24 -19 -56 -48 -48 -12 3 -27 -3 -37 -14 -13 -15 -27 -18 -56 -15 -22 2
-45 9 -52 15 -6 5 -22 8 -33 5 -17 -5 -22 -1 -25 18 -2 12 -9 22 -16 20 -8 -1
-11 2 -7 8 3 5 17 10 31 10 13 0 24 5 24 11 0 8 14 10 41 6 37 -5 40 -3 38 16
-3 40 3 45 30 28z m2254 -38 c-7 -2 -19 -2 -25 0 -7 3 -2 5 12 5 14 0 19 -2
13 -5z m-1118 -34 c-4 -11 -2 -19 3 -19 16 0 62 -52 62 -70 0 -22 26 -33 48
-21 22 12 52 -4 52 -26 0 -35 24 -84 40 -80 8 1 14 11 12 21 -5 25 26 17 45
-11 13 -19 13 -24 2 -28 -8 -2 -26 -9 -42 -15 -15 -5 -32 -21 -37 -35 -13 -35
-32 -40 -86 -21 -44 15 -48 15 -71 -4 -20 -15 -29 -17 -45 -9 -14 8 -25 7 -43
-5 -13 -9 -26 -12 -30 -7 -6 11 -85 -29 -114 -58 -12 -12 -27 -18 -36 -15 -10
4 -29 -7 -52 -29 -28 -29 -43 -36 -71 -35 -26 1 -39 -5 -53 -23 -15 -20 -21
-22 -38 -12 -15 10 -20 9 -25 -2 -6 -17 -32 -20 -41 -5 -3 5 5 20 17 32 13 13
23 28 23 33 1 18 50 85 63 85 6 0 12 9 12 20 0 14 7 20 25 20 14 0 37 0 51 0
36 0 64 17 64 40 0 15 7 20 29 20 16 0 34 7 41 15 7 8 23 15 36 15 13 0 24 4
24 9 0 6 24 9 52 8 41 -2 53 1 53 13 0 11 12 15 47 13 32 -1 48 3 52 13 3 8
-1 14 -8 14 -7 0 -27 14 -44 30 -34 32 -47 35 -87 20 -34 -13 -146 -34 -206
-39 -9 0 -33 -12 -54 -26 -20 -15 -40 -23 -44 -20 -11 12 51 54 149 101 52 26
99 53 105 60 38 50 133 76 120 33z m1093 17 c-2 -1 -12 -8 -23 -16 -18 -14
-19 -13 -8 1 7 9 10 19 6 23 -4 4 1 4 10 0 10 -3 17 -7 15 -8z m-901 -19 c-2
-6 -10 -12 -18 -15 -11 -3 -11 -2 1 7 13 9 13 11 -2 11 -10 0 -18 4 -18 9 0 5
9 7 20 4 12 -3 19 -10 17 -16z m47 -39 c-9 -14 -34 12 -34 36 1 21 1 21 20 -3
11 -12 17 -27 14 -33z m-1559 4 c-22 -5 -27 1 -19 23 7 17 8 17 21 -1 12 -17
12 -19 -2 -22z m1914 -30 c-1 -46 -3 -48 -26 -44 -15 3 -22 10 -19 18 3 8 0
14 -7 15 -8 0 -7 3 2 6 10 4 8 9 -10 19 -24 13 -24 13 -2 14 12 0 25 5 28 10
3 6 13 10 20 10 11 0 14 -13 14 -48z m501 38 c14 -4 18 -9 10 -9 -11 -1 -12
-3 -3 -9 8 -5 -1 -8 -22 -8 -21 0 -30 3 -22 8 9 6 9 10 -3 18 -13 9 -13 10 0
9 8 -1 26 -5 40 -9z m1300 -15 c0 -15 -77 -41 -88 -30 -7 7 20 26 53 37 31 10
35 9 35 -7z m-943 -10 c0 -8 -4 -12 -9 -9 -5 3 -6 10 -3 15 9 13 12 11 12 -6z
m-2969 -9 c7 -4 10 -17 7 -29 -7 -34 9 -92 25 -92 8 0 27 -8 42 -18 15 -10 32
-16 37 -13 5 4 13 1 18 -6 33 -53 -10 -93 -98 -91 -31 1 -62 3 -70 5 -19 4
-45 47 -53 88 -19 94 -19 101 0 115 13 10 15 14 5 15 -8 0 -5 7 9 18 22 18 56
22 78 8z m2737 -4 c-16 -11 -14 -42 2 -42 8 0 11 5 7 12 -4 7 -3 8 4 4 6 -4 9
-13 6 -21 -8 -20 -42 -29 -58 -16 -7 6 -16 7 -21 3 -4 -4 -2 3 4 16 6 12 14
22 17 22 3 0 2 -6 -2 -12 -5 -8 0 -7 11 2 18 15 18 15 -1 19 -18 4 -18 4 1 12
26 10 43 11 30 1z m65 -2 c-13 -9 -13 -10 0 -11 8 -1 18 -1 23 0 4 0 7 -6 7
-14 0 -20 -13 -19 -33 3 -17 18 -14 32 7 32 6 0 4 -5 -4 -10z m-205 -10 c3 -5
-1 -10 -10 -10 -9 0 -13 5 -10 10 3 6 8 10 10 10 2 0 7 -4 10 -10z m-475 -58
c0 -13 -12 -22 -22 -16 -10 6 -1 24 13 24 5 0 9 -4 9 -8z m346 -29 c-1 -1 -12
0 -25 4 -15 4 -19 8 -10 13 10 7 42 -10 35 -17z m241 3 c0 -11 -5 -12 -24 -3
-16 7 -20 13 -12 18 16 10 36 1 36 -15z m2146 -78 c3 -10 1 -18 -4 -18 -5 0
-9 5 -9 12 0 6 -3 9 -6 5 -3 -3 -18 -1 -34 4 -29 11 -42 43 -32 81 4 17 9 14
43 -24 21 -24 40 -51 42 -60z m-2783 74 c0 -5 -22 -9 -50 -10 -27 0 -50 3 -50
9 0 5 23 9 50 9 28 0 50 -4 50 -8z m330 -11 c0 -5 -10 -11 -22 -14 -22 -6 -22
-6 -4 8 23 17 26 18 26 6z m217 -4 c0 -8 -6 -14 -14 -14 -9 0 -10 4 -2 14 6 7
12 13 14 13 1 0 2 -6 2 -13z m-622 -11 l30 -13 -25 -11 c-14 -5 -36 -14 -49
-19 l-24 -9 33 -21 c31 -20 32 -21 11 -28 -12 -4 -20 -12 -18 -19 3 -8 -7 -10
-34 -8 -37 4 -53 -10 -26 -22 6 -3 -1 -4 -17 0 -34 6 -76 47 -76 72 0 19 53
46 83 43 18 -2 47 21 47 38 0 15 28 13 65 -3z m120 4 c3 -5 1 -10 -4 -10 -6 0
-11 5 -11 10 0 6 2 10 4 10 3 0 8 -4 11 -10z m367 -8 c9 -9 9 -12 0 -12 -7 0
-12 5 -12 12 0 6 -3 8 -7 4 -5 -4 -8 -12 -8 -17 0 -5 -4 -9 -10 -8 -5 1 -9 5
-7 10 1 5 -4 9 -10 9 -10 0 -9 3 1 9 17 11 38 8 53 -7z m-167 -2 c4 -6 3 -10
-2 -9 -21 4 -43 -2 -43 -12 0 -5 4 -8 9 -4 5 3 12 1 15 -4 7 -11 -13 -9 -32 3
-10 6 -9 11 5 22 22 16 40 18 48 4z m-1185 -4 c0 -2 -8 -10 -17 -17 -16 -13
-17 -12 -4 4 13 16 21 21 21 13z m1471 -13 c5 -5 -8 -8 -28 -8 -20 0 -38 5
-40 12 -5 13 55 9 68 -4z m184 -13 c3 -6 -1 -7 -9 -4 -18 7 -21 14 -7 14 6 0
13 -4 16 -10z m-595 -13 c0 -7 -13 -18 -30 -24 -32 -12 -33 -12 -24 10 3 9 14
13 27 10 18 -4 19 -3 7 6 -13 9 -13 11 3 11 9 0 17 -6 17 -13z m671 -4 c0 -10
2 -26 4 -35 4 -20 -3 -22 -24 -9 -7 5 -11 13 -7 19 3 6 0 13 -6 15 -8 3 -6 6
5 6 10 1 15 6 12 11 -3 6 -1 10 4 10 6 0 11 -8 12 -17z m-821 -3 c0 -5 -7 -7
-15 -4 -8 4 -15 8 -15 10 0 2 7 4 15 4 8 0 15 -4 15 -10z m3865 -20 c3 -5 1
-10 -4 -10 -6 0 -11 5 -11 10 0 6 2 10 4 10 3 0 8 -4 11 -10z m-4855 -19 c-12
-23 -29 -35 -36 -28 -10 9 16 47 32 47 11 0 12 -4 4 -19z m1702 12 c-6 -3 -9
-10 -5 -16 4 -7 -1 -6 -10 2 -21 17 -21 17 6 18 12 0 16 -1 9 -4z m-47 -24
c20 -12 34 -24 31 -26 -5 -5 -76 35 -76 43 0 7 9 4 45 -17z m66 -53 c29 -5 98
-35 84 -36 -30 -1 -184 56 -194 72 -10 16 -5 15 38 -6 27 -14 59 -27 72 -30z
m1903 34 c3 -11 9 -29 12 -40 4 -15 1 -20 -15 -20 -12 0 -21 5 -21 10 0 6 -6
10 -14 10 -13 0 -28 45 -18 55 14 13 51 4 56 -15z m-2171 1 c5 0 6 -5 3 -10
-4 -5 0 -12 6 -14 8 -4 7 -6 -4 -6 -9 -1 -19 -5 -22 -9 -3 -5 12 -8 32 -6 33
2 40 -2 65 -36 17 -25 23 -41 17 -45 -13 -8 -50 22 -50 40 0 7 -7 16 -16 19
-8 3 -12 2 -9 -3 3 -5 -4 -12 -15 -16 -11 -3 -20 -11 -20 -16 0 -20 -26 -7
-47 24 -13 18 -23 25 -23 16 0 -8 4 -19 9 -24 5 -6 12 -21 16 -35 7 -24 7 -24
-20 5 l-27 30 6 -30 7 -30 -20 25 c-11 13 -17 29 -13 35 3 5 -2 4 -11 -4 -13
-11 -17 -11 -17 -1 0 8 -3 10 -7 6 -5 -4 0 -13 10 -21 16 -11 14 -13 -18 -19
-19 -4 -43 -2 -54 3 -29 16 -124 -25 -118 -51 4 -12 1 -18 -6 -15 -7 2 -11 11
-9 19 2 11 -4 14 -21 11 -14 -3 -23 -12 -24 -24 -1 -13 2 -17 10 -12 9 5 8 2
0 -9 -15 -17 -8 -28 19 -28 21 0 24 -18 5 -26 -15 -5 -70 20 -62 28 3 3 -6 3
-19 1 -31 -6 -58 -34 -38 -40 21 -8 13 -33 -10 -34 -13 -1 -27 0 -33 1 -5 1
-16 3 -23 4 -8 1 -17 8 -21 15 -5 7 -32 14 -62 15 -34 1 -53 6 -52 14 2 7 -16
10 -55 9 l-57 -2 0 53 c0 48 -3 56 -33 80 -18 15 -32 30 -32 34 0 3 13 9 30
13 16 4 32 11 35 16 14 21 46 7 70 -30 25 -36 29 -39 85 -43 48 -3 64 -9 84
-31 25 -27 69 -36 81 -17 4 6 11 8 16 5 5 -4 9 -2 9 4 0 5 16 16 36 23 34 12
34 13 13 19 -13 3 -27 1 -31 -5 -4 -6 -11 -7 -15 -2 -4 4 0 13 10 20 9 7 17
19 17 25 0 7 5 9 11 6 6 -4 10 -1 8 6 -3 29 1 38 18 32 12 -5 14 -3 8 7 -5 9
0 7 16 -3 26 -18 44 -22 35 -8 -4 5 3 7 14 4 11 -3 18 -9 15 -13 -6 -9 19 -20
47 -20 15 0 18 5 14 16 -5 14 -4 15 9 4 8 -7 15 -9 15 -5 0 4 7 2 15 -5 9 -7
19 -10 23 -6 4 4 -1 13 -11 20 -9 7 -17 17 -17 21 0 4 6 3 13 -3 15 -12 88
-21 81 -10 -3 5 9 11 26 14 17 4 33 11 37 17 4 6 0 8 -10 4 -9 -3 -27 -2 -39
3 -17 6 -8 8 32 5 30 -1 59 -3 63 -4z m82 -35 c11 -8 24 -12 30 -10 6 3 20 -6
31 -18 l19 -23 -23 19 c-32 27 -37 14 -7 -18 21 -23 32 -46 22 -46 -1 0 -27
25 -57 55 -51 51 -58 73 -15 41z m115 -6 c0 -5 -2 -10 -4 -10 -3 0 -8 5 -11
10 -3 6 -1 10 4 10 6 0 11 -4 11 -10z m1907 -4 c-7 -17 20 -93 42 -119 11 -13
16 -14 22 -5 10 15 39 -7 39 -31 -1 -39 -15 -45 -62 -28 -41 16 -108 74 -108
95 0 5 -6 15 -14 21 -21 17 -14 40 20 61 36 23 68 26 61 6z m-3197 -22 c0 -8
-5 -12 -10 -9 -6 4 -8 11 -5 16 9 14 15 11 15 -7z m1380 -4 c0 -10 -38 -1 -45
10 -2 4 7 5 20 2 14 -2 25 -8 25 -12z m40 -16 c0 -2 -7 -4 -15 -4 -8 0 -15 4
-15 10 0 5 7 7 15 4 8 -4 15 -8 15 -10z m105 -2 c-3 -3 -11 0 -18 7 -9 10 -8
11 6 5 10 -3 15 -9 12 -12z m-390 -21 c3 -10 14 -26 25 -36 11 -10 20 -23 20
-29 -1 -6 -10 0 -20 13 -11 13 -20 19 -20 15 0 -5 -4 -4 -8 1 -4 6 -14 16 -24
23 -14 11 -16 9 -14 -18 1 -17 8 -35 15 -40 7 -4 9 -10 5 -13 -5 -2 -22 13
-37 35 -16 22 -24 37 -19 34 5 -3 17 3 27 14 23 25 42 25 50 1z m2345 -57 c0
-7 27 -34 60 -59 64 -49 90 -83 71 -94 -18 -11 22 -64 67 -89 34 -19 42 -20
42 -8 0 24 39 31 55 9 27 -35 9 -77 -32 -73 -31 4 -34 1 -23 -20 14 -26 9 -25
-63 10 -81 40 -91 46 -162 101 -33 25 -76 53 -95 62 -51 25 -83 55 -76 72 6
16 36 21 36 6 0 -10 65 -51 81 -51 15 0 10 20 -13 53 -50 69 -61 110 -33 121
8 3 15 12 15 21 0 11 10 6 35 -16 19 -18 35 -38 35 -45z m465 56 c3 -5 1 -10
-4 -10 -6 0 -11 5 -11 10 0 6 2 10 4 10 3 0 8 -4 11 -10z m-4040 -10 c-3 -5
-11 -10 -16 -10 -6 0 -7 5 -4 10 3 6 11 10 16 10 6 0 7 -4 4 -10z m947 -27
c22 -20 24 -43 3 -43 -8 0 -15 5 -15 10 0 6 -10 8 -24 4 -40 -10 -52 6 -19 27
34 23 32 23 55 2z m113 11 c13 -5 14 -8 3 -15 -20 -13 -35 -11 -42 6 -6 16 10
20 39 9z m1885 -29 c0 -16 -30 -35 -54 -35 -10 0 -16 9 -16 24 0 19 6 25 28
28 33 5 42 1 42 -17z m-1790 -30 c0 -3 -9 0 -20 7 -11 7 -20 19 -20 27 0 11 6
9 20 -7 11 -12 20 -24 20 -27z m106 -12 c-4 -4 -11 -1 -16 7 -16 25 -11 35 7
17 9 -9 13 -20 9 -24z m-186 17 c0 -5 -7 -10 -15 -10 -8 0 -15 5 -15 10 0 6 7
10 15 10 8 0 15 -4 15 -10z m-1588 -16 c-12 -8 -19 -21 -16 -27 4 -7 3 -9 -1
-4 -5 4 -20 0 -34 -9 -14 -8 -8 1 14 20 22 20 44 36 50 36 5 0 -1 -7 -13 -16z
m1486 -12 c2 -7 -6 -12 -17 -12 -21 0 -27 11 -14 24 9 9 26 2 31 -12z m322 4
c0 -3 -4 -8 -10 -11 -5 -3 -10 -1 -10 4 0 6 5 11 10 11 6 0 10 -2 10 -4z
m-109 -19 c-1 -12 -15 -9 -19 4 -3 6 1 10 8 8 6 -3 11 -8 11 -12z m1602 -9
c45 -43 41 -101 -11 -164 -15 -18 -40 -48 -57 -68 -33 -40 -39 -42 -76 -22
-14 7 -47 16 -73 20 -28 5 -57 17 -73 32 -14 13 -32 24 -40 24 -8 0 -28 8 -44
17 -34 20 -38 50 -9 83 11 13 20 30 20 38 0 10 6 12 23 7 28 -9 53 -10 102 -1
22 4 56 8 76 10 19 2 55 13 80 24 55 26 53 27 82 0z m-1653 -3 c0 -8 -4 -15
-9 -15 -13 0 -22 16 -14 24 11 11 23 6 23 -9z m1908 -10 c-3 -3 -9 2 -12 12
-6 14 -5 15 5 6 7 -7 10 -15 7 -18z m-3485 -3 c-10 -7 -23 -10 -31 -7 -7 2
-11 1 -7 -4 3 -5 -8 -12 -25 -16 -17 -4 -36 -12 -43 -19 -15 -15 -107 -68
-107 -62 0 2 33 29 73 59 71 54 88 62 134 62 21 0 22 -1 6 -13z m156 -3 c-16
-10 -23 -4 -14 10 3 6 11 8 17 5 6 -4 5 -9 -3 -15z m1381 6 c0 -8 -4 -15 -10
-15 -5 0 -10 7 -10 15 0 8 5 15 10 15 6 0 10 -7 10 -15z m-170 -5 c0 -5 -5
-10 -11 -10 -5 0 -7 5 -4 10 3 6 8 10 11 10 2 0 4 -4 4 -10z m65 0 c3 -6 -1
-13 -10 -16 -19 -8 -30 0 -20 15 8 14 22 14 30 1z m399 -6 c20 -19 20 -25 1
-18 -8 4 -15 10 -15 16 0 5 -4 6 -10 3 -5 -3 -10 -1 -10 4 0 16 16 13 34 -5z
m1706 6 c0 -4 10 -6 21 -6 12 1 26 -7 33 -17 16 -26 -17 -51 -45 -34 -10 6
-19 17 -19 24 0 7 -7 13 -15 13 -8 0 -15 6 -15 13 0 7 9 13 20 13 11 0 20 -3
20 -6z m-2244 -31 c6 -10 -46 -12 -71 -3 -25 10 0 21 35 16 17 -2 33 -8 36
-13z m2935 5 c12 -14 5 -64 -9 -64 -16 0 -52 41 -52 59 0 22 44 26 61 5z
m-2621 -9 c0 -8 -4 -15 -10 -15 -5 0 -7 7 -4 15 4 8 8 15 10 15 2 0 4 -7 4
-15z m355 9 c12 -5 14 -9 4 -14 -15 -10 -41 -1 -33 11 6 11 8 11 29 3z m-570
-14 c-3 -5 -12 -10 -18 -10 -7 0 -6 4 3 10 19 12 23 12 15 0z m-296 -92 c1 -5
-10 -8 -24 -8 -29 0 -32 12 -8 36 16 15 17 15 24 -2 4 -11 8 -22 8 -26z m354
16 c-3 -8 -10 -14 -17 -15 -6 0 -30 -3 -53 -5 -33 -4 -43 -2 -43 10 0 18 8 21
69 23 40 1 49 -1 44 -13z m2352 -4 c3 -5 -1 -10 -10 -10 -9 0 -13 5 -10 10 3
6 8 10 10 10 2 0 7 -4 10 -10z m-2769 -24 c9 -10 11 -17 4 -21 -13 -8 -42 14
-34 26 7 12 13 11 30 -5z m94 -21 c0 -16 -27 -28 -36 -14 -7 12 15 41 27 33 5
-3 9 -11 9 -19z m193 11 c4 -9 -3 -16 -19 -19 -26 -5 -39 6 -29 23 9 15 42 12
48 -4z m-347 -15 c-4 -5 0 -11 6 -14 9 -3 2 -15 -19 -35 -18 -17 -33 -35 -33
-41 0 -5 15 -11 33 -13 l32 -4 -26 -13 c-23 -11 -29 -11 -47 5 -28 24 -20 60
21 97 32 28 42 34 33 18z m-986 -21 c0 -15 7 -20 25 -20 20 0 25 -5 25 -25 0
-21 5 -25 28 -25 l27 0 -34 -29 c-43 -37 -86 -44 -131 -21 -19 10 -38 17 -41
16 -13 -3 -39 27 -39 45 0 26 39 59 69 59 14 0 33 5 41 10 23 15 30 12 30 -10z
m1263 -7 c-5 -12 -3 -14 8 -8 8 5 11 4 6 0 -19 -22 -56 -8 -42 15 11 17 35 12
28 -7z m237 -1 c0 -13 -12 -22 -22 -16 -10 6 -1 24 13 24 5 0 9 -4 9 -8z m-65
-18 c-8 -6 -12 -14 -8 -18 4 -4 0 -4 -10 0 -11 4 -17 1 -17 -7 0 -7 -3 -10 -6
-6 -14 13 7 42 31 42 21 0 23 -2 10 -11z m-420 -4 c-3 -5 -11 -10 -16 -10 -6
0 -7 5 -4 10 3 6 11 10 16 10 6 0 7 -4 4 -10z m3097 -17 c28 -25 28 -51 -3
-93 -29 -39 -37 -44 -71 -41 -10 1 -28 -5 -40 -13 -12 -9 -31 -16 -42 -16 -18
0 -116 92 -116 110 0 10 25 20 50 20 10 0 31 11 47 24 15 12 34 25 40 27 27 8
119 -4 135 -18z m-4354 -35 c2 -9 -6 -19 -16 -22 -11 -4 -25 -20 -32 -36 -14
-33 -20 -36 -37 -19 -9 9 -7 20 4 44 23 49 74 69 81 33z m1477 -19 c0 -7 -8
-15 -17 -17 -18 -3 -25 18 -11 32 10 10 28 1 28 -15z m-105 -24 c0 -8 -7 -15
-15 -15 -9 0 -12 6 -9 15 4 8 10 15 15 15 5 0 9 -7 9 -15z m-156 -10 c-6 -16
-34 -21 -34 -7 0 13 11 22 26 22 8 0 11 -6 8 -15z m96 -11 c0 -3 -5 -14 -10
-24 -8 -16 -8 -18 5 -14 8 4 15 1 15 -6 0 -8 12 -10 39 -5 51 8 58 -5 21 -40
-36 -34 -37 -45 -7 -46 17 -1 18 -2 4 -6 -9 -2 -15 -9 -12 -14 3 -5 -1 -6 -9
-3 -9 3 -14 10 -11 14 3 4 -2 11 -11 14 -14 5 -14 9 -3 23 10 12 10 15 1 9 -7
-4 -15 -1 -18 8 -3 9 -11 13 -16 10 -6 -4 -5 -10 3 -16 11 -7 11 -11 1 -15 -6
-2 -10 -8 -7 -13 11 -18 -36 4 -50 22 -11 17 -20 19 -49 14 -34 -7 -35 -6 -27
16 5 13 8 28 8 33 -1 6 26 17 58 26 72 20 75 20 75 13z m210 -3 c0 -12 -20
-25 -27 -18 -7 7 6 27 18 27 5 0 9 -4 9 -9z m-1663 -88 c-17 -17 -47 -11 -47
9 0 7 10 29 22 48 l22 35 9 -38 c7 -31 6 -42 -6 -54z m4773 64 c9 -48 9 -76 2
-81 -32 -19 -72 49 -50 84 9 14 16 16 30 9 10 -5 18 -11 18 -12z m-3475 -72
c22 -8 37 -14 32 -15 -4 0 7 -13 24 -28 18 -16 28 -31 23 -35 -6 -3 -27 10
-48 29 -21 19 -51 38 -67 41 -16 3 -29 9 -29 14 0 13 19 11 65 -6z m95 -30 c0
-3 -9 -1 -20 5 -11 6 -18 15 -15 21 6 9 35 -12 35 -26z m-697 5 l32 -1 -29
-25 c-19 -17 -26 -31 -23 -44 7 -27 -7 -33 -26 -12 -33 36 -33 100 0 88 8 -3
29 -6 46 -6z m-773 -40 c0 -10 -32 -36 -52 -43 -24 -9 -23 10 3 53 20 32 22
33 35 15 8 -10 14 -22 14 -25z m1100 20 c0 -5 -2 -10 -4 -10 -3 0 -8 5 -11 10
-3 6 -1 10 4 10 6 0 11 -4 11 -10z m520 -24 c0 -2 -7 -9 -15 -16 -13 -11 -14
-10 -9 4 5 14 24 23 24 12z m-508 -40 c12 -18 -26 -25 -39 -7 -21 28 -16 43
10 30 12 -7 25 -17 29 -23z m3653 12 c27 -12 33 -39 11 -57 -17 -14 -66 22
-66 50 0 22 18 24 55 7z m-3295 -2 c0 -3 -4 -8 -10 -11 -5 -3 -10 -1 -10 4 0
6 5 11 10 11 6 0 10 -2 10 -4z m520 -47 c0 -5 -6 -9 -13 -9 -7 0 -13 9 -13 19
0 15 3 17 13 9 7 -6 13 -14 13 -19z m-1843 5 c-3 -3 -12 -4 -19 -1 -8 3 -5 6
6 6 11 1 17 -2 13 -5z m551 -21 c-2 -12 -14 -19 -33 -21 l-30 -2 24 20 c29 25
44 26 39 3z m-843 -39 c-36 -29 -47 -13 -14 22 16 17 26 21 33 13 8 -7 2 -17
-19 -35z m5103 -84 c32 -30 30 -78 -5 -91 -57 -21 -102 15 -83 66 8 21 36 42
61 44 3 1 15 -8 27 -19z m63 -172 c23 -42 -50 -67 -75 -25 -9 15 -7 22 12 37
26 21 47 17 63 -12z"/>
<path d="M3374 1958 c-10 -16 32 -47 56 -41 30 8 36 24 15 40 -23 16 -61 17
-71 1z"/>
<path d="M3001 1585 c0 -11 13 -33 29 -48 26 -26 33 -22 20 13 -1 3 -2 8 -1
13 0 4 -3 6 -8 5 -5 -2 -17 6 -25 17 l-15 20 0 -20z"/>
<path d="M3074 1512 c2 -9 10 -18 19 -20 23 -5 21 10 -2 25 -16 10 -19 9 -17
-5z"/>
<path d="M3930 1501 c0 -17 18 -21 24 -6 3 9 0 15 -9 15 -8 0 -15 -4 -15 -9z"/>
<path d="M3040 1481 c0 -6 4 -13 10 -16 6 -3 7 1 4 9 -7 18 -14 21 -14 7z"/>
<path d="M4130 1460 c0 -5 6 -10 14 -10 8 0 18 5 21 10 3 6 -3 10 -14 10 -12
0 -21 -4 -21 -10z"/>
<path d="M3077 1451 c-18 -6 -18 -7 0 -23 10 -8 28 -21 41 -27 22 -12 23 -11
13 8 -6 11 -16 23 -21 26 -6 4 -8 11 -5 16 7 10 -2 11 -28 0z"/>
<path d="M3066 1395 c10 -8 23 -15 28 -15 6 0 1 7 -10 15 -10 8 -23 15 -28 15
-6 0 -1 -7 10 -15z"/>
<path d="M3103 1363 c9 -2 23 -2 30 0 6 3 -1 5 -18 5 -16 0 -22 -2 -12 -5z"/>
<path d="M2985 1320 c27 -12 43 -12 25 0 -8 5 -22 9 -30 9 -10 0 -8 -3 5 -9z"/>
<path d="M3166 1321 c-4 -7 -5 -15 -2 -18 9 -9 19 4 14 18 -4 11 -6 11 -12 0z"/>
<path d="M3225 1229 c-4 -6 -5 -12 -2 -15 2 -3 7 2 10 11 7 17 1 20 -8 4z"/>
<path d="M2680 1900 c0 -5 9 -10 19 -10 11 0 23 5 26 10 4 6 -5 10 -19 10 -14
0 -26 -4 -26 -10z"/>
<path d="M2655 1860 c3 -5 11 -10 16 -10 6 0 7 5 4 10 -3 6 -11 10 -16 10 -6
0 -7 -4 -4 -10z"/>
<path d="M2500 1770 c-13 -8 -12 -10 3 -10 9 0 17 5 17 10 0 12 -1 12 -20 0z"/>
<path d="M2530 1710 c-14 -11 -21 -20 -17 -20 5 0 20 9 34 20 14 11 22 20 17
20 -5 0 -20 -9 -34 -20z"/>
<path d="M2643 1535 c0 -8 4 -15 9 -15 4 0 8 4 8 9 0 6 -4 12 -8 15 -5 3 -9
-1 -9 -9z"/>
<path d="M5230 1700 c0 -5 5 -10 11 -10 5 0 7 5 4 10 -3 6 -8 10 -11 10 -2 0
-4 -4 -4 -10z"/>
<path d="M2605 1340 c-3 -5 -1 -10 4 -10 6 0 11 5 11 10 0 6 -2 10 -4 10 -3 0
-8 -4 -11 -10z"/>
<path d="M2290 1255 c-9 -10 -9 -15 -1 -15 6 0 11 4 11 9 0 5 10 12 23 14 21
4 21 4 1 6 -12 0 -27 -6 -34 -14z"/>
<path d="M1456 2604 c-4 -9 -1 -23 6 -31 10 -13 14 -12 25 3 7 10 13 24 13 31
0 19 -37 16 -44 -3z"/>
<path d="M1905 2230 c-3 -5 -1 -10 4 -10 6 0 11 5 11 10 0 6 -2 10 -4 10 -3 0
-8 -4 -11 -10z"/>
<path d="M1810 1931 c0 -11 26 -22 34 -14 3 3 3 10 0 14 -7 12 -34 11 -34 0z"/>
<path d="M2001 1894 c0 -11 3 -14 6 -6 3 7 2 16 -1 19 -3 4 -6 -2 -5 -13z"/>
<path d="M648 1823 c7 -3 16 -2 19 1 4 3 -2 6 -13 5 -11 0 -14 -3 -6 -6z"/>
<path d="M1610 1790 c0 -5 5 -10 10 -10 6 0 10 5 10 10 0 6 -4 10 -10 10 -5 0
-10 -4 -10 -10z"/>
<path d="M1363 1637 c-12 -20 14 -27 31 -8 18 19 17 20 -4 18 -12 -1 -24 -5
-27 -10z"/>
</g>
</svg>
