<?xml version="1.0" standalone="no"?>
<!DOCTYPE svg PUBLIC "-//W3C//DTD SVG 20010904//EN"
 "http://www.w3.org/TR/2001/REC-SVG-20010904/DTD/svg10.dtd">
<svg version="1.0" xmlns="http://www.w3.org/2000/svg"
 width="1600.000000pt" height="1384.000000pt" viewBox="0 0 1600.000000 1384.000000"
 preserveAspectRatio="xMidYMid meet">

<g transform="translate(0.000000,1384.000000) scale(0.100000,-0.100000)"
fill="#000000" stroke="none">
<path d="M0 12010 l0 -1830 59 0 c33 0 61 -5 63 -10 2 -7 15 -6 37 2 27 10 35
10 38 1 3 -7 15 -13 27 -13 13 0 26 -3 30 -7 3 -4 13 -8 20 -9 13 -2 48 -29
88 -66 10 -10 23 -18 28 -18 6 0 10 -9 10 -20 0 -11 6 -20 14 -20 19 0 30 -67
21 -132 -5 -37 -15 -58 -36 -79 -28 -27 -37 -49 -21 -49 4 0 13 -39 19 -86 9
-66 17 -90 33 -104 17 -15 19 -22 11 -39 -14 -25 -14 -91 -1 -91 6 0 10 -9 10
-19 0 -11 7 -26 15 -35 8 -8 15 -22 15 -30 0 -9 6 -16 13 -16 7 0 19 -21 27
-47 7 -27 22 -55 32 -64 11 -10 16 -23 12 -33 -4 -11 -1 -16 10 -16 9 0 16 -8
16 -21 0 -11 4 -18 8 -15 5 3 14 -10 20 -28 10 -27 19 -34 54 -42 33 -7 44
-14 46 -31 3 -22 22 -33 22 -13 0 24 21 7 27 -21 4 -22 8 -27 14 -17 7 10 9
10 9 1 0 -7 11 -13 25 -13 18 0 25 -5 25 -20 0 -13 7 -20 20 -20 11 0 20 -4
20 -10 0 -5 9 -10 19 -10 11 0 21 -4 23 -9 3 -8 155 -17 183 -11 6 1 14 2 18
1 4 -1 21 6 37 14 16 8 40 15 54 15 13 0 31 6 38 13 7 8 36 19 64 26 27 7 63
24 79 39 17 15 47 36 67 46 20 11 39 28 41 37 3 11 25 24 61 34 33 10 56 22
56 30 0 8 16 17 38 21 34 6 96 46 87 56 -3 2 7 49 21 104 14 54 30 119 34 144
5 25 27 99 49 165 33 95 41 133 41 190 0 38 -4 65 -8 58 -4 -7 -18 -11 -31
-10 -22 1 -23 3 -15 57 4 30 8 72 8 92 1 34 3 37 26 31 36 -8 38 -10 44 -41 4
-15 20 -36 36 -47 17 -11 30 -23 30 -27 0 -5 7 -8 15 -8 19 0 19 -9 -2 -32
-23 -26 -9 -34 23 -13 26 17 27 17 20 0 -3 -10 -1 -24 5 -31 6 -7 11 -34 11
-59 0 -30 4 -45 12 -45 9 0 12 -9 9 -24 -4 -19 4 -33 36 -63 35 -32 41 -45 43
-80 1 -33 7 -46 25 -58 12 -9 23 -24 23 -34 0 -28 33 -52 69 -49 17 1 31 7 32
13 4 51 16 75 38 75 11 0 22 6 24 13 3 7 6 5 6 -5 1 -10 5 -18 11 -18 5 0 7 6
4 14 -3 9 3 17 15 21 23 7 29 53 10 72 -14 14 -2 70 17 77 8 3 14 16 14 29 0
26 20 29 71 9 16 -7 31 -7 43 0 13 7 21 5 31 -9 13 -17 14 -16 15 10 0 42 36
37 54 -8 15 -35 46 -48 46 -20 0 8 5 15 10 15 6 0 10 -4 10 -10 0 -5 5 -10 10
-10 6 0 10 7 10 15 0 8 -4 15 -9 15 -5 0 -11 9 -14 20 -3 11 -1 18 4 14 5 -3
9 0 9 6 0 8 -9 10 -26 6 -17 -5 -23 -3 -19 4 4 6 1 18 -6 27 -11 12 -11 17 1
27 8 6 17 22 18 36 2 14 8 30 12 35 5 6 8 25 8 42 -2 58 -78 100 -78 43 0 -11
-3 -20 -7 -20 -11 0 -40 20 -30 20 4 0 3 9 -3 19 -7 14 -6 21 3 24 6 2 8 8 4
13 -4 4 -21 -6 -38 -23 -27 -27 -30 -33 -19 -53 9 -16 9 -25 1 -33 -6 -6 -11
-19 -11 -29 0 -10 -7 -18 -15 -18 -8 0 -15 5 -15 11 0 12 -25 39 -36 39 -3 0
-1 -7 6 -15 17 -20 5 -32 -15 -15 -8 7 -15 26 -15 42 0 25 3 28 21 23 20 -7
21 -4 16 47 -3 29 -8 65 -12 79 -6 25 -4 27 34 34 33 5 41 11 42 28 1 17 2 18
6 5 2 -10 10 -18 16 -18 6 0 23 -12 38 -26 15 -14 44 -32 65 -39 34 -11 39
-11 42 1 2 8 -2 21 -8 29 -8 9 -8 15 -2 15 5 0 12 -7 16 -15 6 -18 27 -20 23
-3 -3 16 75 11 85 -5 6 -9 8 -9 8 1 0 7 13 12 31 12 17 0 28 4 24 10 -3 6 -15
10 -26 10 -10 0 -19 6 -19 14 0 7 -9 16 -20 19 -23 6 -39 39 -22 45 18 6 14
27 -8 47 -11 10 -20 22 -20 27 0 12 27 10 50 -4 15 -10 23 -9 39 6 12 11 21
27 21 37 0 10 9 23 20 29 11 6 27 26 35 45 7 19 18 35 23 35 4 0 25 16 46 35
21 19 43 35 49 35 6 0 2 -6 -8 -14 -18 -13 -18 -14 3 -25 30 -16 35 -14 29 11
-5 16 2 29 25 50 17 15 28 31 25 35 -4 3 2 13 14 21 15 10 18 17 10 25 -17 17
-13 30 14 60 32 33 77 36 98 6 11 -16 24 -20 50 -18 19 2 42 -3 51 -10 26 -22
18 -5 -14 31 -16 18 -30 29 -30 25 0 -4 -8 1 -18 11 -23 21 -18 32 14 32 17 0
27 8 35 27 18 49 16 66 -14 81 -24 11 -31 11 -57 -5 -17 -9 -30 -23 -30 -29 0
-6 -9 -14 -20 -17 -11 -3 -20 -12 -20 -21 0 -25 -29 -19 -40 8 -5 13 -14 26
-21 28 -21 7 8 46 40 53 16 3 31 14 34 24 2 10 22 22 46 29 24 8 41 19 41 27
0 8 -4 15 -10 15 -5 0 -10 7 -10 15 0 20 12 19 42 -5 14 -10 44 -22 67 -26 34
-5 41 -4 41 10 0 9 5 16 10 16 6 0 10 -7 10 -16 0 -11 5 -14 16 -10 9 3 18 6
20 6 2 0 1 12 -2 26 -6 22 -4 25 12 22 21 -4 33 -48 13 -48 -9 0 -9 -3 1 -14
11 -14 22 -14 65 4 11 4 35 13 52 20 46 17 84 55 76 75 -5 14 0 16 23 15 44
-3 48 -1 34 15 -10 13 -9 15 8 15 15 0 20 5 15 16 -4 10 2 17 16 21 13 3 20
11 17 18 -2 7 -2 16 2 20 7 6 11 41 12 93 0 31 34 42 129 42 73 0 79 2 85 23
11 43 7 57 -18 57 -13 0 -27 7 -30 16 -4 10 -13 13 -27 9 -12 -4 -24 -3 -28 2
-4 6 -19 6 -41 0 l-35 -10 35 -8 c19 -4 36 -12 38 -18 2 -6 10 -17 17 -25 8
-7 11 -16 8 -20 -10 -10 -43 -7 -43 5 0 5 -13 3 -29 -7 -28 -16 -29 -16 -54 7
-23 23 -42 80 -30 92 3 4 14 2 25 -4 13 -7 27 -7 47 2 23 10 27 18 26 47 0 26
-7 38 -23 45 -12 6 -22 14 -22 19 0 4 -9 8 -19 8 -10 0 -21 7 -25 15 -3 8 -16
15 -30 15 -13 0 -26 7 -30 15 -3 8 -17 15 -31 15 -21 0 -25 -5 -25 -30 0 -25
-6 -33 -32 -44 -27 -12 -29 -14 -12 -20 10 -3 36 -8 56 -10 29 -4 36 -2 31 10
-3 7 -15 14 -27 14 -40 1 11 28 53 28 45 1 62 -22 36 -47 -12 -12 -43 -15
-152 -16 -136 -1 -139 -1 -194 -33 -31 -18 -62 -39 -69 -47 -13 -16 -50 -21
-50 -6 0 5 9 11 20 14 14 3 20 14 20 32 0 24 3 26 29 20 17 -3 32 -2 36 4 3 6
17 11 31 11 13 0 24 4 24 8 0 5 15 16 33 25 l32 16 -37 0 c-26 1 -38 -3 -38
-13 0 -18 -17 -24 -48 -18 -26 5 -24 25 3 31 10 1 30 14 44 27 25 23 111 49
121 36 5 -7 22 -7 65 -3 18 2 17 3 -5 12 -14 6 -33 8 -43 5 -11 -3 -21 2 -24
12 -4 9 -11 20 -17 24 -22 15 -90 7 -135 -16 -25 -13 -59 -28 -74 -35 -15 -6
-30 -19 -33 -28 -13 -41 -49 -106 -62 -110 -7 -3 -22 4 -33 16 -11 11 -26 21
-34 21 -10 0 -12 9 -8 34 6 40 -11 76 -36 76 -9 0 -28 -11 -41 -25 -25 -27
-55 -33 -63 -12 -4 10 -7 10 -18 0 -17 -17 -42 -16 -36 0 3 8 2 19 -2 25 -11
18 -71 -8 -71 -30 0 -10 -5 -18 -11 -18 -7 0 -9 -11 -6 -27 3 -15 1 -37 -4
-50 -11 -31 -39 -30 -39 1 0 29 -38 43 -60 21 -13 -13 -12 -15 8 -15 13 0 22
-6 21 -12 -5 -39 1 -48 35 -48 18 0 47 5 64 11 46 16 57 8 32 -24 -26 -33 -96
-71 -116 -63 -8 3 -14 15 -14 27 0 18 -2 19 -15 9 -8 -7 -24 -10 -35 -7 -14 4
-28 -4 -48 -28 -40 -49 -120 -87 -174 -83 l-43 3 30 15 c26 13 30 21 30 55 0
34 -3 40 -22 43 -28 4 -31 36 -6 51 15 8 16 13 6 30 -8 13 -10 28 -4 43 7 18
4 27 -15 41 -23 17 -24 17 -24 -3 0 -13 4 -19 11 -14 7 4 10 1 7 -7 -3 -8 -14
-15 -26 -17 -12 -2 -22 -7 -22 -11 0 -11 -39 -51 -50 -51 -6 0 -10 7 -10 15 0
8 -3 14 -8 12 -4 -1 -8 1 -10 6 -5 16 -1 19 13 7 9 -7 18 -10 22 -6 10 10 -15
56 -32 56 -9 0 -15 9 -15 24 0 41 -18 39 -25 -2 -6 -36 -9 -39 -38 -38 -25 1
-33 6 -35 22 -2 15 -15 25 -43 33 -31 9 -39 16 -35 28 4 9 -1 24 -10 34 -15
17 -17 16 -44 -14 -24 -27 -31 -30 -42 -19 -11 11 -8 18 16 38 36 32 22 55
-18 29 -14 -10 -26 -13 -27 -9 0 5 -4 1 -7 -9 -4 -10 -37 -32 -72 -50 -43 -22
-64 -38 -62 -48 1 -10 -13 -23 -38 -34 -22 -10 -40 -25 -40 -34 0 -21 -63 -71
-89 -71 -12 0 -21 -6 -21 -14 0 -8 -7 -16 -15 -20 -8 -3 -15 -12 -15 -21 0 -8
-6 -15 -14 -15 -13 0 -22 15 -32 55 -2 6 -8 28 -15 50 -13 46 -12 136 2 150 5
5 9 23 9 40 0 26 6 34 33 46 17 8 36 24 42 37 5 12 13 22 17 22 5 0 8 27 8 60
0 56 3 65 41 115 23 30 45 55 50 55 5 0 9 12 9 26 0 14 4 23 10 19 5 -3 17 3
27 14 10 11 29 32 42 46 13 15 29 24 38 21 8 -3 11 -1 8 4 -3 6 0 10 8 10 8 0
17 7 21 15 3 8 16 20 30 26 13 6 28 21 34 34 6 12 23 26 38 29 15 4 46 19 68
34 122 82 155 79 148 -10 -2 -22 13 -22 90 -2 33 8 67 13 74 10 15 -6 79 18
89 34 3 5 15 10 26 10 22 0 54 17 81 43 22 21 68 23 68 3 0 -23 22 -31 35 -13
7 10 17 17 23 17 16 0 62 -52 62 -70 0 -8 4 -21 9 -29 8 -12 14 -12 43 0 40
16 79 49 72 60 -2 4 1 11 7 15 8 4 9 3 5 -4 -10 -17 -1 -15 60 13 31 14 60 23
65 20 15 -10 11 -30 -11 -53 -11 -12 -20 -24 -20 -27 0 -18 69 10 95 40 13 14
121 55 145 55 10 0 22 -5 26 -11 8 -14 -14 -29 -43 -29 -15 0 -25 -8 -28 -23
-8 -29 -92 -61 -135 -52 -32 7 -81 -17 -61 -30 6 -3 15 -4 19 -1 23 14 70 15
81 2 14 -17 41 -11 98 21 58 32 80 31 51 -2 -12 -14 -30 -25 -40 -25 -10 0
-23 -11 -28 -24 -5 -13 -14 -27 -20 -31 -6 -4 -8 -15 -5 -25 5 -17 -24 -40
-125 -98 l-25 -14 30 7 c17 3 57 20 89 36 33 16 69 29 81 29 13 0 28 7 35 16
21 24 46 34 103 40 28 3 57 10 62 14 6 5 28 11 50 15 67 11 79 16 65 25 -9 5
3 10 31 14 24 3 60 8 79 11 19 3 59 8 88 12 28 3 52 9 52 14 0 14 -40 30 -67
27 -15 -2 -28 2 -30 9 -3 7 9 13 29 15 18 2 34 9 34 16 1 6 3 15 4 20 2 4 3
14 4 22 1 11 15 15 59 15 31 0 57 3 57 8 0 4 -4 7 -10 7 -5 0 -10 5 -10 10 0
6 7 10 17 10 17 0 139 -55 162 -73 23 -20 84 -37 136 -38 37 -2 41 -3 18 -6
-18 -2 -33 -9 -33 -15 0 -7 21 -9 63 -5 54 5 64 3 75 -13 9 -14 8 -20 -1 -23
-7 -3 -1 -6 12 -6 29 -1 54 -31 40 -48 -7 -8 -1 -13 21 -18 20 -4 34 -15 40
-31 7 -18 17 -24 40 -24 32 0 37 -9 18 -28 -10 -10 -10 -15 2 -22 8 -5 23 -10
32 -10 9 0 24 -10 32 -21 11 -16 29 -23 68 -27 47 -4 50 -6 28 -16 -24 -10
-23 -10 15 -14 l40 -4 -40 -19 -40 -19 43 4 c38 4 44 1 52 -20 5 -13 18 -29
30 -36 11 -7 20 -18 20 -25 0 -7 6 -10 14 -7 9 3 17 -3 21 -18 19 -63 41 -97
62 -98 30 0 36 -13 24 -55 -6 -21 -6 -37 0 -41 15 -9 10 -22 -8 -27 -16 -4
-16 -5 1 -6 19 -1 19 -1 0 -22 -19 -22 -19 -22 9 -17 31 6 47 -9 21 -19 -16
-6 -16 -7 2 -13 11 -4 19 -16 19 -31 0 -19 5 -23 22 -21 24 3 43 -22 43 -58 0
-17 -5 -21 -27 -20 -46 3 -64 0 -59 -9 3 -4 -6 -6 -20 -3 l-25 5 31 18 c17 11
37 19 45 19 7 0 17 5 20 10 8 13 -38 13 -52 -1 -11 -11 -63 -2 -63 10 0 4 -12
13 -26 20 -22 10 -24 14 -13 27 11 13 10 15 -2 14 -25 -4 -65 1 -51 7 19 7 14
21 -10 29 -21 6 -21 7 -3 20 14 11 15 14 4 18 -38 13 -54 9 -86 -21 -19 -18
-41 -33 -49 -33 -19 0 -18 -6 8 -40 18 -24 19 -32 8 -45 -11 -13 -10 -14 5 -9
9 4 20 2 25 -5 6 -10 19 -9 62 4 42 14 59 15 74 7 18 -11 18 -11 -2 -12 -11 0
-29 -7 -40 -16 -18 -15 -18 -15 6 -10 31 6 70 -24 70 -53 0 -12 5 -21 10 -21
20 0 9 -19 -12 -22 -13 -2 -22 -9 -20 -17 1 -7 -5 -19 -13 -25 -15 -11 -13
-14 12 -26 27 -13 27 -14 6 -18 -33 -5 -28 -21 7 -28 33 -7 41 -24 11 -24 -25
0 -36 -16 -19 -27 7 -4 36 -13 63 -19 l50 -10 -30 -17 c-30 -16 -29 -18 13
-22 36 -4 38 -14 4 -21 -37 -7 -43 -23 -9 -25 20 -1 20 -2 -5 -12 -27 -11 -38
-27 -18 -27 5 0 33 9 62 20 28 11 54 18 56 16 2 -2 -6 -7 -17 -11 -12 -3 -21
-11 -21 -16 0 -6 -15 -15 -32 -22 -30 -11 -25 -12 67 -17 l100 -5 -45 -13
c-75 -22 -77 -25 -22 -33 70 -9 78 -19 15 -19 -31 0 -55 -5 -62 -14 -10 -11
-2 -19 41 -40 33 -15 45 -26 33 -26 -19 -1 -19 -1 -2 -14 23 -17 22 -26 -4
-26 -16 0 -19 -4 -14 -22 6 -18 4 -20 -11 -14 -46 19 -47 17 -16 -12 19 -16
47 -36 63 -42 37 -16 37 -42 2 -71 -21 -16 -23 -20 -8 -15 16 6 18 5 8 -5 -16
-16 -17 -65 -1 -75 8 -5 6 -10 -8 -15 -17 -6 -16 -8 9 -20 31 -14 31 -32 -1
-37 -18 -3 -20 -7 -12 -23 6 -10 8 -19 4 -19 -4 0 1 -10 12 -22 l19 -21 -32 6
c-18 4 -33 2 -33 -3 0 -4 -8 -10 -17 -13 -36 -8 38 -27 108 -27 75 0 87 10 37
31 l-33 14 65 6 c49 4 59 8 43 14 -27 9 -29 20 -5 30 15 7 14 9 -7 14 -35 9
-36 26 -1 28 17 1 46 3 66 5 31 2 34 4 19 14 -9 7 -14 17 -10 23 3 6 1 11 -5
11 -6 0 -8 5 -4 11 3 6 1 15 -6 19 -18 11 -2 32 19 25 10 -3 29 -1 42 4 16 6
18 10 8 10 -14 1 -29 20 -29 38 0 2 19 2 43 -1 37 -5 39 -5 14 5 l-27 11 22
24 c24 25 66 32 84 14 11 -11 144 -27 144 -17 0 3 -22 13 -49 22 -39 13 -48
20 -44 35 3 10 16 21 29 24 35 9 19 33 -27 41 -43 7 -59 22 -35 31 20 8 21 24
2 24 -15 0 -27 22 -31 54 -1 10 -10 25 -20 32 -18 13 -17 14 6 16 13 0 32 1
42 0 29 -3 19 15 -13 22 -37 7 -41 36 -5 36 14 0 25 5 25 10 0 6 -10 10 -22
10 -18 0 -20 2 -9 9 8 5 21 7 30 4 14 -4 14 -3 1 6 -8 6 -24 11 -35 12 -17 1
-17 2 -2 6 31 8 18 23 -20 23 -45 1 -86 26 -64 39 11 7 9 11 -9 21 -18 10 -20
14 -9 21 10 6 8 9 -10 9 -17 0 -22 4 -17 16 4 10 0 18 -13 21 -17 4 -54 70
-56 98 0 6 -6 14 -12 18 -18 11 -16 27 2 27 21 0 19 13 -6 28 -12 8 -19 21
-18 35 2 13 -8 34 -23 50 -29 31 -44 79 -21 70 9 -4 11 0 7 11 -3 9 -10 16
-14 16 -12 0 -94 70 -99 84 -7 22 -36 48 -74 68 -21 10 -41 27 -44 36 -11 29
-93 131 -114 143 -11 5 -17 14 -14 20 4 5 2 9 -4 9 -11 0 -54 67 -58 91 -1 9
-19 34 -39 55 -59 63 -64 70 -64 82 0 7 5 12 10 12 6 0 10 10 10 23 0 21 4 23
37 20 20 -1 41 -7 47 -13 6 -6 58 -10 121 -10 110 0 112 0 123 25 7 14 12 32
12 39 0 9 11 13 33 11 23 -1 38 5 55 23 12 14 22 29 22 34 0 4 7 8 15 8 8 0
15 4 15 9 0 5 14 11 30 15 18 3 30 12 30 21 0 8 9 15 20 15 11 0 20 4 20 9 0
10 60 37 73 33 5 -1 6 6 2 17 -4 13 2 28 20 45 17 17 25 36 25 61 0 28 4 35
19 35 13 0 21 10 25 34 4 20 16 41 31 50 15 10 22 22 19 31 -6 15 17 45 35 45
6 0 11 9 11 20 0 11 5 20 10 20 6 0 10 18 10 40 0 29 4 40 15 40 18 0 65 44
65 60 0 17 47 60 65 60 21 0 45 -24 45 -44 0 -12 10 -16 35 -16 19 0 35 -4 35
-10 0 -5 7 -10 15 -10 8 0 15 -4 15 -9 0 -5 17 -27 38 -49 66 -71 66 -71 70
-159 3 -45 8 -83 12 -83 15 0 30 -54 30 -113 0 -34 7 -74 14 -90 8 -15 14 -50
14 -78 -1 -28 3 -54 9 -57 25 -17 30 -50 25 -148 -4 -93 -3 -105 17 -138 13
-20 23 -51 24 -69 2 -32 -26 -108 -48 -134 -5 -7 -16 -19 -23 -28 -7 -8 -10
-20 -7 -25 4 -6 -3 -22 -14 -36 -12 -15 -21 -33 -21 -41 0 -11 -7 -13 -25 -9
-21 5 -26 2 -31 -21 -11 -44 -22 -52 -61 -46 -27 5 -38 2 -45 -10 -5 -10 -15
-17 -22 -17 -24 0 -76 -31 -76 -46 0 -8 -4 -14 -10 -14 -5 0 -10 -22 -10 -48
0 -36 5 -51 20 -62 11 -8 20 -22 20 -32 0 -10 4 -18 9 -18 10 0 27 -39 23 -52
-1 -5 6 -8 17 -8 10 0 29 -14 42 -31 13 -16 32 -40 42 -51 9 -12 17 -25 17
-30 0 -4 7 -8 15 -8 20 0 31 -46 15 -65 -17 -20 -19 -85 -4 -115 19 -40 66
-84 112 -104 23 -10 42 -25 42 -33 0 -7 6 -13 13 -13 27 0 234 -114 309 -171
42 -31 87 -60 100 -64 13 -4 57 -28 98 -53 75 -47 120 -77 268 -184 44 -32 84
-58 89 -58 5 0 20 -12 34 -26 13 -15 47 -41 74 -59 28 -18 57 -40 64 -49 7 -9
17 -16 21 -16 4 0 33 -24 63 -52 62 -59 90 -82 159 -130 86 -61 209 -153 254
-190 25 -21 50 -38 55 -38 6 0 30 -19 55 -42 45 -42 168 -133 221 -163 15 -9
64 -43 108 -75 44 -33 106 -77 138 -98 77 -49 169 -122 237 -186 30 -29 75
-65 100 -80 85 -54 154 -111 255 -212 55 -55 134 -125 175 -156 41 -30 105
-88 142 -129 212 -232 360 -382 413 -419 22 -15 61 -50 86 -76 54 -59 129
-125 129 -116 0 4 4 2 8 -4 11 -17 68 -44 92 -44 13 0 20 -7 20 -20 0 -13 7
-20 20 -20 16 0 20 -7 21 -32 0 -18 3 -27 6 -20 7 17 23 15 23 -3 0 -25 30
-76 40 -70 6 4 10 -1 10 -10 0 -21 27 -56 107 -143 33 -37 72 -80 84 -97 13
-16 33 -36 44 -44 20 -14 209 -204 291 -292 23 -24 54 -52 70 -61 16 -10 28
-22 26 -28 -2 -10 58 -78 145 -162 21 -21 38 -44 38 -52 0 -8 14 -27 30 -42
78 -72 -62 -14 -150 62 -27 24 -106 92 -173 151 -68 60 -147 126 -175 148 -58
45 -160 127 -226 182 l-44 37 7 -36 c8 -45 -2 -52 -60 -43 -49 7 -168 81 -170
105 -1 8 -2 20 -2 27 -1 6 -19 32 -41 57 -49 56 -136 195 -127 203 8 9 78 -24
107 -50 26 -24 75 -57 84 -57 16 0 -17 34 -71 72 -64 46 -121 91 -188 149 -22
20 -62 50 -88 68 -26 17 -74 56 -107 86 -63 59 -71 63 -71 40 0 -8 4 -15 9
-15 18 0 43 -53 47 -98 2 -29 -3 -62 -13 -86 -16 -36 -16 -42 1 -100 10 -33
19 -72 20 -86 1 -14 9 -41 18 -60 13 -31 13 -38 0 -57 -18 -28 -25 -29 -62 -1
-47 35 -45 14 4 -47 25 -30 46 -62 46 -70 0 -20 -31 -34 -55 -25 -28 10 -55 1
-55 -19 0 -37 -16 -45 -51 -27 -25 13 -34 14 -40 4 -5 -7 -2 -19 5 -28 29 -33
30 -43 5 -30 -23 12 -23 12 -8 -6 32 -37 33 -45 5 -38 -31 7 -35 -10 -8 -39
17 -20 16 -20 -15 -14 -19 4 -33 2 -33 -3 0 -15 -22 -12 -65 10 -46 23 -84 27
-41 4 20 -11 25 -18 16 -24 -9 -6 -9 -12 -1 -29 l12 -21 -36 21 c-20 12 -38
20 -40 17 -3 -2 11 -21 31 -42 41 -43 39 -53 -8 -37 l-32 11 29 -30 c29 -30
21 -39 -16 -20 -11 6 -19 7 -19 1 0 -5 7 -11 15 -15 8 -3 15 -10 15 -16 0 -6
-12 -4 -30 5 -16 9 -30 11 -30 6 0 -6 9 -15 21 -21 11 -7 18 -14 16 -17 -3 -3
-22 7 -41 22 -43 33 -49 15 -9 -27 22 -23 24 -30 13 -43 -17 -20 -26 -19 -61
6 -24 17 -28 18 -22 3 5 -15 3 -15 -23 2 -24 15 -27 16 -16 2 19 -24 -4 -34
-29 -12 -26 23 -26 0 1 -43 24 -40 29 -41 22 -7 l-5 26 27 -23 c14 -12 26 -28
26 -34 0 -6 8 -22 17 -35 10 -14 16 -34 15 -45 -2 -11 15 -41 39 -70 44 -53
63 -91 54 -106 -4 -5 0 -7 7 -4 7 3 29 -13 48 -36 19 -23 53 -60 76 -83 22
-22 51 -57 64 -78 21 -31 39 -42 121 -73 53 -20 111 -39 130 -41 37 -6 155
-57 179 -78 8 -8 31 -17 50 -21 19 -4 51 -16 70 -26 19 -11 48 -19 65 -19 33
0 145 -50 237 -106 31 -19 82 -41 112 -49 31 -8 77 -26 103 -39 27 -13 77 -36
113 -51 147 -61 231 -108 284 -156 31 -28 59 -61 62 -74 3 -14 24 -33 52 -48
46 -25 152 -127 152 -146 0 -17 53 -72 107 -113 30 -22 53 -42 50 -44 -2 -3
-23 -1 -46 5 -49 11 -58 2 -31 -32 11 -14 20 -30 20 -36 0 -5 20 -24 44 -41
94 -64 67 -63 -127 2 -65 22 -121 38 -124 34 -3 -3 1 -14 10 -24 10 -10 15
-21 12 -24 -9 -9 -156 28 -300 75 -77 25 -214 69 -305 97 -163 51 -218 71
-415 147 -55 22 -122 45 -150 53 -27 7 -88 28 -135 48 -47 19 -137 52 -200 73
-63 22 -124 44 -135 49 -41 18 -234 90 -365 135 -74 26 -153 55 -175 65 -22 9
-69 30 -105 45 -36 15 -135 57 -220 95 -410 179 -536 237 -528 246 7 6 136
-22 221 -47 140 -42 206 -34 256 30 38 48 41 106 11 177 -12 26 -24 68 -27 93
-8 60 -46 140 -80 172 -31 29 -114 79 -216 130 -38 19 -73 39 -79 46 -5 6 -16
9 -23 7 -8 -3 -33 8 -57 24 -24 16 -54 33 -68 37 -14 4 -54 23 -89 42 -35 20
-60 30 -56 23 6 -10 3 -12 -11 -6 -19 7 -79 21 -159 36 -22 4 -62 19 -90 34
-27 14 -70 29 -95 32 -39 5 -47 3 -58 -15 -11 -18 -10 -22 5 -27 10 -3 26 -10
35 -15 10 -5 27 -9 37 -9 11 0 22 -4 25 -9 6 -9 -81 -24 -95 -15 -5 3 -9 0 -9
-5 0 -6 -9 -11 -19 -11 -24 0 -170 74 -191 97 -14 14 -12 15 18 10 17 -4 32
-3 32 2 0 5 9 7 20 4 26 -7 26 14 0 22 -23 7 -25 22 -6 44 12 14 12 23 -2 66
-9 28 -21 53 -26 57 -7 5 -6 8 3 8 13 0 12 13 -5 55 -7 17 -2 15 25 -8 19 -15
36 -26 39 -23 9 10 -50 77 -63 72 -8 -3 -15 6 -18 23 -3 15 -26 54 -50 87 -24
32 -59 87 -76 120 -18 34 -41 70 -52 80 -14 12 -16 20 -8 25 9 5 9 17 1 45
-25 89 -25 92 -5 59 16 -28 18 -29 21 -8 3 19 -8 40 -76 139 -9 14 -14 15 -18
7 -3 -7 -11 -13 -17 -13 -8 0 -7 4 1 12 7 7 12 19 12 28 0 12 -2 12 -9 2 -7
-11 -12 -12 -29 -1 -11 7 -23 20 -27 29 -11 29 -35 67 -50 80 -18 15 -19 3 -5
-37 l10 -28 -20 24 c-22 26 -25 37 -10 46 6 3 10 15 10 26 0 15 6 20 23 17 21
-3 46 -41 62 -92 3 -10 8 -16 11 -13 4 3 2 20 -4 36 -14 39 4 42 19 5 9 -25
10 -26 23 -9 9 13 15 15 20 7 4 -7 4 -16 1 -22 -3 -5 -1 -10 5 -10 6 0 8 13 6
33 -8 59 -26 85 -40 55 -4 -10 -7 -10 -12 -1 -3 6 -16 24 -29 39 -22 26 -22
29 -7 40 15 11 15 15 3 26 -12 11 -13 10 -8 -5 7 -19 -4 -16 -34 10 -15 12
-16 11 -12 -12 3 -15 1 -25 -6 -25 -6 0 -11 9 -11 19 0 21 -32 39 -38 22 -2
-6 -8 -9 -13 -5 -5 3 -9 -2 -9 -10 0 -46 -42 11 -75 99 -10 28 -22 54 -26 59
-11 12 5 -44 20 -72 6 -11 11 -31 11 -44 0 -13 4 -28 9 -33 15 -16 24 -75 12
-75 -6 0 -11 8 -11 18 0 11 -9 27 -21 38 l-21 19 7 -40 c4 -22 12 -48 16 -57
5 -9 9 -26 9 -37 0 -32 -35 -27 -49 7 -6 15 -21 32 -33 37 -14 7 -27 29 -38
65 -15 52 -17 54 -22 25 -4 -16 -2 -34 3 -39 5 -6 9 -21 9 -35 0 -44 11 -70
26 -64 8 3 22 2 31 -1 14 -6 15 -9 4 -16 -11 -6 -12 -17 -4 -48 6 -23 7 -46 2
-54 -7 -10 -9 -10 -9 3 0 9 -7 22 -15 29 -12 10 -15 10 -15 0 0 -9 -4 -9 -12
-2 -7 6 -17 10 -23 10 -5 1 -17 27 -26 59 -17 64 -38 109 -39 82 0 -9 -9 -24
-20 -34 -19 -17 -20 -17 -20 -1 0 10 5 14 11 10 12 -7 12 -6 -13 111 -9 43
-13 53 -16 34 -3 -26 -4 -27 -33 -12 -16 8 -29 21 -29 29 0 8 -4 14 -10 14 -5
0 -10 9 -10 20 0 26 -21 26 -43 -1 -15 -16 -21 -18 -33 -9 -8 7 -14 20 -14 30
0 27 -21 81 -30 75 -9 -5 19 -118 32 -126 7 -5 11 -31 20 -135 1 -13 68 -36
89 -32 12 3 28 -32 43 -94 4 -17 2 -28 -4 -28 -9 0 -22 40 -23 67 0 16 -43 37
-87 44 -25 3 -53 10 -63 14 -15 6 -18 4 -15 -11 3 -18 -5 -19 -112 -19 -63 0
-142 3 -175 7 l-60 8 35 -16 c19 -9 61 -17 92 -18 31 -2 64 -8 72 -15 10 -8
16 -9 21 -1 11 18 35 11 35 -10 0 -15 -7 -20 -27 -20 -27 -1 -27 -1 -9 -15 12
-9 42 -15 72 -15 46 0 53 2 51 20 -1 15 -6 18 -25 13 -19 -4 -23 -2 -20 12 2
11 14 19 30 21 23 2 27 -2 32 -32 4 -19 11 -34 16 -34 6 0 13 0 17 0 4 0 6 17
4 37 -3 33 -1 36 13 24 9 -7 16 -24 16 -37 0 -25 1 -26 80 -30 25 -1 50 -3 57
-3 8 -1 8 -7 0 -25 -10 -21 -13 -22 -23 -8 -6 8 -18 13 -26 9 -9 -3 -20 -1
-25 4 -15 15 -65 0 -59 -18 3 -8 6 -19 6 -23 0 -5 12 -16 28 -24 19 -11 22
-15 10 -16 -29 0 -20 -20 12 -26 31 -7 58 -30 47 -41 -4 -3 -12 -1 -19 4 -19
14 -85 31 -153 38 -33 4 -81 13 -107 20 -60 17 -199 30 -178 16 8 -5 42 -14
75 -20 94 -18 207 -49 218 -60 6 -6 21 -11 34 -11 14 0 23 -6 23 -16 0 -10 -6
-14 -17 -10 -10 2 -49 7 -88 10 l-70 6 64 -20 c63 -19 86 -30 62 -30 -11 0
-197 44 -233 56 -10 3 -18 1 -18 -4 0 -18 98 -51 211 -71 l114 -20 -95 5 -95
4 55 -21 c30 -11 69 -27 85 -35 l30 -15 -45 6 c-202 23 -218 16 -73 -31 105
-35 80 -47 -29 -14 -38 12 -93 23 -121 26 l-52 4 70 -24 c39 -13 93 -30 120
-39 l50 -15 -57 4 c-31 1 -80 9 -110 18 -29 8 -98 22 -153 31 -55 9 -114 20
-131 26 -17 5 -44 9 -60 9 l-29 -1 27 -15 c15 -8 52 -16 81 -19 30 -2 67 -10
83 -16 16 -6 47 -13 69 -15 22 -3 78 -15 125 -28 47 -13 99 -26 117 -29 40 -8
108 -36 101 -42 -3 -3 -31 4 -63 15 -32 11 -70 20 -84 20 -14 0 -60 9 -101 20
-41 10 -77 16 -80 13 -3 -3 0 -8 6 -10 6 -2 20 -10 30 -18 10 -9 -15 1 -56 20
-41 19 -86 35 -100 34 -20 -1 -15 -5 26 -25 29 -13 89 -38 135 -54 77 -28 123
-51 71 -36 -68 19 -67 19 -55 6 6 -7 58 -37 115 -67 105 -55 92 -67 -19 -16
-30 14 -56 23 -58 21 -2 -2 32 -28 75 -57 44 -29 80 -60 80 -67 0 -8 11 -20
25 -26 35 -16 31 -29 -7 -21 -22 4 -29 3 -24 -6 4 -6 11 -9 16 -6 4 3 13 -2
20 -10 11 -14 10 -14 -14 -5 -15 5 -42 10 -59 10 -18 1 -43 7 -57 15 -29 17
-40 18 -40 7 0 -5 11 -14 25 -20 14 -6 25 -17 25 -24 0 -8 12 -21 28 -30 40
-26 11 -22 -63 8 -36 15 -68 24 -71 21 -7 -6 76 -51 145 -80 24 -10 53 -25 65
-33 20 -15 20 -16 1 -11 -30 8 -84 19 -90 18 -3 -1 -5 -4 -4 -7 2 -14 -26 -22
-48 -13 -36 14 -28 -8 15 -35 20 -13 50 -35 66 -49 15 -13 48 -34 72 -46 24
-12 46 -26 49 -32 9 -14 -42 -11 -82 6 -31 13 -34 13 -23 0 7 -8 16 -15 21
-15 7 0 63 -33 98 -57 2 -2 2 -5 -1 -8 -3 -3 -41 8 -84 24 -43 16 -92 34 -109
40 l-30 11 24 -20 c13 -11 31 -20 41 -20 10 0 38 -15 62 -33 24 -19 62 -37 83
-40 22 -4 41 -11 43 -17 2 -5 11 -10 19 -10 25 0 133 -42 133 -51 0 -5 23 -9
50 -9 28 0 50 -4 50 -10 0 -5 13 -10 29 -10 16 0 34 -7 41 -14 6 -8 36 -20 65
-26 37 -8 52 -15 49 -24 -4 -9 10 -15 46 -20 40 -5 50 -10 46 -21 -4 -11 3
-15 25 -15 17 0 37 -7 46 -15 8 -8 19 -12 25 -9 6 4 17 -1 24 -10 6 -9 23 -18
35 -20 28 -3 72 -19 112 -41 16 -8 37 -15 48 -15 10 0 19 -7 19 -15 0 -8 3
-15 8 -16 4 0 16 -2 28 -3 11 -1 35 -12 51 -24 17 -12 40 -22 52 -22 11 0 24
-7 29 -16 5 -10 20 -18 33 -19 45 -3 89 -17 89 -29 1 -16 113 -66 148 -66 16
0 39 -9 52 -20 13 -11 29 -20 36 -20 7 0 34 -11 60 -25 26 -14 56 -25 68 -25
12 0 30 -7 40 -15 11 -8 28 -15 38 -15 36 0 138 -35 138 -47 0 -8 13 -13 30
-13 20 0 30 -5 30 -15 0 -9 9 -15 21 -15 18 0 19 -2 9 -15 -11 -13 -8 -15 15
-15 32 0 105 -29 105 -42 0 -4 10 -8 23 -8 23 0 62 -20 40 -20 -7 0 -13 -4
-13 -10 0 -5 20 -10 43 -10 53 0 65 -10 35 -27 l-23 -12 28 -1 c15 0 54 -11
87 -25 33 -14 66 -25 75 -25 8 0 15 -4 15 -10 0 -5 -10 -10 -22 -10 -33 0 -15
-10 49 -27 32 -8 72 -23 88 -33 17 -10 48 -23 70 -29 22 -6 70 -30 108 -55 37
-24 67 -42 67 -40 0 9 87 -30 117 -53 17 -12 43 -23 58 -23 14 0 35 -9 47 -20
12 -11 30 -20 39 -20 10 0 24 -7 33 -15 8 -8 25 -15 38 -15 13 0 47 -11 76
-25 30 -14 62 -25 72 -25 9 0 29 -9 43 -20 14 -11 31 -20 39 -20 8 0 31 -9 53
-20 22 -11 46 -20 55 -20 8 0 60 -16 115 -35 55 -19 101 -35 103 -35 2 0 1 -4
-2 -9 -3 -5 32 -16 78 -24 47 -9 101 -23 121 -32 21 -8 44 -15 52 -15 8 0 29
-6 46 -14 18 -7 64 -23 102 -36 135 -44 179 -60 185 -69 3 -4 23 -13 45 -19
74 -20 139 -47 225 -92 177 -93 265 -119 470 -140 41 -4 102 -19 135 -33 33
-13 74 -28 92 -32 35 -7 79 -47 123 -110 15 -23 60 -64 98 -93 39 -29 116 -95
171 -148 55 -53 113 -105 128 -117 16 -11 78 -68 138 -127 110 -106 200 -184
314 -273 44 -34 61 -54 61 -71 0 -22 -5 -24 -77 -31 -43 -4 -86 -12 -97 -17
-12 -7 -26 -7 -40 0 -11 5 -51 24 -87 41 -75 35 -85 37 -96 16 -5 -8 -17 -15
-28 -17 -23 -2 -115 39 -115 51 0 8 -39 19 -82 24 -9 1 -15 4 -12 8 4 8 -27
21 -42 18 -19 -3 -34 2 -34 11 0 30 -114 110 -157 110 -10 0 -40 11 -67 25
-27 14 -62 25 -77 25 -15 0 -30 4 -33 9 -3 4 -26 11 -51 14 -45 7 -124 41
-136 59 -3 5 -8 9 -10 8 -8 -4 -89 33 -89 40 0 4 -13 10 -29 13 -15 3 -53 17
-84 31 -31 15 -70 26 -87 26 -33 0 -99 30 -185 86 -43 27 -55 40 -55 60 0 14
-5 35 -11 47 -10 18 -8 24 16 44 15 13 24 27 21 30 -16 17 -173 60 -241 67
-11 1 -40 8 -64 15 -36 10 -49 10 -69 -1 -20 -10 -26 -10 -29 0 -3 6 -14 12
-24 12 -11 0 -18 -4 -14 -10 11 -17 -127 -10 -170 9 -77 35 -110 44 -155 45
-38 1 -45 -2 -42 -16 3 -21 -15 -23 -88 -7 -28 6 -56 19 -63 29 -13 18 -16 18
-112 -5 -55 -13 -120 -28 -145 -34 l-45 -10 50 4 c28 2 80 7 117 11 46 5 68 3
68 -4 0 -21 -7 -23 -171 -38 -73 -6 -77 -6 -84 15 -5 17 -14 21 -46 21 -21 0
-39 -4 -39 -10 0 -5 9 -10 19 -10 11 0 22 -4 25 -8 5 -9 -31 -11 -237 -15 -70
-1 -127 1 -127 5 0 5 -5 8 -11 8 -5 0 -8 -4 -5 -9 8 -12 -28 -20 -71 -16 -32
3 -35 1 -30 -21 4 -25 -15 -50 -32 -39 -17 10 -51 -14 -51 -35 0 -11 -6 -20
-12 -20 -9 0 -8 -3 2 -10 13 -8 12 -11 -5 -24 -12 -9 -15 -15 -7 -16 27 0 0
-20 -28 -20 -15 0 -30 -7 -34 -15 -6 -16 -46 -21 -46 -7 0 5 -13 7 -30 4 -16
-2 -30 -10 -30 -17 0 -17 93 -30 166 -22 30 3 56 1 59 -4 4 -5 -7 -9 -24 -9
-16 0 -32 -4 -36 -9 -3 -5 -30 -13 -60 -16 -75 -10 -129 -55 -65 -55 17 0 30
-5 30 -10 0 -6 -17 -10 -37 -9 -21 1 -57 -1 -81 -5 -24 -5 -48 -4 -55 2 -20
16 -95 30 -105 20 -5 -5 -20 -5 -36 2 -15 5 -47 10 -71 10 -24 0 -47 5 -50 10
-4 6 -11 7 -18 3 -16 -10 -67 -11 -67 -1 0 4 -7 8 -15 8 -17 0 -34 -30 -28
-48 3 -8 -13 -2 -36 13 -25 17 -49 25 -61 22 -11 -3 -27 1 -34 9 -10 10 -22
11 -38 5 -41 -15 -64 5 -75 65 -5 30 -6 57 -1 62 5 5 0 19 -11 33 -22 26 -27
20 -11 -12 8 -14 7 -19 -3 -19 -11 0 -14 -19 -12 -90 2 -66 -1 -90 -10 -90 -7
0 -15 -14 -19 -30 -3 -17 -16 -41 -29 -53 -13 -12 -27 -31 -30 -41 -4 -10 -10
-16 -14 -12 -3 3 -15 -2 -25 -11 -17 -15 -20 -15 -28 -3 -7 11 -10 8 -10 -13
0 -29 -41 -77 -67 -77 -7 0 -16 -7 -19 -15 -4 -9 -19 -15 -35 -15 -26 0 -33
-7 -55 -55 -29 -61 -29 -54 15 -204 17 -58 29 -106 27 -109 -2 -2 -9 14 -16
35 -21 66 -73 197 -83 211 -6 7 -16 11 -23 8 -7 -3 -15 0 -17 7 -4 11 -8 5
-22 -39 -7 -21 -25 -8 -26 19 -1 20 -2 19 -12 -5 -6 -16 -17 -27 -25 -25 -10
1 -20 -14 -29 -40 -18 -53 -33 -55 -33 -5 l0 37 -19 -29 c-11 -17 -18 -32 -16
-35 2 -3 -7 -7 -20 -7 -18 -1 -22 2 -18 15 4 11 0 9 -14 -6 -18 -20 -28 -22
-114 -21 -52 1 -97 6 -100 11 -16 23 -62 -103 -60 -160 1 -27 -3 -33 -19 -33
-13 0 -20 7 -20 19 0 11 -4 22 -9 25 -10 7 -24 -22 -16 -34 3 -4 -3 -11 -12
-14 -10 -4 -14 -4 -10 0 9 9 -22 44 -39 44 -7 0 -10 9 -8 22 2 13 2 17 -2 11
-8 -17 -35 -16 -59 0 -20 15 -16 55 8 79 7 7 16 23 19 36 5 18 2 22 -18 22
-16 0 -24 -6 -24 -18 0 -28 -63 -78 -92 -73 -14 2 -8 -17 7 -23 8 -3 15 -15
15 -26 0 -11 8 -37 18 -58 21 -42 22 -126 3 -184 -19 -57 -2 -74 76 -81 35 -2
70 -10 77 -16 20 -17 94 5 124 36 22 24 48 23 38 -2 -2 -7 5 -23 16 -35 16
-17 26 -20 47 -14 14 4 41 8 60 10 18 1 38 7 44 13 19 19 39 13 32 -8 -4 -14
0 -23 15 -31 11 -6 20 -18 20 -26 0 -25 33 -12 48 19 20 41 50 36 69 -13 9
-22 19 -37 23 -35 7 4 24 62 22 75 0 3 8 17 19 30 l19 25 -6 -52 c-5 -38 -2
-60 10 -84 16 -32 16 -34 -6 -51 -13 -9 -38 -20 -56 -23 -19 -3 -46 -11 -61
-16 l-26 -11 24 -19 c12 -10 27 -17 31 -14 11 7 80 -26 80 -37 0 -11 38 -10
61 3 16 8 26 6 47 -7 30 -20 102 -36 102 -23 0 5 14 9 30 9 17 0 30 5 30 13 0
6 10 25 23 41 29 36 65 29 73 -14 4 -17 14 -30 26 -33 17 -5 19 -11 13 -49 -6
-40 -4 -45 19 -58 20 -10 34 -11 62 -2 20 6 42 8 51 5 8 -3 27 4 43 16 16 11
32 21 36 21 4 0 12 7 18 15 12 15 90 24 103 11 8 -7 -16 -31 -71 -69 -32 -22
-33 -37 -2 -37 13 0 30 -7 37 -16 11 -14 10 -18 -10 -34 -33 -24 -20 -37 45
-46 40 -5 52 -10 45 -17 -6 -6 -11 -19 -11 -30 0 -11 -11 -22 -30 -28 -17 -6
-30 -14 -30 -17 1 -17 29 -42 46 -42 30 0 89 -34 92 -53 4 -26 -87 -24 -121 3
-28 22 -57 26 -74 9 -6 -6 -29 -13 -51 -15 -47 -5 -75 -19 -115 -54 -17 -15
-41 -25 -62 -26 -19 0 -44 -9 -54 -18 -11 -10 -38 -20 -60 -23 -39 -5 -83 -35
-92 -62 -4 -10 -14 -10 -52 0 -36 9 -54 9 -73 0 -14 -6 -34 -11 -45 -11 -27 0
-79 -28 -99 -53 -14 -17 -20 -18 -39 -8 -19 10 -26 8 -52 -13 -17 -14 -36 -26
-42 -26 -7 0 -22 -3 -34 -6 -23 -6 -23 -6 -23 114 0 87 3 122 13 125 7 3 5 6
-5 6 -11 1 -20 12 -24 29 -23 107 -72 228 -106 263 -7 8 -21 26 -31 42 -10 15
-25 27 -35 27 -16 -1 -16 -1 0 -14 20 -14 108 -194 108 -219 0 -8 7 -28 15
-43 18 -35 20 -100 3 -107 -10 -4 -10 -8 1 -16 9 -5 15 -26 15 -48 1 -82 -15
-228 -29 -269 -8 -24 -18 -62 -21 -84 -5 -31 -11 -40 -26 -40 -16 0 -19 5 -14
23 13 43 27 140 21 145 -3 3 -16 -1 -30 -8 -19 -10 -22 -16 -13 -22 8 -5 1 -8
-19 -8 -30 0 -109 -31 -206 -81 -21 -10 -47 -19 -59 -19 -22 0 -64 -41 -79
-78 -12 -32 -33 -37 -79 -18 -38 15 -42 15 -77 -5 -115 -62 -133 -70 -133 -63
0 4 -8 0 -18 -9 -9 -8 -21 -16 -27 -17 -5 -1 -9 -6 -8 -10 1 -4 -14 -11 -34
-15 -20 -4 -48 -15 -61 -26 -14 -10 -29 -19 -35 -19 -21 0 -57 -52 -57 -82 0
-25 -3 -29 -17 -23 -41 17 -55 17 -71 1 -9 -10 -45 -35 -80 -58 -93 -59 -107
-103 -52 -165 42 -48 79 -106 74 -115 -9 -15 -33 -8 -48 13 -15 21 -54 20 -41
-1 3 -6 -4 -10 -16 -10 -16 0 -19 3 -12 12 17 22 22 62 10 78 -7 9 -30 22 -52
29 -38 12 -44 11 -78 -11 -20 -12 -39 -31 -42 -40 -4 -10 -17 -21 -31 -24 -13
-4 -24 -14 -24 -23 0 -9 -4 -21 -9 -27 -5 -5 -12 -19 -15 -31 -5 -16 -2 -23
11 -26 10 -3 -1 -5 -25 -6 -32 -1 -49 -7 -66 -26 -27 -30 -43 -92 -27 -108 6
-6 11 -23 11 -37 0 -24 -3 -26 -30 -22 -17 2 -45 -3 -63 -11 -17 -8 -41 -17
-52 -19 -12 -2 -21 -13 -23 -27 -2 -13 -7 -19 -10 -14 -11 17 -63 -33 -68 -64
-7 -36 -12 -43 -32 -44 -24 0 -58 -47 -71 -97 -7 -23 -16 -42 -21 -42 -6 0
-10 -10 -10 -22 0 -36 -14 -50 -46 -46 -23 2 -30 -1 -32 -19 -2 -12 4 -33 14
-47 16 -26 16 -26 -10 -26 -30 0 -35 -19 -7 -27 10 -2 23 -15 29 -28 12 -27 1
-35 -48 -35 -61 0 -200 -94 -200 -135 0 -8 -8 -22 -18 -32 -10 -10 -24 -37
-31 -60 -8 -31 -17 -43 -31 -43 -10 0 -21 -8 -25 -19 -6 -21 3 -51 17 -51 5 0
7 -4 3 -9 -3 -5 -1 -12 5 -16 20 -13 9 -25 -23 -25 -23 0 -41 -8 -60 -28 -15
-15 -27 -32 -27 -37 0 -4 12 -33 27 -64 14 -31 26 -68 25 -83 l-2 -28 5750 0
5750 0 0 195 0 195 -45 0 c-43 0 -46 2 -62 40 -14 32 -23 40 -44 40 -19 0 -28
-6 -32 -21 -5 -19 -12 -20 -78 -17 -80 3 -107 17 -184 97 -21 22 -46 41 -55
41 -9 0 -31 11 -50 25 -19 14 -41 23 -48 20 -8 -3 -21 4 -30 15 -15 19 -31 21
-157 25 l-140 4 -37 43 c-69 80 -104 113 -150 139 -34 20 -48 35 -53 58 -9 44
-48 71 -101 71 -23 0 -55 5 -69 10 -24 9 -31 6 -57 -19 -23 -23 -28 -34 -22
-55 4 -15 17 -32 30 -38 13 -6 24 -14 24 -18 0 -14 94 -14 98 -1 6 18 30 12
37 -9 3 -10 2 -27 -3 -37 -6 -10 -11 -22 -12 -28 -7 -30 -25 -55 -36 -51 -8 3
-16 1 -19 -5 -14 -22 -91 -49 -143 -49 -46 0 -57 -4 -74 -25 -25 -33 -45 -32
-83 5 -27 26 -30 35 -27 75 3 38 8 48 28 55 20 8 23 14 18 37 -9 38 -9 35 0
61 5 16 3 29 -8 41 -9 10 -13 20 -10 24 3 3 -7 12 -24 21 -16 8 -37 26 -46 40
-20 31 -56 34 -81 6 -25 -27 -34 -25 -77 16 -25 22 -51 37 -75 41 -21 3 -46
12 -55 21 -20 17 -120 12 -126 -7 -7 -22 -67 -12 -98 17 -36 33 -63 44 -161
66 -40 9 -78 19 -85 21 -8 3 -23 -13 -38 -40 -28 -50 -33 -51 -107 -8 -55 32
-57 36 -70 120 -3 18 -9 30 -14 27 -5 -3 -9 3 -9 13 0 21 -47 53 -78 53 -32 0
-47 -75 -17 -86 8 -4 15 -15 15 -25 0 -12 7 -19 20 -19 13 0 20 -7 20 -19 0
-23 -19 -31 -70 -31 -31 0 -43 6 -69 37 -17 20 -31 44 -31 55 0 10 -5 18 -11
18 -7 0 -9 11 -6 26 4 22 0 28 -29 40 -18 8 -43 14 -55 14 -24 0 -93 57 -127
107 -15 21 -35 36 -62 43 -25 7 -51 24 -73 50 -19 22 -40 40 -48 40 -21 0 -49
56 -49 98 -1 55 -31 112 -86 159 -82 71 -90 77 -120 93 -16 9 -30 25 -31 35
-3 19 -14 79 -29 152 -3 18 -12 38 -20 44 -8 6 -14 17 -14 24 0 7 -7 18 -15
25 -8 7 -15 21 -15 32 0 36 -90 128 -161 163 -74 38 -86 49 -93 89 -3 16 -12
36 -20 45 -9 10 -19 33 -23 51 -7 37 -35 92 -64 125 -9 11 -28 40 -40 65 -13
25 -31 52 -41 60 -23 19 -69 132 -58 143 12 13 45 0 82 -31 31 -26 36 -27 158
-27 105 0 129 -3 143 -17 9 -9 17 -22 17 -29 0 -8 16 -10 53 -6 58 5 94 -8
123 -47 11 -13 44 -33 76 -44 48 -18 70 -20 160 -15 85 5 109 3 135 -11 18 -9
42 -16 53 -16 12 0 35 -13 51 -30 32 -32 83 -50 139 -50 46 0 145 -26 191 -49
26 -14 48 -17 82 -14 33 4 54 1 71 -11 14 -8 58 -21 98 -27 135 -21 197 -59
455 -284 114 -100 258 -215 311 -250 56 -37 200 -127 266 -167 77 -46 164
-116 245 -196 100 -99 204 -157 225 -124 2 4 -8 28 -24 53 -15 25 -41 77 -56
115 -15 38 -46 109 -70 159 -23 49 -41 91 -39 93 11 12 167 -89 253 -162 30
-25 63 -46 74 -46 12 0 49 -25 82 -56 72 -67 89 -81 139 -119 21 -15 45 -41
53 -57 8 -16 23 -28 34 -28 11 0 20 3 20 6 0 3 -24 33 -54 67 -118 134 -210
245 -254 307 -26 36 -95 114 -153 175 -128 133 -149 160 -149 192 0 16 -17 44
-46 76 -57 63 -72 89 -47 80 10 -3 36 -18 58 -33 22 -15 60 -38 84 -51 24 -13
54 -30 67 -37 21 -11 192 -195 256 -275 23 -29 46 -40 160 -77 73 -23 158 -55
189 -70 44 -22 76 -29 155 -35 86 -6 107 -11 159 -40 33 -18 77 -38 98 -43
l37 -10 0 4404 0 4405 -30 6 c-17 3 -30 8 -30 12 0 3 -55 5 -123 3 -96 -2
-133 1 -168 13 -71 27 -138 33 -232 23 -74 -8 -98 -7 -143 8 -30 9 -54 21 -54
25 0 5 -9 9 -20 9 -11 0 -20 5 -20 10 0 6 -5 10 -11 10 -7 0 -22 11 -35 25
-13 14 -20 25 -17 25 3 0 -12 17 -33 38 -36 36 -144 82 -190 82 -20 0 -74 54
-74 74 0 9 -8 16 -20 16 -13 0 -20 7 -20 18 0 11 -10 24 -22 30 -13 6 -17 11
-9 11 13 1 -61 61 -75 61 -8 0 -104 102 -104 112 0 4 -7 5 -15 2 -14 -6 -20
11 -16 39 0 4 -6 7 -15 7 -18 0 -46 25 -37 34 4 3 -3 6 -15 6 -13 0 -22 6 -22
15 0 17 -46 66 -54 57 -3 -3 -6 3 -6 14 0 18 -15 36 -111 129 -35 34 -48 56
-53 85 -3 22 -11 40 -16 40 -6 0 -10 15 -10 33 0 47 -19 106 -41 128 -10 10
-19 24 -19 29 0 6 -9 23 -19 38 -11 15 -26 59 -35 99 -14 63 -14 74 -1 100 8
15 15 45 15 67 0 21 10 57 21 80 12 22 25 48 29 56 4 8 24 27 46 42 38 25 63
81 43 93 -4 3 -1 18 7 33 7 15 14 33 14 40 0 7 15 19 33 27 19 8 39 21 47 29
7 9 24 16 39 16 42 0 171 140 171 186 0 16 7 24 28 29 19 4 32 15 39 35 6 17
18 30 27 30 9 0 16 8 16 20 0 13 7 20 19 20 18 0 35 30 32 56 -1 7 5 14 14 18
8 3 15 15 15 26 0 12 7 20 16 20 9 0 18 9 21 19 3 13 17 22 43 26 34 6 53 26
52 55 0 3 11 6 24 6 14 1 33 9 43 18 10 9 23 16 30 16 7 0 11 6 8 13 -6 19 63
64 113 71 25 4 70 19 100 33 79 36 107 49 180 78 36 14 72 30 81 35 25 13 134
31 152 24 16 -6 103 20 123 37 7 6 71 10 143 11 l131 0 0 229 0 229 -3098 0
-3097 0 -18 -37 c-9 -21 -27 -53 -38 -72 -13 -22 -19 -44 -15 -61 5 -29 -28
-71 -38 -47 -2 7 -5 2 -5 -10 -1 -13 -5 -23 -11 -23 -5 0 -10 -7 -10 -16 0 -8
-3 -13 -7 -11 -5 3 -14 -1 -21 -9 -7 -8 -10 -14 -7 -14 4 0 0 -7 -9 -15 -8 -8
-20 -15 -27 -15 -7 0 -22 -8 -33 -19 -47 -41 -228 -67 -278 -40 -14 8 -68 14
-138 16 -92 2 -123 6 -154 22 -21 11 -43 18 -47 15 -5 -3 -9 2 -9 10 0 9 -7
16 -16 16 -9 0 -22 7 -28 16 -7 8 -31 18 -54 21 -23 3 -42 9 -42 14 0 4 -9 11
-20 14 -11 3 -20 11 -20 16 0 16 -27 39 -44 39 -10 0 -16 9 -16 25 0 18 -5 25
-20 25 -11 0 -20 4 -20 9 0 5 -9 13 -20 16 -14 4 -20 15 -20 35 0 16 -5 32
-10 35 -5 3 -10 15 -10 26 0 19 -50 19 -4300 19 l-4300 0 0 -1830z m3417 544
c-3 -3 -12 -4 -19 -1 -8 3 -5 6 6 6 11 1 17 -2 13 -5z m-486 -74 c-36 -31 -91
-55 -91 -40 0 7 106 68 120 69 3 0 -10 -13 -29 -29z m229 -44 c0 -16 -18 -31
-27 -22 -8 8 5 36 17 36 5 0 10 -6 10 -14z m775 4 c-3 -5 -16 -10 -28 -10 -18
0 -19 2 -7 10 20 13 43 13 35 0z m272 -16 c-3 -3 -12 -4 -19 -1 -8 3 -5 6 6 6
11 1 17 -2 13 -5z m-1164 -22 c-17 -13 -21 -23 -16 -41 6 -22 4 -23 -23 -17
-16 4 -30 11 -32 16 -2 5 -10 6 -19 3 -11 -4 -14 -2 -11 8 2 8 14 15 27 17 12
2 34 10 49 18 37 19 52 17 25 -4z m1247 -12 c0 -5 -4 -10 -10 -10 -5 0 -10 5
-10 10 0 6 5 10 10 10 6 0 10 -4 10 -10z m-1725 -40 c-4 -13 -2 -20 7 -20 24
-1 -15 -18 -49 -22 -39 -4 -43 14 -6 24 15 4 31 14 35 23 13 22 21 19 13 -5z
m2155 -114 c0 -2 -9 -6 -20 -9 -11 -3 -20 -1 -20 4 0 5 9 9 20 9 11 0 20 -2
20 -4z m40 -41 c0 -9 -6 -12 -16 -8 -13 5 -13 7 -2 14 17 11 18 11 18 -6z
m-1322 -34 c10 -6 4 -10 -19 -15 -36 -7 -51 0 -29 14 19 12 31 12 48 1z m1269
-87 c-3 -3 -12 -4 -19 -1 -8 3 -5 6 6 6 11 1 17 -2 13 -5z m-1669 -541 c-2
-10 -13 -19 -26 -21 -24 -4 -25 -2 -16 22 9 23 46 21 42 -1z m-613 -3 c3 -5 1
-10 -4 -10 -6 0 -11 5 -11 10 0 6 2 10 4 10 3 0 8 -4 11 -10z m661 -28 c-14
-26 -46 -61 -46 -49 0 5 20 44 33 65 16 25 27 11 13 -16z m-945 2 c11 -13 10
-17 -5 -26 -13 -7 -16 -17 -12 -34 5 -17 2 -26 -9 -30 -23 -9 -18 -18 17 -32
17 -6 29 -14 26 -18 -4 -3 2 -23 13 -45 20 -37 49 -56 68 -45 12 8 23 -22 16
-44 -4 -13 7 -27 35 -50 22 -17 40 -40 40 -51 0 -10 6 -19 13 -19 6 0 19 -15
27 -32 12 -25 25 -35 63 -45 27 -8 64 -28 83 -45 l34 -31 -20 -22 c-11 -12
-20 -27 -20 -33 0 -7 -6 -15 -14 -18 -8 -3 -17 -20 -20 -37 -4 -18 -15 -43
-26 -57 l-19 -25 -30 23 c-19 14 -44 22 -69 22 -41 0 -106 -22 -117 -40 -3 -5
-22 -10 -41 -10 -19 0 -34 -4 -34 -9 0 -19 59 -22 118 -6 44 11 81 13 132 9
62 -6 73 -10 83 -31 13 -29 23 -29 43 2 20 30 43 33 41 4 -1 -12 -12 -25 -25
-30 -13 -5 -20 -14 -17 -19 4 -6 10 -8 15 -5 15 9 41 -7 36 -22 -4 -10 4 -19
24 -26 16 -6 34 -23 41 -39 6 -15 15 -28 19 -28 5 0 11 -13 15 -30 4 -16 11
-30 16 -30 5 0 17 -17 27 -37 9 -21 22 -42 28 -48 7 -5 14 -23 17 -38 8 -47
-17 -54 -213 -60 -96 -3 -233 -13 -305 -22 -110 -15 -144 -16 -225 -6 -52 7
-130 15 -173 18 -71 5 -77 4 -70 -12 5 -15 2 -17 -17 -12 -13 3 -30 1 -37 -4
-9 -8 -17 -7 -28 4 -22 22 -19 27 18 27 27 0 79 19 52 20 -5 0 1 7 13 16 12 8
22 19 22 24 0 17 -44 50 -65 50 -13 0 -26 9 -32 23 -8 17 -25 25 -72 35 -37 8
-61 18 -61 26 0 7 24 23 53 36 28 12 70 31 92 41 22 10 54 20 70 22 124 21
179 32 240 50 63 18 67 21 43 28 -16 4 -40 4 -55 -1 -16 -5 -44 -13 -64 -19
-48 -15 -57 -14 -62 7 -4 13 -5 12 -6 -5 -1 -16 -9 -24 -26 -28 -14 -3 -36 -7
-49 -10 -16 -3 -28 0 -34 11 -6 11 -14 13 -33 6 -60 -23 -90 -30 -109 -25 -24
6 -26 35 -5 53 23 19 18 57 -9 75 -32 21 -39 41 -26 79 5 17 14 52 18 77 9 45
9 46 -19 44 -15 -1 -40 -10 -56 -20 -31 -20 -168 -157 -276 -275 -116 -127
-120 -130 -134 -118 -10 8 -13 5 -14 -13 -1 -13 -1 -27 -1 -31 1 -3 -5 -12
-14 -19 -8 -7 -14 -8 -13 -3 5 27 -3 54 -15 54 -8 0 -17 6 -20 13 -5 9 -7 9
-12 -1 -9 -19 -24 -4 -24 24 0 15 -6 24 -16 24 -36 0 -63 71 -31 83 10 3 9 9
-1 26 -16 28 -15 59 2 77 17 16 46 19 46 4 0 -5 16 -10 35 -10 36 0 85 35 85
60 0 19 27 40 51 40 12 0 30 10 41 22 16 19 21 20 28 8 5 -8 10 -12 12 -10 2
3 17 25 33 50 38 57 45 66 73 96 12 14 22 29 22 34 0 6 7 10 15 10 9 0 18 7
21 15 4 8 14 15 24 15 10 0 20 5 22 12 5 14 105 14 154 -1 30 -9 35 -5 195
150 90 88 169 159 176 159 7 0 13 3 13 8 0 4 27 22 60 40 33 19 58 38 55 43
-10 16 12 10 26 -7z m1714 -17 c0 -9 -3 -17 -7 -17 -5 0 -20 0 -35 0 l-28 1
24 20 c27 22 46 21 46 -4z m-1338 -79 c-3 -7 -5 -2 -5 12 0 14 2 19 5 13 2 -7
2 -19 0 -25z m980 6 c7 -18 -12 -34 -39 -34 -18 0 -25 30 -11 43 12 13 44 7
50 -9z m-977 -49 c0 -8 9 -19 20 -25 29 -15 25 -32 -7 -28 -25 3 -28 8 -31 42
-2 25 0 36 7 31 6 -3 11 -13 11 -20z m690 15 c0 -5 -7 -10 -15 -10 -8 0 -22
-8 -32 -18 -21 -22 -53 -35 -53 -23 0 24 43 61 71 61 16 0 29 -4 29 -10z
m1930 -20 c0 -5 -7 -10 -16 -10 -8 0 -12 5 -9 10 3 6 10 10 16 10 5 0 9 -4 9
-10z m-2120 -61 c-15 -44 -35 -56 -50 -29 -7 14 -7 20 0 20 5 0 10 9 10 19 0
23 43 58 49 40 2 -6 -2 -29 -9 -50z m268 17 c1 -13 -10 -40 -23 -60 -14 -20
-25 -45 -25 -55 0 -20 -27 -48 -36 -38 -11 11 20 112 38 125 10 7 18 22 18 33
0 28 25 24 28 -5z m-968 1 c0 -19 -21 -37 -42 -37 -21 0 -25 35 -5 43 23 10
47 7 47 -6z m60 3 c0 -5 -11 -10 -25 -10 -14 0 -25 5 -25 10 0 6 11 10 25 10
14 0 25 -4 25 -10z m1440 -74 c0 -3 -4 -8 -10 -11 -5 -3 -10 -1 -10 4 0 6 5
11 10 11 6 0 10 -2 10 -4z m-770 -44 c0 -45 -28 -80 -48 -60 -19 19 -14 55 10
78 31 29 38 25 38 -18z m2110 18 c0 -5 -5 -10 -11 -10 -5 0 -7 5 -4 10 3 6 8
10 11 10 2 0 4 -4 4 -10z m-1350 -19 c0 -6 -4 -13 -10 -16 -5 -3 -10 1 -10 9
0 9 5 16 10 16 6 0 10 -4 10 -9z m-970 -10 c0 -6 -5 -13 -11 -17 -6 -3 -9 -15
-6 -25 4 -14 -1 -18 -22 -17 -14 0 -36 -3 -48 -7 -37 -12 -27 11 20 44 43 31
67 38 67 22z m442 -44 c-2 -12 -12 -30 -20 -40 -17 -20 -18 -19 26 -36 17 -8
32 -17 32 -22 0 -17 -40 -9 -60 11 -11 11 -24 20 -28 20 -18 0 -41 35 -33 49
5 7 13 11 19 7 5 -3 17 5 26 19 19 29 46 24 38 -8z m98 -6 c0 -5 -12 -12 -27
-16 -15 -3 -31 -12 -35 -18 -11 -18 -16 -4 -7 21 6 16 16 22 39 22 16 0 30 -4
30 -9z m1810 -1 c8 -1 4 -6 -9 -11 -27 -11 -64 -3 -55 13 3 5 16 7 28 4 11 -3
28 -6 36 -6z m-1690 -80 c0 -5 -4 -10 -10 -10 -5 0 -10 5 -10 10 0 6 5 10 10
10 6 0 10 -4 10 -10z m155 0 c-3 -5 -13 -10 -21 -10 -8 0 -14 5 -14 10 0 6 9
10 21 10 11 0 17 -4 14 -10z m-185 -30 c0 -5 -7 -10 -15 -10 -8 0 -15 5 -15
10 0 6 7 10 15 10 8 0 15 -4 15 -10z m185 -10 c3 -5 -1 -10 -9 -10 -9 0 -16 5
-16 10 0 6 4 10 9 10 6 0 13 -4 16 -10z m-64 -23 c-13 -13 -26 -3 -16 12 3 6
11 8 17 5 6 -4 6 -10 -1 -17z m1552 6 c-7 -2 -19 -2 -25 0 -7 3 -2 5 12 5 14
0 19 -2 13 -5z m-2254 -17 c17 -21 -4 -30 -29 -13 -11 8 -17 17 -13 20 11 11
30 8 42 -7z m-261 -76 c-13 -20 -38 -28 -38 -12 0 12 23 32 37 32 11 0 11 -4
1 -20z m-58 -10 c0 -5 -9 -10 -20 -10 -11 0 -20 5 -20 10 0 6 9 10 20 10 11 0
20 -4 20 -10z m448 -16 c28 -13 46 -38 25 -32 -5 1 -18 -2 -31 -6 -29 -10 -74
17 -66 39 8 19 33 19 72 -1z m2192 -21 c8 -9 -74 8 -84 17 -4 5 11 4 35 -1 24
-6 46 -13 49 -16z m420 -123 c0 -5 -11 -10 -25 -10 -14 0 -25 5 -25 10 0 6 11
10 25 10 14 0 25 -4 25 -10z m-2490 -25 c-7 -9 -15 -13 -18 -10 -3 2 1 11 8
20 7 9 15 13 18 10 3 -2 -1 -11 -8 -20z m2398 18 c-10 -2 -28 -2 -40 0 -13 2
-5 4 17 4 22 1 32 -1 23 -4z m-4133 -23 c3 -5 1 -10 -4 -10 -6 0 -11 5 -11 10
0 6 2 10 4 10 3 0 8 -4 11 -10z m1265 -75 c-7 -9 -15 -13 -17 -11 -7 7 7 26
19 26 6 0 6 -6 -2 -15z m385 -15 c10 -32 -6 -46 -21 -19 -17 31 -17 39 0 39 8
0 17 -9 21 -20z m-125 -57 c0 -5 3 -18 6 -30 5 -18 2 -23 -12 -23 -21 0 -48
35 -39 50 7 12 45 13 45 3z m-1807 -143 c-3 -11 -9 -23 -14 -26 -5 -3 -9 -13
-9 -22 0 -22 -48 -74 -63 -69 -15 4 -22 47 -9 47 6 0 12 10 16 23 3 12 22 32
43 43 21 12 39 22 40 23 0 1 -1 -8 -4 -19z m452 -120 c-3 -5 -15 -10 -26 -10
-10 0 -19 5 -19 10 0 6 12 10 26 10 14 0 23 -4 19 -10z m62 -36 c-3 -3 -12 -4
-19 -1 -8 3 -5 6 6 6 11 1 17 -2 13 -5z m23 -45 c0 -5 -9 -9 -20 -9 -22 0 -27
16 -7 23 15 5 27 -1 27 -14z m290 -68 c21 -21 33 -43 34 -66 3 -34 -10 -49
-29 -33 -44 36 -72 52 -89 53 -15 0 -22 8 -24 28 -7 62 54 72 108 18z m565 30
c7 -12 -12 -24 -25 -16 -11 7 -4 25 10 25 5 0 11 -4 15 -9z m-55 -91 c0 -5 -5
-10 -11 -10 -5 0 -7 5 -4 10 3 6 8 10 11 10 2 0 4 -4 4 -10z m161 -150 c5 0 9
-7 9 -15 0 -18 -5 -18 -31 -5 -23 13 -26 35 -3 26 9 -3 20 -6 25 -6z m-21 -45
c0 -17 -45 -21 -55 -6 -4 8 4 12 48 20 4 0 7 -6 7 -14z m10246 -532 c-3 -10
-8 -30 -12 -45 -4 -20 -12 -28 -28 -28 -26 1 -66 33 -66 54 0 9 -8 16 -20 16
-11 0 -20 5 -20 10 0 6 32 10 76 10 67 0 75 -2 70 -17z m-556 -63 c8 -12 26
-20 42 -20 15 0 27 -3 27 -7 -6 -39 2 -53 31 -53 17 0 30 -1 30 -3 0 -1 9 -27
20 -57 13 -35 20 -80 20 -124 0 -61 -3 -71 -26 -92 -26 -24 -84 -33 -84 -13 0
13 -25 39 -39 39 -5 0 -11 10 -13 23 -2 12 -9 21 -15 20 -6 -2 -24 4 -40 12
-15 8 -22 15 -15 15 27 0 13 26 -44 85 -17 17 -34 41 -38 52 -4 11 -15 28 -26
38 -26 23 -25 42 0 50 11 3 20 12 20 19 0 8 23 17 63 23 34 6 64 11 67 12 3 0
12 -8 20 -19z m-1608 -807 c15 -7 34 -10 41 -7 8 3 18 -9 26 -31 9 -27 18 -35
37 -35 13 0 24 -4 24 -10 0 -5 -4 -10 -10 -10 -5 0 -10 -9 -10 -20 0 -11 -6
-20 -14 -20 -16 0 -31 -43 -34 -97 -2 -18 -8 -23 -32 -23 -16 0 -30 -4 -30
-10 0 -5 -5 -10 -11 -10 -6 0 -9 7 -5 15 3 8 1 15 -5 15 -6 0 -7 4 -4 10 3 5
0 7 -8 4 -8 -3 -18 -1 -22 5 -3 6 -1 11 6 11 17 0 0 18 -33 34 -21 11 -23 17
-20 76 3 56 8 68 35 96 18 17 34 29 37 25 3 -3 17 -12 32 -18z m-4488 -153 c3
-17 11 -29 18 -28 6 2 14 -5 16 -14 2 -13 -3 -18 -21 -18 -19 0 -26 6 -31 31
-8 43 -8 59 3 59 5 0 11 -14 15 -30z m3886 -50 c0 -5 -2 -10 -4 -10 -3 0 -8 5
-11 10 -3 6 -1 10 4 10 6 0 11 -4 11 -10z m-3859 -30 c10 -6 19 -15 19 -19 0
-14 -38 -1 -44 15 -6 17 -1 17 25 4z m60 -31 c8 -28 11 -115 4 -108 -2 3 -7
23 -10 44 -2 21 -9 43 -15 49 -14 14 -13 49 2 44 7 -3 15 -15 19 -29z m455 17
c12 -13 12 -15 -6 -13 -11 1 -20 7 -20 14 0 17 8 16 26 -1z m3345 -6 c10 0 19
6 19 13 0 8 4 7 10 -3 6 -10 10 -11 10 -2 0 7 15 12 39 12 31 0 41 -4 46 -20
3 -11 15 -20 26 -20 12 0 19 -7 19 -20 0 -11 5 -20 11 -20 6 0 8 -9 4 -20 -4
-13 -1 -22 8 -26 8 -3 12 -14 10 -28 -3 -13 2 -30 11 -38 20 -20 18 -128 -3
-128 -10 0 -12 -10 -8 -40 4 -34 2 -40 -13 -40 -32 0 -50 -11 -50 -31 0 -14
-7 -19 -30 -19 -20 0 -30 5 -30 15 0 8 -4 15 -10 15 -5 0 -10 9 -10 20 0 13 7
20 20 20 13 0 20 7 20 20 0 11 5 20 11 20 6 0 10 16 8 38 -3 58 0 82 11 82 6
0 10 -9 10 -20 0 -11 5 -20 10 -20 6 0 10 5 10 10 0 6 9 10 20 10 16 0 20 6
19 33 0 17 -3 26 -6 20 -2 -7 -11 -13 -19 -13 -8 0 -14 -8 -14 -17 -1 -13 -5
-10 -16 10 -8 16 -23 27 -35 27 -11 0 -17 -4 -14 -10 3 -5 0 -10 -8 -10 -18 0
-59 44 -50 54 5 4 4 7 -2 6 -24 -5 -35 1 -35 20 0 11 -4 20 -10 20 -5 0 -10 9
-10 19 0 11 -4 21 -9 23 -5 2 -7 17 -4 33 4 17 8 24 10 18 3 -7 13 -13 24 -13z
m369 -26 c0 -8 -4 -14 -9 -14 -5 0 -12 -10 -14 -22 -4 -20 -4 -20 -6 4 0 15
-6 30 -11 33 -8 5 -7 11 1 21 13 16 39 2 39 -22z m-4101 -111 c0 -25 -1 -26
-9 -8 -12 27 -12 35 0 35 6 0 10 -12 9 -27z m31 -18 c0 -5 -5 -3 -10 5 -5 8
-10 20 -10 25 0 6 5 3 10 -5 5 -8 10 -19 10 -25z m180 25 c0 -5 -2 -10 -4 -10
-3 0 -8 5 -11 10 -3 6 -1 10 4 10 6 0 11 -4 11 -10z m-62 -141 c-3 -20 -5 -19
-9 9 -3 20 -2 29 4 23 5 -5 7 -19 5 -32z m4215 -103 c21 -5 27 -11 23 -24 -3
-9 -6 -37 -8 -61 -1 -33 -7 -45 -20 -49 -10 -2 -18 -11 -18 -19 0 -22 -39 -53
-66 -53 -12 0 -35 5 -51 11 -15 7 -38 11 -50 10 -13 0 -23 5 -23 12 0 6 -18
20 -40 29 -29 12 -40 22 -40 38 0 12 -9 24 -22 30 l-23 9 23 0 c15 1 22 7 22
21 0 22 15 27 23 8 4 -10 8 -10 15 1 6 8 12 9 16 3 3 -6 18 -8 34 -6 15 2 45
7 66 9 22 3 42 9 45 13 9 14 44 30 55 27 6 -2 24 -6 39 -9z m-4009 -21 c3 -8
1 -15 -4 -15 -6 0 -10 7 -10 15 0 8 2 15 4 15 2 0 6 -7 10 -15z m-519 -23 c-2
-3 -16 -1 -32 2 -20 6 -23 10 -13 16 12 8 54 -9 45 -18z m684 -5 c6 -8 8 -17
4 -20 -7 -8 -33 11 -33 24 0 13 16 11 29 -4z m-639 -6 c0 -5 8 -11 18 -13 11
-2 13 -6 6 -11 -7 -4 -23 2 -35 13 -20 16 -21 19 -6 20 9 0 17 -4 17 -9z m500
-26 c0 -5 -5 -3 -10 5 -5 8 -10 20 -10 25 0 6 5 3 10 -5 5 -8 10 -19 10 -25z
m-690 -215 c0 -5 -2 -10 -4 -10 -3 0 -8 5 -11 10 -3 6 -1 10 4 10 6 0 11 -4
11 -10z m3286 -262 l19 -23 -25 20 c-14 11 -27 21 -29 22 -2 2 0 3 6 3 5 0 18
-10 29 -22z m72 -179 c7 -12 11 -23 8 -26 -7 -7 -36 23 -36 36 0 18 14 13 28
-10z m-2308 -24 c8 -6 36 -24 63 -39 26 -15 47 -29 47 -32 0 -8 -54 9 -84 27
-22 13 -34 15 -57 7 -22 -7 -33 -7 -44 2 -25 21 -17 32 18 25 26 -6 30 -5 20
6 -29 29 1 33 37 4z m2655 -255 c15 -22 25 -43 22 -46 -7 -7 -21 7 -62 61 -16
22 -37 49 -47 59 -9 10 -15 23 -12 28 6 10 59 -45 99 -102z m45 20 c0 -5 -4
-10 -10 -10 -5 0 -10 5 -10 10 0 6 5 10 10 10 6 0 10 -4 10 -10z m55 -10 c3
-5 -3 -10 -14 -10 -12 0 -21 5 -21 10 0 6 6 10 14 10 8 0 18 -4 21 -10z m83
-87 c6 -19 -25 -16 -32 3 -4 11 -1 14 11 12 9 -2 18 -9 21 -15z m867 -17 c19
-8 56 -31 81 -50 35 -27 57 -36 86 -36 35 0 39 2 33 20 -10 31 20 25 61 -12
44 -40 75 -99 85 -158 3 -25 16 -80 28 -124 11 -43 18 -83 15 -88 -11 -18 -57
-1 -155 57 -85 49 -105 66 -170 148 -80 99 -138 199 -139 235 0 26 24 29 75 8z
m671 -824 c61 -49 123 -177 124 -250 0 -47 -3 -54 -25 -62 -14 -5 -25 -14 -25
-20 0 -13 -60 -50 -82 -50 -13 0 -18 8 -18 29 0 38 -11 45 -110 77 -114 35
-233 96 -298 152 -46 39 -53 48 -47 71 10 43 32 53 100 45 33 -4 65 -7 70 -6
6 0 47 2 92 2 45 1 99 8 120 16 51 18 74 17 99 -4z m326 -266 c7 -13 26 -45
42 -71 34 -55 76 -165 76 -198 -1 -36 -31 -66 -75 -72 -52 -8 -66 4 -99 88
-33 85 -34 153 -4 224 25 58 40 65 60 29z m275 -163 c2 -10 25 -34 51 -53 61
-46 81 -70 82 -99 0 -13 11 -36 23 -51 17 -20 26 -46 30 -90 4 -34 4 -66 1
-71 -7 -12 -50 -10 -98 4 -33 10 -41 19 -58 62 -11 28 -26 93 -33 146 -7 52
-17 112 -20 132 -5 26 -4 37 5 37 6 0 14 -8 17 -17z m578 -384 c25 -23 45 -49
45 -57 0 -9 9 -25 19 -36 86 -91 36 -148 -84 -96 l-46 20 7 60 c5 45 3 65 -8
82 -8 13 -17 33 -20 46 -10 38 36 28 87 -19z m-3808 -469 c-2 -25 -30 -23 -35
3 -2 11 3 17 17 17 14 0 19 -6 18 -20z m3477 4 c4 -10 -3 -14 -24 -14 -17 0
-30 5 -30 13 0 17 47 18 54 1z m-3075 -30 c10 -9 -115 -3 -129 6 -10 6 9 7 55
3 39 -3 72 -7 74 -9z m-449 -133 c0 -5 -11 -11 -25 -13 -17 -4 -25 -1 -25 8 0
8 11 14 25 14 14 0 25 -4 25 -9z m3910 -26 c24 -26 14 -33 -21 -15 -19 11 -27
40 -11 40 5 0 19 -11 32 -25z m876 -68 c13 -24 13 -28 -1 -33 -8 -4 -25 -4
-38 0 -28 7 -87 43 -87 53 0 5 17 15 38 24 34 15 39 15 56 0 10 -9 24 -28 32
-44z m-646 -29 c155 -94 287 -194 403 -306 65 -62 90 -101 77 -122 -24 -39
-240 85 -290 165 -12 19 -47 50 -78 69 -32 19 -84 60 -117 92 -74 70 -145 129
-145 120 0 -4 14 -28 31 -52 17 -25 29 -48 26 -51 -7 -7 -147 105 -147 118 0
16 30 22 55 11 20 -9 23 -9 18 3 -3 8 -10 15 -17 15 -6 0 -4 5 4 10 25 15 59
1 180 -72z m-4290 -18 c0 -5 10 -10 23 -11 21 -1 21 -1 -3 -9 -39 -13 -60 -11
-60 4 0 13 13 23 33 25 4 1 7 -3 7 -9z m-919 -32 c8 -7 23 -24 34 -38 20 -25
20 -25 0 -10 -34 25 -68 60 -58 60 5 0 16 -6 24 -12z m6200 -209 c11 -11 19
-30 17 -42 -2 -18 -9 -22 -33 -20 -27 2 -65 33 -65 53 0 7 37 28 53 29 4 1 16
-8 28 -20z m-1710 -334 c35 -16 43 -22 24 -18 -33 7 -106 42 -89 43 6 0 36
-11 65 -25z m1456 -45 c22 -17 67 -63 99 -103 32 -39 62 -73 66 -75 14 -6 9
-22 -7 -22 -34 0 -205 103 -240 144 -29 34 -31 43 -8 68 23 25 43 23 90 -12z
m-671 -378 c56 -42 112 -84 124 -92 24 -16 91 -69 125 -98 11 -10 33 -26 50
-37 36 -22 35 -21 114 -89 35 -30 75 -60 90 -67 14 -8 28 -17 31 -20 3 -3 64
-54 135 -113 72 -58 142 -118 158 -131 15 -14 31 -25 36 -25 5 0 26 -16 47
-35 33 -29 36 -35 19 -36 -14 -1 -11 -4 10 -10 21 -6 11 -6 -30 -3 -72 6 -167
39 -191 65 -9 11 -21 19 -27 19 -10 0 -47 28 -125 95 -26 23 -59 49 -75 58
-15 10 -81 69 -147 133 -66 63 -124 112 -130 109 -5 -3 -10 -2 -10 3 0 6 -60
63 -132 128 -196 175 -228 209 -228 239 l0 27 28 -22 c15 -12 73 -56 128 -98z
m-5507 -7 c1 -5 -8 -21 -18 -35 -16 -20 -22 -22 -34 -11 -14 11 -14 17 5 52
19 36 21 38 34 22 7 -10 13 -22 13 -28z m1407 -59 l7 -48 -34 7 c-19 4 -42 12
-52 17 -18 9 -18 10 1 31 11 12 25 33 32 46 10 20 14 21 25 10 7 -8 17 -36 21
-63z m-736 19 c0 -16 -12 -18 -47 -9 -31 8 -19 24 18 24 19 0 29 -5 29 -15z
m915 -12 c29 -14 40 -15 55 -5 34 21 67 15 72 -13 3 -14 0 -26 -6 -27 -18 -3
-49 -5 -83 -7 -21 -1 -45 -13 -70 -36 -21 -19 -47 -35 -59 -35 -20 0 -68 29
-49 30 6 0 4 4 -4 9 -18 12 -5 31 22 31 26 0 61 27 70 53 8 21 8 21 52 0z
m602 -25 c42 -29 48 -49 28 -89 l-17 -31 -66 5 c-37 4 -72 12 -80 21 -23 23
-7 60 35 82 21 10 40 22 41 27 6 12 25 8 59 -15z m-334 -4 c41 -21 39 -18 31
-38 -9 -25 -61 -20 -96 9 l-30 25 24 9 c32 13 35 13 71 -5z m-1531 -29 c3 -14
1 -25 -3 -25 -5 0 -9 11 -9 25 0 14 2 25 4 25 2 0 6 -11 8 -25z m2035 19 c-3
-3 -12 -4 -19 -1 -8 3 -5 6 6 6 11 1 17 -2 13 -5z m121 -32 c-4 -39 -17 -50
-44 -38 -25 12 -21 32 10 58 26 21 38 14 34 -20z m-1471 -9 c5 -15 -21 -23
-38 -12 -12 8 -12 10 1 19 17 11 32 8 37 -7z m-1234 -30 c-4 -10 -11 -21 -17
-25 -17 -11 -27 2 -16 23 14 24 42 26 33 2z m3326 3 c21 -25 2 -43 -51 -50
-56 -8 -55 -8 -60 18 -5 31 89 59 111 32z m-294 -4 c16 -11 18 -54 3 -63 -7
-5 -25 -9 -40 -9 -21 0 -25 4 -21 20 4 14 0 20 -11 20 -19 0 -22 26 -3 33 19
8 61 8 72 -1z m-2854 -17 c-1 -15 -24 -12 -29 3 -3 9 2 13 12 10 10 -1 17 -7
17 -13z m2486 9 c-3 -3 -12 -4 -19 -1 -8 3 -5 6 6 6 11 1 17 -2 13 -5z m753
-14 c0 -11 -3 -20 -7 -20 -22 1 -53 13 -53 22 0 5 4 7 8 4 4 -2 14 -1 22 5 23
14 30 11 30 -11z m3215 -140 c109 -91 150 -131 164 -157 10 -19 9 -23 -4 -23
-19 0 -95 47 -95 59 0 5 -14 14 -30 21 -17 7 -50 31 -73 54 -50 47 -137 150
-137 160 0 14 98 -50 175 -114z m-4429 66 c23 -17 19 -21 -23 -29 -25 -5 -35
-2 -42 12 -6 10 -7 21 -4 25 11 11 49 6 69 -8z m1323 -11 c0 -5 -5 -9 -9 -8
-4 1 -13 -4 -20 -12 -13 -16 -40 -9 -40 10 0 7 6 16 13 19 19 8 58 2 56 -9z
m2822 -84 c52 -37 70 -52 149 -122 19 -17 51 -42 70 -55 108 -72 224 -161 287
-220 29 -27 88 -78 133 -114 92 -74 240 -218 240 -234 0 -26 -114 50 -199 134
-26 25 -68 61 -94 80 -27 19 -58 44 -70 55 -12 11 -40 32 -61 47 -21 14 -73
58 -116 97 -43 39 -83 71 -88 71 -6 0 -12 3 -14 8 -5 11 -175 162 -183 162 -9
0 -135 114 -135 123 0 17 31 5 81 -32z m-5193 -91 c2 -22 10 -34 22 -37 21 -6
35 -36 25 -53 -9 -15 -46 -2 -73 26 -17 18 -27 22 -45 15 -31 -12 -67 4 -67
29 0 11 6 20 13 21 48 3 77 15 77 33 0 12 6 13 23 7 15 -6 23 -18 25 -41z
m-182 0 c0 -9 -5 -17 -11 -17 -5 0 -22 -4 -36 -7 -18 -5 -31 -2 -43 9 -24 25
-10 36 43 34 36 -2 47 -6 47 -19z m-126 -98 c0 -27 -20 -42 -54 -42 -34 0 -68
18 -50 26 6 3 20 11 30 19 28 21 74 19 74 -3z m170 -2 c0 -21 -34 -45 -50 -35
-18 11 -11 35 13 45 33 13 37 12 37 -10z m113 -126 c11 -11 -22 -35 -49 -37
-40 -3 -41 20 -2 32 43 12 44 12 51 5z m58 -24 c10 -6 19 -17 19 -25 0 -20 44
-19 60 0 17 21 56 19 80 -5 11 -11 33 -20 49 -20 20 0 34 -8 45 -25 9 -14 25
-25 36 -25 10 0 25 -8 32 -18 7 -10 33 -23 58 -28 32 -7 45 -14 44 -26 -2 -17
53 -32 62 -16 7 11 62 10 85 -3 19 -10 18 -12 -17 -51 l-37 -41 44 -14 c24 -8
48 -19 53 -24 6 -5 31 -9 57 -9 43 0 51 -4 79 -37 49 -61 40 -76 -55 -88 -71
-9 -81 -13 -95 -37 -8 -16 -22 -28 -31 -28 -32 0 -43 29 -45 118 -2 153 -31
160 -50 13 -1 -13 -6 -27 -11 -30 -4 -3 -13 -15 -19 -26 -19 -34 -41 -30 -48
9 -6 33 -9 35 -61 41 -29 4 -60 5 -67 2 -18 -6 -50 12 -43 24 4 5 -9 9 -29 9
-25 0 -36 -4 -36 -15 0 -8 5 -15 10 -15 6 0 10 -15 10 -32 0 -26 -6 -37 -30
-50 -42 -24 -49 -62 -18 -96 14 -15 32 -40 39 -56 8 -16 28 -36 44 -45 17 -9
44 -28 60 -44 31 -28 43 -31 94 -21 31 7 31 7 25 54 -6 43 -4 48 17 53 32 9
36 3 49 -59 10 -47 9 -59 -4 -79 -30 -46 -16 -94 34 -120 17 -9 30 -22 30 -30
0 -26 -27 -16 -54 19 -33 44 -54 50 -99 31 -42 -17 -51 -53 -17 -62 11 -3 20
-10 20 -16 0 -6 23 -32 51 -58 52 -48 60 -79 21 -79 -33 0 -110 69 -122 108
-6 21 -20 54 -32 75 -22 43 -18 71 10 63 10 -4 27 1 38 9 18 15 18 16 -19 49
-36 32 -77 46 -138 46 -29 0 -53 23 -64 60 -4 14 -19 40 -33 59 -21 29 -26 46
-27 104 -1 60 -5 73 -24 88 -33 27 -61 25 -61 -5 0 -40 -47 -49 -79 -15 -18
20 -23 21 -73 9 -63 -15 -77 -25 -71 -48 6 -24 -20 -57 -41 -49 -42 17 -40
103 4 114 24 6 34 31 12 29 -12 -1 -18 8 -20 29 -5 37 -19 56 -38 48 -17 -6
-18 -46 -3 -75 7 -12 7 -24 2 -29 -15 -15 -41 0 -45 24 -2 16 -10 22 -28 22
-15 0 -24 -5 -22 -12 3 -16 0 -16 -34 2 -56 29 -59 84 -7 115 35 20 48 21 98
5 14 -4 29 2 47 20 17 15 39 25 58 25 16 0 30 5 30 11 0 6 -19 47 -42 90 -34
61 -40 81 -31 90 22 22 63 -10 89 -70 13 -29 24 -60 24 -68 0 -7 7 -16 15 -20
23 -8 107 18 132 41 26 24 48 76 33 76 -18 0 -33 52 -18 62 16 10 16 10 39 -2z
m6254 -211 c14 -22 -3 -18 -26 7 -23 25 -23 26 -2 15 12 -6 25 -16 28 -22z
m-7257 -171 c-3 -7 -22 -14 -44 -16 -37 -2 -38 -1 -20 13 24 18 69 20 64 3z
m442 -50 c39 -22 52 -52 28 -60 -20 -7 -91 17 -102 35 -7 11 -6 20 3 31 18 21
25 20 71 -6z m-197 -38 c-1 -32 -12 -46 -30 -38 -4 2 -8 20 -9 41 -2 34 0 38
19 35 18 -2 22 -9 20 -38z m-105 -6 c13 -4 22 -14 22 -25 0 -13 -7 -19 -22
-19 -32 0 -52 15 -45 34 7 18 11 19 45 10z m-213 -64 c14 -5 25 -17 25 -26 0
-13 -7 -15 -42 -9 -43 7 -72 30 -62 47 6 10 32 6 79 -12z m1879 14 c22 -9 20
-24 -3 -24 -21 0 -34 13 -24 24 8 7 8 7 27 0z m-1280 -19 c8 -21 -20 -31 -40
-15 -12 11 -12 15 -2 21 20 13 35 11 42 -6z m274 -15 c21 -1 102 -76 102 -95
0 -7 -5 -17 -11 -20 -18 -12 -27 -49 -17 -69 7 -12 6 -22 -1 -29 -8 -8 -19 -3
-39 16 -30 29 -48 34 -54 15 -9 -25 -24 3 -20 36 4 33 7 36 36 36 18 0 35 2
38 5 3 3 -11 22 -31 43 -23 24 -37 48 -38 67 -1 23 1 26 8 12 6 -9 18 -17 27
-17z m642 10 c0 -11 -4 -20 -10 -20 -5 0 -10 9 -10 20 0 11 5 20 10 20 6 0 10
-9 10 -20z m-2030 -5 c0 -9 -9 -15 -25 -15 -26 0 -34 15 -12 23 23 10 37 7 37
-8z m2040 -35 c0 -5 -4 -10 -10 -10 -5 0 -10 5 -10 10 0 6 5 10 10 10 6 0 10
-4 10 -10z m-2423 -76 c-3 -3 -14 11 -25 30 -11 19 -18 37 -14 41 3 3 15 -11
25 -31 10 -20 16 -38 14 -40z m2859 14 c4 -5 0 -17 -9 -25 -11 -11 -19 -12
-35 -4 -19 10 -35 45 -25 55 7 6 62 -14 69 -26z m-806 -79 c0 -5 -4 -9 -10 -9
-5 0 -10 7 -10 16 0 8 5 12 10 9 6 -3 10 -10 10 -16z m914 -120 c30 -24 34
-39 8 -39 -21 0 -66 43 -55 53 10 11 18 8 47 -14z m-1821 -79 c23 -33 16 -65
-13 -65 -27 0 -36 20 -26 61 8 29 20 31 39 4z m2007 1 c0 -26 -16 -35 -24 -15
-10 25 -7 34 9 34 8 0 15 -9 15 -19z m-1673 -7 c-3 -3 -12 -4 -19 -1 -8 3 -5
6 6 6 11 1 17 -2 13 -5z m1516 -65 c12 -19 -32 -116 -65 -146 l-21 -18 6 56
c10 106 49 158 80 108z m-894 -97 c-17 -31 -31 -32 -46 -2 -12 24 -1 56 25 73
6 4 13 16 13 25 1 9 6 -3 12 -27 8 -35 7 -49 -4 -69z m1341 71 c0 -10 -4 -25
-10 -33 -8 -12 -10 -12 -16 3 -7 20 1 47 16 47 5 0 10 -8 10 -17z m-2280 -43
c11 -21 3 -73 -10 -65 -16 10 -20 85 -4 85 2 0 8 -9 14 -20z m1343 -44 c9 -7
17 -16 17 -20 0 -3 -8 -6 -17 -6 -19 1 -53 22 -53 34 0 11 34 6 53 -8z m-3373
-56 c0 -5 -5 -10 -11 -10 -5 0 -7 5 -4 10 3 6 8 10 11 10 2 0 4 -4 4 -10z
m-131 -52 c0 -31 -1 -31 -10 -10 -5 13 -7 28 -3 33 10 16 14 9 13 -23z m106
22 c3 -5 1 -10 -4 -10 -6 0 -11 5 -11 10 0 6 2 10 4 10 3 0 8 -4 11 -10z m240
-10 c3 -6 -1 -7 -9 -4 -18 7 -21 14 -7 14 6 0 13 -4 16 -10z m-570 -270 c3 -5
1 -10 -4 -10 -6 0 -11 5 -11 10 0 6 2 10 4 10 3 0 8 -4 11 -10z m91 -70 c0
-11 -4 -20 -8 -20 -4 0 -8 9 -8 20 0 11 4 20 8 20 4 0 8 -9 8 -20z m8288 -56
c32 -69 32 -73 3 -101 -22 -20 -26 -21 -53 -7 -39 21 -42 28 -42 101 l1 63 33
0 c30 0 35 -4 58 -56z m445 -173 c28 -40 34 -68 19 -101 -15 -34 -14 -34 -58
-19 -37 13 -60 57 -60 116 l0 39 40 -4 c29 -3 45 -11 59 -31z"/>
<path d="M1585 10980 c-15 -17 -16 -20 -3 -20 9 0 19 7 22 16 10 25 1 27 -19
4z"/>
<path d="M2410 10869 c0 -5 5 -7 10 -4 6 3 10 8 10 11 0 2 -4 4 -10 4 -5 0
-10 -5 -10 -11z"/>
<path d="M10137 8089 c7 -7 15 -10 18 -7 3 3 -2 9 -12 12 -14 6 -15 5 -6 -5z"/>
<path d="M2255 12170 c4 -6 11 -8 16 -5 14 9 11 15 -7 15 -8 0 -12 -5 -9 -10z"/>
<path d="M3246 12165 c-4 -12 -2 -13 12 -7 9 5 24 12 32 15 9 3 4 6 -11 6 -15
1 -29 -6 -33 -14z"/>
<path d="M15462 12158 c-7 -7 -12 -9 -12 -4 0 18 -61 -31 -77 -63 -10 -20 -24
-42 -32 -50 -19 -21 -6 -158 17 -185 33 -37 107 -63 164 -59 86 7 148 26 148
47 0 6 9 17 20 24 12 7 18 17 15 22 -3 6 1 10 10 10 9 0 13 5 10 10 -3 6 -1
10 5 10 17 0 2 86 -26 150 -24 54 -26 56 -92 78 -75 24 -132 28 -150 10z"/>
<path d="M3030 12098 c0 -25 46 -24 53 0 3 15 -1 19 -24 18 -21 -1 -29 -6 -29
-18z"/>
<path d="M3308 12053 c-10 -2 -18 -8 -18 -13 0 -10 38 -1 46 11 5 9 1 10 -28
2z"/>
<path d="M3220 11950 c-8 -4 -35 -11 -59 -14 -41 -5 -60 -18 -61 -38 0 -5 7
-8 15 -8 20 0 124 40 130 50 8 13 -8 20 -25 10z"/>
<path d="M3264 11916 c-3 -9 -11 -15 -18 -14 -14 2 -75 -10 -101 -22 -11 -4
-29 -12 -40 -16 -41 -16 19 -16 65 0 23 8 47 13 54 11 6 -2 24 -6 40 -10 l29
-6 -29 -30 c-15 -16 -34 -29 -41 -29 -7 0 -13 -4 -13 -9 0 -5 -10 -12 -22 -15
-21 -6 -20 -8 16 -27 44 -24 75 -20 111 14 36 33 49 43 65 50 8 3 2 6 -14 6
-24 1 -27 4 -23 24 7 25 -6 46 -45 71 -25 17 -28 17 -34 2z"/>
<path d="M2609 11884 l-34 -13 42 5 c23 3 44 0 48 -6 7 -12 25 -14 25 -2 0 19
-47 28 -81 16z"/>
<path d="M2904 11875 c-26 -18 -15 -26 15 -11 13 7 19 16 14 19 -6 4 -19 0
-29 -8z"/>
<path d="M4706 11875 c-11 -8 -18 -17 -15 -19 9 -7 94 9 94 19 0 16 -58 16
-79 0z"/>
<path d="M2720 11865 c-6 -8 -9 -19 -5 -25 3 -5 1 -10 -5 -10 -6 0 -8 -5 -4
-12 5 -7 9 -37 11 -67 3 -60 11 -75 36 -66 14 6 14 10 1 42 -16 38 -9 57 27
68 27 9 24 27 -12 58 -36 32 -33 31 -49 12z"/>
<path d="M3570 11850 c-11 -7 -4 -10 25 -9 31 0 36 2 20 9 -26 11 -28 11 -45
0z"/>
<path d="M2854 11835 c-10 -8 -14 -15 -8 -15 6 0 17 7 24 15 16 19 9 19 -16 0z"/>
<path d="M2376 11824 c-10 -25 1 -29 14 -5 6 12 7 21 1 21 -5 0 -12 -7 -15
-16z"/>
<path d="M3585 11800 c3 -5 17 -10 31 -10 14 0 22 4 19 10 -3 6 -17 10 -31 10
-14 0 -22 -4 -19 -10z"/>
<path d="M2200 11770 c0 -19 3 -21 12 -12 9 9 9 15 0 24 -9 9 -12 7 -12 -12z"/>
<path d="M3483 11702 c-46 -19 -64 -32 -42 -32 18 0 106 24 139 38 23 10 22
11 -15 11 -22 0 -59 -8 -82 -17z"/>
<path d="M3276 11689 c-25 -20 -26 -22 -9 -35 23 -17 73 -17 96 0 25 19 21 26
-13 26 -30 0 -41 14 -17 23 6 3 2 6 -9 6 -12 1 -33 -8 -48 -20z"/>
<path d="M2830 11650 c-8 -5 -12 -12 -9 -15 8 -8 39 5 39 16 0 11 -11 11 -30
-1z"/>
<path d="M3788 11633 c7 -3 16 -2 19 1 4 3 -2 6 -13 5 -11 0 -14 -3 -6 -6z"/>
<path d="M4848 11613 c6 -2 18 -2 25 0 6 3 1 5 -13 5 -14 0 -19 -2 -12 -5z"/>
<path d="M2637 11548 c2 -13 10 -33 15 -45 8 -17 8 -30 0 -48 -10 -21 -9 -25
3 -25 8 0 15 6 15 13 0 9 2 9 8 -1 10 -15 42 -6 42 12 0 6 10 16 22 21 25 11
36 35 17 35 -7 0 -21 -8 -32 -17 -20 -18 -20 -17 -14 15 6 29 4 32 -17 32 -13
0 -29 7 -36 15 -18 22 -29 18 -23 -7z"/>
<path d="M2785 11550 c-3 -5 1 -10 9 -10 9 0 16 5 16 10 0 6 -4 10 -9 10 -6 0
-13 -4 -16 -10z"/>
<path d="M5360 11500 c47 -26 73 -26 41 0 -13 11 -35 20 -50 20 -25 -1 -25 -1
9 -20z"/>
<path d="M2825 11440 c-3 -5 -1 -10 4 -10 6 0 11 5 11 10 0 6 -2 10 -4 10 -3
0 -8 -4 -11 -10z"/>
<path d="M5528 11413 c6 -2 18 -2 25 0 6 3 1 5 -13 5 -14 0 -19 -2 -12 -5z"/>
<path d="M3885 11220 c3 -5 8 -10 11 -10 2 0 4 5 4 10 0 6 -5 10 -11 10 -5 0
-7 -4 -4 -10z"/>
<path d="M6010 11110 c0 -5 5 -10 10 -10 6 0 10 5 10 10 0 6 -4 10 -10 10 -5
0 -10 -4 -10 -10z"/>
<path d="M6030 10866 c0 -2 7 -7 16 -10 8 -3 12 -2 9 4 -6 10 -25 14 -25 6z"/>
<path d="M4455 10820 c-8 -13 15 -13 35 0 12 8 11 10 -7 10 -12 0 -25 -4 -28
-10z"/>
<path d="M3508 10663 c7 -3 16 -2 19 1 4 3 -2 6 -13 5 -11 0 -14 -3 -6 -6z"/>
<path d="M3364 10625 c-3 -8 -3 -18 0 -24 4 -5 2 -12 -4 -16 -20 -12 -10 -25
19 -25 20 0 35 8 45 22 22 31 21 34 -15 47 -40 14 -39 14 -45 -4z"/>
<path d="M3350 10541 c0 -11 31 -24 39 -16 3 3 -1 10 -9 15 -19 12 -30 12 -30
1z"/>
<path d="M3195 10480 c-3 -6 4 -10 17 -10 13 0 29 -5 35 -11 12 -12 37 -3 28
11 -3 5 3 11 12 13 10 3 -5 5 -34 6 -28 0 -55 -3 -58 -9z"/>
<path d="M3124 10468 c-24 -38 0 -88 42 -88 35 0 40 21 10 43 -19 13 -25 25
-21 38 7 22 -19 27 -31 7z"/>
<path d="M3490 10346 c0 -9 40 -13 46 -5 3 5 -6 9 -20 9 -14 0 -26 -2 -26 -4z"/>
<path d="M6203 10273 c9 -2 23 -2 30 0 6 3 -1 5 -18 5 -16 0 -22 -2 -12 -5z"/>
<path d="M3112 10119 c2 -6 8 -10 13 -10 5 0 11 4 13 10 2 6 -4 11 -13 11 -9
0 -15 -5 -13 -11z"/>
<path d="M3120 9960 c0 -5 9 -10 20 -10 11 0 20 5 20 10 0 6 -9 10 -20 10 -11
0 -20 -4 -20 -10z"/>
<path d="M2803 9833 c1 -19 -2 -27 -11 -25 -8 1 -12 -5 -10 -15 2 -14 11 -17
33 -15 58 7 77 54 29 72 -38 15 -43 13 -41 -17z"/>
<path d="M2781 9712 c-22 -3 -22 -4 -5 -17 19 -13 84 -9 84 5 0 9 -46 16 -79
12z"/>
<path d="M2433 9545 c-15 -16 -16 -25 -5 -25 4 0 13 9 20 20 14 23 3 26 -15 5z"/>
<path d="M7680 9291 c0 -6 4 -13 10 -16 6 -3 7 1 4 9 -7 18 -14 21 -14 7z"/>
<path d="M4760 9259 c0 -5 9 -9 20 -9 11 0 20 2 20 4 0 2 -9 6 -20 9 -11 3
-20 1 -20 -4z"/>
<path d="M5223 9093 c4 -7 -8 -9 -37 -6 -24 3 -52 1 -62 -5 -16 -9 -14 -12 15
-27 18 -9 39 -14 47 -11 7 3 16 1 19 -4 4 -6 11 -10 16 -10 6 0 8 4 5 9 -3 4
7 8 22 8 82 0 192 8 192 12 0 12 -86 33 -154 38 -46 4 -67 3 -63 -4z"/>
<path d="M4811 9071 c-15 -10 31 -20 174 -40 96 -13 133 -14 95 -1 -138 46
-237 61 -269 41z"/>
<path d="M5360 8892 c0 -9 -7 -11 -21 -7 -15 5 -20 3 -17 -6 3 -10 32 -16 89
-21 46 -4 106 -11 133 -16 54 -11 88 -6 64 9 -7 5 -28 9 -47 9 -25 0 -32 4
-27 15 4 11 -1 15 -17 14 -12 0 -16 -3 -9 -6 16 -6 6 -23 -14 -23 -8 0 -12 5
-9 10 6 9 -43 16 -89 11 -11 -1 -23 4 -28 11 -6 10 -8 10 -8 0z"/>
<path d="M8270 8885 c7 -8 16 -15 21 -15 5 0 6 7 3 15 -4 8 -13 15 -21 15 -13
0 -13 -3 -3 -15z"/>
<path d="M0 4535 l0 -4285 203 5 c111 2 227 0 257 -5 30 -5 89 -14 130 -21 41
-7 97 -23 123 -37 55 -28 158 -41 277 -35 213 11 270 16 270 24 0 5 11 15 25
21 28 13 75 99 75 138 0 23 29 60 48 60 4 0 14 6 20 12 10 10 6 18 -19 39 -28
23 -30 28 -19 49 11 21 17 22 71 16 43 -4 59 -2 59 7 0 6 14 23 30 35 19 15
32 37 36 60 7 36 18 54 92 141 20 24 41 55 46 70 12 36 45 71 62 64 8 -3 14 0
14 7 0 16 20 34 57 51 35 15 40 27 21 48 -10 11 -10 14 -1 18 7 3 13 13 13 22
0 32 22 81 36 81 19 0 18 16 -3 24 -13 5 -10 10 17 24 21 10 37 27 40 42 5 22
13 26 55 30 73 8 115 34 115 69 0 32 -23 56 -62 66 -35 9 -36 25 -3 25 14 0
33 4 43 9 9 6 38 17 64 26 30 11 57 31 78 57 30 37 31 40 15 58 -24 26 -12 50
24 50 25 0 30 4 33 27 2 16 10 29 18 30 63 8 90 15 85 24 -4 5 -15 9 -26 9
-24 0 -24 16 1 37 19 17 19 17 0 30 -11 8 -20 23 -20 34 0 15 7 19 38 19 29 0
39 5 47 22 6 13 24 26 42 30 18 5 41 20 50 34 16 25 16 27 0 39 -15 11 -16 14
-2 25 12 10 26 10 70 -3 59 -17 71 -11 61 28 -5 20 0 26 32 42 24 11 38 26 40
40 2 15 13 25 28 29 l25 6 -21 23 c-26 27 -19 45 17 45 13 0 38 9 53 20 22 16
37 19 74 14 38 -6 47 -4 52 11 4 9 0 29 -8 44 -21 38 -12 58 28 66 19 3 38 13
41 21 6 15 33 20 33 5 0 -18 31 -40 46 -34 10 4 14 13 10 29 -3 12 -1 26 4 29
6 4 8 11 5 16 -4 5 3 9 14 9 10 0 30 13 44 29 34 41 79 62 116 55 24 -5 32 -2
37 11 4 10 1 21 -7 26 -11 7 -11 9 4 9 13 0 17 9 17 39 0 22 4 42 9 45 11 7
28 -13 33 -39 3 -16 11 -11 42 32 21 29 40 53 44 53 3 0 14 -8 24 -17 18 -16
20 -15 46 13 15 16 26 38 24 47 -2 9 2 18 10 19 7 0 18 2 25 2 6 1 20 10 32
20 12 11 29 16 42 13 32 -8 48 1 41 25 -4 17 -2 20 11 15 9 -3 18 0 21 9 3 8
11 14 18 14 8 0 21 9 30 19 12 14 25 18 44 15 23 -4 26 -2 21 15 -3 14 -1 18
9 14 8 -3 14 -9 14 -14 0 -5 6 -9 14 -9 12 0 26 41 31 90 1 8 3 17 4 20 2 3 4
15 5 27 2 13 10 31 19 41 9 10 17 24 17 30 0 7 7 12 16 12 10 0 14 5 10 15 -3
8 -9 21 -12 29 -4 10 12 19 55 31 47 14 61 23 66 42 5 21 10 23 75 23 74 0
115 15 158 58 12 12 31 22 41 22 11 0 23 5 26 10 3 6 13 10 22 10 9 0 31 11
50 26 24 18 33 33 33 54 0 34 57 84 96 85 13 1 35 12 48 24 13 12 50 29 82 37
103 25 134 37 134 51 0 15 4 17 68 33 52 13 85 44 77 70 -9 27 36 56 64 41 20
-11 51 -5 51 10 0 5 11 9 24 9 14 0 26 7 28 18 4 14 23 21 84 30 57 9 83 18
94 32 11 15 42 25 114 39 55 10 104 25 110 33 11 14 115 43 123 34 3 -2 22 2
44 9 21 8 39 12 39 8 0 -3 6 -1 13 5 7 6 35 18 62 27 79 26 105 39 105 52 0 6
15 22 32 35 81 57 156 138 128 138 -16 0 -12 22 7 36 32 23 7 24 -35 2 -47
-26 -66 -18 -31 12 l24 20 -30 -11 c-16 -6 -50 -26 -74 -45 -24 -19 -50 -34
-58 -34 -7 0 -13 -4 -13 -10 0 -5 -10 -15 -22 -21 -16 -8 -10 2 17 30 37 38
41 57 6 28 -24 -20 -167 -107 -176 -107 -14 0 47 48 152 121 56 39 113 81 126
93 14 13 32 26 41 29 17 7 22 32 7 41 -5 3 -14 -1 -21 -8 -6 -8 -28 -23 -48
-34 -20 -11 -54 -29 -74 -41 -21 -11 -53 -29 -70 -39 -18 -11 -56 -33 -84 -50
-59 -37 -77 -41 -43 -11 l24 22 -22 -6 c-43 -10 -23 12 47 53 39 22 103 59
143 82 70 41 97 61 97 72 0 11 -19 6 -82 -24 -77 -35 -118 -51 -118 -45 0 6
160 95 171 95 20 0 7 20 -17 26 -19 5 -48 -3 -103 -29 -85 -39 -139 -61 -191
-76 -19 -6 -57 -17 -84 -26 -27 -8 -56 -15 -65 -15 -24 0 23 38 75 61 25 11
73 47 108 79 34 33 75 69 89 80 15 12 27 26 27 32 0 6 8 17 18 24 13 10 14 15
5 25 -10 10 -21 8 -55 -11 -24 -13 -54 -32 -67 -42 -13 -10 -29 -18 -36 -18
-7 0 -18 -7 -25 -15 -7 -8 -17 -15 -23 -15 -6 0 10 20 34 45 24 25 48 45 52
45 18 0 65 43 61 55 -9 22 -72 28 -99 11 -24 -16 -43 -7 -30 14 4 6 -11 17
-32 25 -21 9 -52 22 -69 31 -17 9 -37 14 -45 13 -8 -2 -41 10 -74 25 -33 16
-91 39 -130 53 -38 14 -74 29 -80 33 -5 4 -39 18 -75 30 -186 65 -849 397
-935 468 -6 5 -33 21 -60 37 -74 43 -289 187 -293 197 -2 4 -9 8 -15 8 -7 0
-37 19 -68 43 -31 23 -72 53 -90 67 -19 14 -70 59 -114 101 -44 41 -114 103
-155 136 -88 72 -134 118 -265 273 -100 117 -308 330 -323 330 -7 0 -53 55
-192 233 -29 38 -56 64 -59 59 -12 -21 -42 17 -82 104 -73 160 -81 174 -95
174 -16 0 -19 16 -4 25 6 3 10 13 10 20 0 21 -50 124 -77 161 -13 17 -23 34
-23 38 0 11 -55 120 -82 161 -14 22 -40 53 -57 69 -17 17 -31 35 -31 41 0 7
-9 20 -20 30 -11 10 -22 26 -26 37 -3 10 -21 42 -40 71 -19 28 -34 57 -34 64
0 7 -9 18 -20 25 -11 7 -20 18 -20 24 0 6 -11 16 -25 22 -14 6 -25 16 -25 22
0 14 -27 13 -32 -1 -3 -8 -62 -13 -192 -15 -145 -3 -190 -7 -202 -18 -7 -8
-28 -17 -44 -21 -17 -4 -36 -15 -43 -26 -7 -11 -23 -19 -38 -19 -29 0 -109
-38 -122 -57 -4 -7 -14 -10 -22 -7 -8 4 -15 2 -15 -3 0 -5 -19 -8 -42 -7 -129
8 -208 18 -208 25 0 5 -8 9 -18 9 -10 0 -27 7 -38 15 -10 8 -29 15 -42 15 -16
0 -31 14 -54 50 -17 28 -35 50 -40 50 -16 0 -48 90 -48 135 0 46 -21 105 -42
121 -17 14 -68 16 -68 4 0 -6 -13 -10 -29 -10 -20 0 -36 9 -52 30 -16 20 -33
30 -51 30 -32 0 -65 29 -79 70 -6 16 -22 33 -40 40 -20 9 -29 19 -29 36 0 13
-4 24 -9 24 -5 0 -12 20 -15 44 -10 67 -26 81 -85 80 -28 0 -51 3 -51 8 0 4
-21 8 -47 9 -53 0 -85 10 -84 24 2 22 -22 81 -38 93 -14 11 -14 14 -1 23 11 8
12 12 3 16 -7 2 -13 18 -13 34 0 22 -6 32 -26 39 -14 6 -27 10 -30 10 -2 0 -4
-1928 -4 -4285z m5640 -30 c-13 -14 -27 -25 -32 -25 -9 0 42 49 51 50 3 0 -6
-11 -19 -25z m-4039 -227 c9 -10 24 -18 33 -18 9 0 16 -4 16 -10 0 -5 9 -10
20 -10 19 0 20 -7 20 -94 0 -109 -4 -126 -34 -127 -16 -1 -17 -2 -3 -6 38 -10
9 -33 -43 -33 -45 0 -58 -8 -53 -34 4 -21 0 -25 -34 -30 -166 -24 -260 -19
-265 17 -2 14 -13 24 -35 30 -50 15 -67 65 -53 150 8 42 17 67 25 67 7 0 16
11 19 24 3 14 15 28 26 31 11 3 20 10 20 15 0 4 27 11 60 15 40 5 60 11 60 20
0 19 32 23 125 17 61 -4 84 -10 96 -24z"/>
<path d="M8680 8799 c0 -24 16 -41 35 -37 14 2 13 7 -9 27 -18 17 -26 20 -26
10z"/>
<path d="M6520 8739 c7 -11 14 -19 16 -16 7 7 -7 37 -17 37 -6 0 -5 -9 1 -21z"/>
<path d="M6455 8710 c3 -5 8 -10 11 -10 2 0 4 5 4 10 0 6 -5 10 -11 10 -5 0
-7 -4 -4 -10z"/>
<path d="M5720 8680 c0 -5 6 -10 14 -10 8 0 22 -7 31 -17 9 -9 20 -12 23 -7 4
5 17 10 30 12 17 3 25 -2 29 -17 8 -30 18 -26 21 9 l2 30 -60 -4 c-33 -2 -63
0 -66 5 -7 12 -24 11 -24 -1z"/>
<path d="M5920 8641 c0 -5 5 -13 10 -16 6 -3 10 -2 10 4 0 5 -4 13 -10 16 -5
3 -10 2 -10 -4z"/>
<path d="M6081 8624 c0 -11 3 -14 6 -6 3 7 2 16 -1 19 -3 4 -6 -2 -5 -13z"/>
<path d="M6040 8600 c0 -11 4 -20 9 -20 5 0 7 9 4 20 -3 11 -7 20 -9 20 -2 0
-4 -9 -4 -20z"/>
<path d="M6520 8582 c0 -5 10 -17 22 -28 l21 -19 -18 28 c-18 28 -25 33 -25
19z"/>
<path d="M5698 8573 c7 -3 16 -2 19 1 4 3 -2 6 -13 5 -11 0 -14 -3 -6 -6z"/>
<path d="M5352 8565 c2 -2 33 -7 69 -10 46 -4 60 -3 49 4 -14 10 -128 16 -118
6z"/>
<path d="M6020 8538 c0 -16 5 -28 10 -28 13 0 13 20 0 40 -8 12 -10 9 -10 -12z"/>
<path d="M5951 8534 c-1 -19 -6 -21 -45 -19 -24 2 -53 9 -65 17 -18 11 -23 11
-31 -2 -8 -11 -12 -12 -18 -3 -8 13 -162 15 -182 3 -17 -11 203 -52 308 -58
86 -4 92 -4 92 15 0 10 -7 28 -15 39 -14 18 -14 18 -15 -5 0 -28 -15 -18 -23
14 -4 19 -5 19 -6 -1z"/>
<path d="M6160 8525 c0 -8 5 -15 10 -15 6 0 10 7 10 15 0 8 -4 15 -10 15 -5 0
-10 -7 -10 -15z"/>
<path d="M6840 8525 c0 -8 4 -15 10 -15 5 0 7 7 4 15 -4 8 -8 15 -10 15 -2 0
-4 -7 -4 -15z"/>
<path d="M6140 8491 c0 -6 4 -13 10 -16 6 -3 7 1 4 9 -7 18 -14 21 -14 7z"/>
<path d="M6353 8442 c3 -28 11 -60 17 -70 8 -13 10 -3 5 43 -4 33 -11 65 -17
70 -7 7 -9 -6 -5 -43z"/>
<path d="M5440 8476 c0 -2 21 -11 48 -19 35 -12 68 -14 126 -10 50 4 72 9 60
13 -20 8 -234 22 -234 16z"/>
<path d="M6233 8459 c3 -19 67 -59 67 -41 -1 13 -27 42 -39 42 -6 0 -11 5 -11
10 0 6 -4 10 -10 10 -5 0 -8 -10 -7 -21z"/>
<path d="M6550 8470 c0 -5 4 -10 10 -10 5 0 16 -12 24 -27 13 -23 15 -25 15
-8 0 11 -6 28 -13 38 -14 19 -36 23 -36 7z"/>
<path d="M8750 8456 c0 -6 49 -56 55 -56 9 0 -38 59 -47 59 -5 1 -8 -1 -8 -3z"/>
<path d="M5996 8441 c-8 -12 3 -41 15 -41 12 0 12 37 0 45 -5 3 -12 1 -15 -4z"/>
<path d="M6310 8430 c0 -5 5 -10 10 -10 6 0 10 5 10 10 0 6 -4 10 -10 10 -5 0
-10 -4 -10 -10z"/>
<path d="M5665 8420 c-4 -6 3 -10 14 -10 25 0 27 6 6 13 -8 4 -17 2 -20 -3z"/>
<path d="M5755 8410 c2 -27 11 -34 32 -25 10 5 24 7 31 6 15 -2 16 15 1 25 -6
3 -15 0 -20 -7 -8 -12 -12 -11 -23 4 -17 22 -23 22 -21 -3z"/>
<path d="M6250 8410 c0 -5 5 -10 10 -10 6 0 10 5 10 10 0 6 -4 10 -10 10 -5 0
-10 -4 -10 -10z"/>
<path d="M5850 8406 c0 -9 30 -14 35 -6 4 6 -3 10 -14 10 -12 0 -21 -2 -21 -4z"/>
<path d="M6440 8379 c0 -13 5 -31 10 -39 7 -11 8 -5 4 20 -8 43 -14 51 -14 19z"/>
<path d="M5535 8380 c11 -5 31 -9 45 -9 23 0 23 1 5 9 -11 5 -31 9 -45 9 -23
0 -23 -1 -5 -9z"/>
<path d="M6511 8370 c0 -14 4 -32 9 -40 9 -13 10 -13 9 0 -1 8 -5 26 -9 40
l-8 25 -1 -25z"/>
<path d="M6671 8374 c0 -11 3 -14 6 -6 3 7 2 16 -1 19 -3 4 -6 -2 -5 -13z"/>
<path d="M8815 8380 c3 -5 16 -15 28 -21 22 -12 22 -12 3 10 -19 21 -43 30
-31 11z"/>
<path d="M6010 8368 c0 -14 -11 -15 -77 -12 l-78 4 53 -27 c28 -15 52 -33 52
-40 0 -7 7 -13 16 -13 10 0 14 6 11 14 -9 22 15 26 37 7 11 -9 16 -11 13 -4
-10 17 13 28 24 12 5 -8 7 -22 5 -32 -4 -15 29 -45 39 -35 2 2 -4 29 -13 61
-14 45 -21 57 -37 57 -12 0 -26 5 -33 12 -9 9 -12 8 -12 -4z"/>
<path d="M6600 8354 c0 -8 5 -12 10 -9 6 3 10 10 10 16 0 5 -4 9 -10 9 -5 0
-10 -7 -10 -16z"/>
<path d="M6463 8299 c4 -13 7 -31 7 -39 0 -12 2 -13 9 -1 10 15 3 48 -12 58
-6 4 -8 -2 -4 -18z"/>
<path d="M6396 8248 c8 -28 12 -33 20 -25 9 8 -6 47 -17 47 -6 0 -7 -10 -3
-22z"/>
<path d="M6840 8251 c0 -6 4 -13 10 -16 6 -3 7 1 4 9 -7 18 -14 21 -14 7z"/>
<path d="M5912 8233 c4 -24 98 -33 98 -10 0 8 -11 17 -24 19 -18 4 -23 1 -18
-10 3 -10 0 -13 -9 -10 -8 3 -13 11 -11 17 1 6 -7 11 -19 11 -14 0 -19 -5 -17
-17z"/>
<path d="M6861 8134 c0 -11 3 -14 6 -6 3 7 2 16 -1 19 -3 4 -6 -2 -5 -13z"/>
<path d="M6040 8060 c8 -5 24 -10 35 -10 17 0 17 2 5 10 -8 5 -24 10 -35 10
-17 0 -17 -2 -5 -10z"/>
<path d="M6105 8060 c-7 -12 18 -40 35 -40 7 0 9 7 6 16 -3 9 -6 20 -6 25 0
12 -27 12 -35 -1z"/>
<path d="M6871 8044 c0 -11 3 -14 6 -6 3 7 2 16 -1 19 -3 4 -6 -2 -5 -13z"/>
<path d="M5680 7966 c0 -7 102 -27 190 -36 47 -6 101 -12 120 -15 26 -4 31 -3
20 4 -8 6 -28 11 -45 11 -16 0 -76 9 -133 20 -98 19 -152 25 -152 16z"/>
<path d="M6915 7840 c4 -14 16 -34 26 -45 19 -19 19 -19 19 0 0 23 -7 34 -34
55 -18 14 -18 13 -11 -10z"/>
<path d="M5596 7820 c6 -6 28 -13 50 -15 l39 -5 -35 14 c-43 18 -68 20 -54 6z"/>
<path d="M5760 7786 c29 -17 125 -40 143 -33 13 5 -75 33 -131 42 -37 6 -37 6
-12 -9z"/>
<path d="M5546 7681 c5 -5 30 -18 56 -29 33 -14 45 -16 42 -7 -3 7 -23 21 -45
29 -44 18 -68 21 -53 7z"/>
<path d="M5688 7613 c7 -3 16 -2 19 1 4 3 -2 6 -13 5 -11 0 -14 -3 -6 -6z"/>
<path d="M5980 7396 c14 -9 32 -15 40 -15 13 0 13 1 0 8 -8 5 -26 12 -40 15
l-25 7 25 -15z"/>
<path d="M4380 7376 c0 -2 18 -13 40 -24 22 -11 40 -16 40 -12 0 3 -10 11 -22
17 -29 14 -58 23 -58 19z"/>
<path d="M4204 7241 c3 -5 15 -11 26 -14 17 -4 19 -3 9 9 -12 15 -44 20 -35 5z"/>
<path d="M4265 7210 c7 -11 65 -43 65 -36 0 2 -16 13 -36 25 -19 12 -32 16
-29 11z"/>
<path d="M7110 7145 c0 -8 91 -58 96 -52 3 2 -16 16 -42 31 -48 27 -54 29 -54
21z"/>
<path d="M3750 7003 c0 -4 14 -16 32 -26 26 -15 29 -15 18 -2 -16 20 -50 39
-50 28z"/>
<path d="M5540 6835 c0 -7 66 -65 99 -87 14 -10 36 -18 48 -18 12 0 24 -8 27
-18 4 -11 25 -36 47 -58 22 -21 56 -54 75 -72 22 -21 41 -31 50 -28 9 3 20 6
25 6 5 0 9 8 9 18 0 16 -59 62 -80 62 -5 0 -10 5 -10 11 0 6 -7 9 -15 5 -8 -3
-14 0 -12 6 1 7 -7 14 -18 16 -11 2 -33 16 -50 31 -82 75 -195 147 -195 126z
m345 -236 c11 -17 -1 -21 -15 -4 -8 9 -8 15 -2 15 6 0 14 -5 17 -11z"/>
<path d="M5940 6570 c8 -5 20 -10 25 -10 6 0 3 5 -5 10 -8 5 -19 10 -25 10 -5
0 -3 -5 5 -10z"/>
<path d="M3605 6410 c4 -13 2 -20 -7 -20 -17 -1 21 -30 39 -30 7 0 37 -16 68
-35 35 -23 55 -31 55 -22 0 7 -20 25 -44 41 -24 15 -56 41 -72 57 -32 34 -48
37 -39 9z"/>
<path d="M4100 6361 c0 -5 7 -12 16 -15 14 -5 15 -4 4 9 -14 17 -20 19 -20 6z"/>
<path d="M8098 6012 c12 -8 72 -4 72 4 0 2 -19 4 -42 4 -26 0 -38 -4 -30 -8z"/>
<path d="M9243 5293 c9 -2 23 -2 30 0 6 3 -1 5 -18 5 -16 0 -22 -2 -12 -5z"/>
<path d="M9090 4770 c8 -5 20 -10 25 -10 6 0 3 5 -5 10 -8 5 -19 10 -25 10 -5
0 -3 -5 5 -10z"/>
<path d="M9178 4773 c7 -3 16 -2 19 1 4 3 -2 6 -13 5 -11 0 -14 -3 -6 -6z"/>
<path d="M8714 4749 c-3 -6 -1 -16 5 -22 8 -8 11 -5 11 11 0 24 -5 28 -16 11z"/>
<path d="M5944 4596 c-9 -15 -14 -29 -11 -32 3 -3 13 6 23 20 9 15 14 29 11
32 -3 3 -13 -6 -23 -20z"/>
<path d="M5840 4535 c-65 -51 -70 -55 -70 -66 0 -14 117 48 124 66 17 45 4 45
-54 0z"/>
<path d="M8425 4380 c-3 -5 -1 -10 4 -10 6 0 11 5 11 10 0 6 -2 10 -4 10 -3 0
-8 -4 -11 -10z"/>
<path d="M6255 4210 c-3 -6 1 -7 9 -4 18 7 21 14 7 14 -6 0 -13 -4 -16 -10z"/>
<path d="M6280 4182 c0 -5 -12 -14 -27 -21 -36 -16 -112 -74 -113 -85 0 -15
54 5 68 25 7 10 17 19 22 19 8 0 70 58 70 66 0 2 -4 4 -10 4 -5 0 -10 -4 -10
-8z"/>
<path d="M6718 3996 c-10 -7 -53 -19 -95 -26 -43 -7 -109 -21 -148 -32 -38
-11 -86 -24 -105 -28 -19 -5 -67 -18 -105 -29 -39 -12 -78 -21 -88 -21 -9 0
-17 -4 -17 -9 0 -5 -17 -14 -37 -20 l-38 -11 48 4 c26 2 47 0 47 -4 0 -9 -63
-40 -82 -40 -7 0 -24 -10 -38 -23 -15 -13 -41 -24 -63 -26 -21 -1 -50 -9 -65
-17 -15 -8 -37 -14 -48 -14 -23 0 -74 -35 -74 -51 0 -5 14 -9 31 -9 42 0 28
-16 -20 -23 -28 -3 -48 -14 -65 -33 -21 -26 -31 -29 -82 -29 -53 0 -59 -2 -65
-25 -4 -14 -8 -20 -8 -15 -1 6 -5 3 -10 -4 -7 -10 -24 -14 -51 -13 -35 2 -43
-1 -47 -18 -3 -13 -14 -20 -29 -20 -33 0 -30 -27 4 -32 15 -2 83 -3 152 -3
l125 0 57 43 c32 23 62 50 67 60 5 10 31 29 58 42 43 22 67 26 170 29 35 1
103 52 103 77 0 8 4 14 9 14 6 0 22 11 37 25 15 14 36 25 46 25 11 0 26 7 34
15 13 13 14 16 1 21 -19 7 -90 -15 -248 -77 -69 -27 -132 -49 -140 -49 -18 1
28 40 47 40 8 0 22 4 32 9 9 5 42 17 72 26 30 9 73 26 94 36 22 10 44 19 48
19 5 0 33 11 61 24 90 41 252 85 372 102 28 4 62 15 77 25 22 16 25 24 19 46
-8 32 -20 37 -43 19z"/>
<path d="M6790 3985 c-9 -25 -4 -55 9 -55 4 0 16 6 26 14 17 12 18 18 7 40
-15 33 -30 33 -42 1z"/>
<path d="M11776 3960 c6 -6 21 -6 39 -1 30 9 30 9 -9 10 -26 1 -37 -2 -30 -9z"/>
<path d="M6733 3895 c-7 -8 -13 -17 -13 -20 0 -3 -13 -20 -30 -38 -31 -34 -65
-95 -57 -104 21 -20 87 18 87 50 0 7 12 29 26 50 25 37 29 68 9 73 -5 2 -16
-3 -22 -11z"/>
<path d="M6568 3863 c7 -3 16 -2 19 1 4 3 -2 6 -13 5 -11 0 -14 -3 -6 -6z"/>
<path d="M6463 3833 c-13 -2 -23 -10 -23 -18 0 -7 -6 -15 -12 -18 -10 -4 -10
-7 0 -18 10 -11 12 -10 12 3 0 9 12 26 28 37 15 11 25 20 22 19 -3 0 -15 -3
-27 -5z"/>
<path d="M6040 3810 c0 -5 12 -10 26 -10 14 0 23 4 19 10 -3 6 -15 10 -26 10
-10 0 -19 -4 -19 -10z"/>
<path d="M5480 3640 c0 -5 4 -10 9 -10 6 0 13 5 16 10 3 6 -1 10 -9 10 -9 0
-16 -4 -16 -10z"/>
<path d="M4825 3420 c-19 -8 -19 -9 2 -9 12 -1 25 4 28 9 7 12 -2 12 -30 0z"/>
<path d="M5177 3363 c-15 -2 -38 -15 -52 -29 -13 -13 -33 -24 -45 -24 -13 0
-20 -7 -20 -19 0 -11 -11 -29 -26 -40 l-25 -20 23 -12 c12 -7 28 -18 35 -25
11 -10 18 -9 36 9 13 12 26 30 30 40 4 10 11 16 16 12 6 -3 8 -12 5 -19 -3 -8
-1 -17 5 -21 6 -3 11 1 11 9 0 20 34 21 54 1 15 -16 38 -20 49 -8 8 7 -51 63
-66 63 -5 0 -7 20 -5 45 2 25 3 44 3 44 0 -1 -12 -4 -28 -6z"/>
<path d="M4940 3190 c-8 -5 -11 -12 -8 -16 11 -10 60 5 53 16 -8 12 -26 12
-45 0z"/>
<path d="M6628 3175 c2 -14 9 -25 14 -25 5 0 6 5 3 10 -3 6 1 13 9 16 20 8 11
24 -13 24 -14 0 -17 -6 -13 -25z"/>
<path d="M4771 3176 c-10 -11 -4 -15 29 -18 44 -4 57 15 18 26 -32 8 -34 8
-47 -8z"/>
<path d="M6858 3173 c7 -3 16 -2 19 1 4 3 -2 6 -13 5 -11 0 -14 -3 -6 -6z"/>
<path d="M6892 3138 c-15 -39 -11 -43 30 -32 26 8 34 16 36 37 3 24 0 27 -25
27 -23 0 -31 -6 -41 -32z"/>
<path d="M5907 3063 c-2 -5 -7 -21 -10 -38 -6 -27 -5 -28 5 -7 12 24 51 32 42
8 -3 -8 3 -16 14 -19 15 -3 21 1 25 19 3 18 -2 25 -26 34 -36 12 -44 12 -50 3z"/>
<path d="M5723 3037 c5 -15 37 -22 37 -9 0 5 -9 12 -21 15 -13 3 -19 1 -16 -6z"/>
<path d="M6070 3016 c0 -8 10 -22 21 -30 20 -13 24 -13 45 2 37 27 30 42 -21
42 -33 0 -45 -4 -45 -14z"/>
<path d="M6015 2990 c-3 -5 -1 -10 4 -10 6 0 11 5 11 10 0 6 -2 10 -4 10 -3 0
-8 -4 -11 -10z"/>
<path d="M4333 2883 c-21 -8 -15 -22 7 -16 11 3 20 9 20 14 0 10 -8 10 -27 2z"/>
<path d="M6614 2869 c-15 -6 -16 -8 -2 -8 9 -1 18 -6 20 -12 4 -13 48 -3 48
11 0 11 -43 18 -66 9z"/>
<path d="M4674 2851 c-5 -5 -20 -11 -34 -13 -26 -3 -31 -21 -8 -25 14 -3 64
35 56 42 -2 3 -9 1 -14 -4z"/>
<path d="M4000 2700 c0 -5 4 -10 9 -10 6 0 13 5 16 10 3 6 -1 10 -9 10 -9 0
-16 -4 -16 -10z"/>
<path d="M7280 2600 c-12 -8 -10 -10 8 -10 13 0 20 4 17 10 -7 12 -6 12 -25 0z"/>
<path d="M5245 2580 c-3 -6 1 -7 9 -4 18 7 21 14 7 14 -6 0 -13 -4 -16 -10z"/>
<path d="M4270 2560 c0 -5 7 -10 15 -10 8 0 15 5 15 10 0 6 -7 10 -15 10 -8 0
-15 -4 -15 -10z"/>
<path d="M6815 2540 c-18 -19 -17 -20 3 -20 12 0 26 9 32 20 8 16 8 20 -3 20
-8 0 -22 -9 -32 -20z"/>
<path d="M6191 2374 c0 -11 3 -14 6 -6 3 7 2 16 -1 19 -3 4 -6 -2 -5 -13z"/>
<path d="M6145 2340 c3 -5 8 -10 11 -10 2 0 4 5 4 10 0 6 -5 10 -11 10 -5 0
-7 -4 -4 -10z"/>
<path d="M3600 2330 c0 -5 4 -10 9 -10 6 0 13 5 16 10 3 6 -1 10 -9 10 -9 0
-16 -4 -16 -10z"/>
<path d="M3236 2102 c-4 -13 -5 -26 -2 -29 10 -11 18 4 14 29 l-4 23 -8 -23z"/>
<path d="M3680 2015 c-11 -13 -8 -15 19 -15 21 0 31 5 31 15 0 8 -8 15 -19 15
-10 0 -24 -7 -31 -15z"/>
<path d="M3585 1920 c-3 -5 3 -10 14 -10 11 0 23 5 26 10 3 6 -3 10 -14 10
-11 0 -23 -4 -26 -10z"/>
<path d="M2981 1651 c-10 -7 -10 -10 -1 -16 6 -4 16 -3 22 3 13 13 -4 23 -21
13z"/>
<path d="M15450 1470 c-13 -8 -10 -14 16 -41 17 -17 39 -29 48 -27 14 2 12 7
-9 32 -14 16 -25 33 -25 38 0 11 -11 10 -30 -2z"/>
<path d="M2640 1185 c0 -8 5 -15 10 -15 6 0 10 7 10 15 0 8 -4 15 -10 15 -5 0
-10 -7 -10 -15z"/>
<path d="M4403 3 c9 -2 25 -2 35 0 9 3 1 5 -18 5 -19 0 -27 -2 -17 -5z"/>
</g>
</svg>
