<?xml version="1.0" standalone="no"?>
<!DOCTYPE svg PUBLIC "-//W3C//DTD SVG 20010904//EN"
 "http://www.w3.org/TR/2001/REC-SVG-20010904/DTD/svg10.dtd">
<svg version="1.0" xmlns="http://www.w3.org/2000/svg"
 width="480.000000pt" height="360.000000pt" viewBox="0 0 480.000000 360.000000"
 preserveAspectRatio="xMidYMid meet">

<g transform="translate(0.000000,360.000000) scale(0.100000,-0.100000)"
fill="#000000" stroke="none">
<path d="M0 2250 c0 -742 3 -1350 8 -1350 4 0 16 8 27 16 14 11 16 18 8 21
-10 4 -9 8 1 19 20 20 43 19 26 -1 -11 -13 -10 -14 4 -9 22 9 21 -22 -1 -35
-10 -6 -15 -11 -10 -11 4 0 16 5 27 12 26 16 58 -12 57 -50 -2 -31 -13 -42
-45 -42 -20 0 -22 4 -17 23 7 21 6 21 -7 3 -13 -16 -19 -17 -46 -8 -19 7 -32
7 -32 1 0 -5 8 -9 18 -9 10 0 28 -9 40 -20 12 -11 29 -20 39 -21 11 0 13 -3 5
-6 -6 -2 -12 -11 -12 -19 0 -8 -5 -14 -12 -14 -6 0 -2 -9 10 -21 29 -26 56
-21 60 11 2 14 8 30 14 35 8 7 9 5 5 -6 -4 -11 3 -20 19 -27 15 -8 22 -17 18
-27 -4 -9 0 -15 9 -15 8 0 18 -7 21 -16 9 -23 7 -36 -3 -30 -12 8 -41 -3 -41
-15 0 -5 10 -14 23 -18 26 -11 48 10 40 39 -4 15 0 18 18 16 60 -9 89 -20 94
-36 4 -12 12 -16 25 -13 26 7 25 16 -2 28 -27 12 -34 61 -10 70 8 3 11 12 8
20 -3 9 0 15 9 15 8 0 15 -5 15 -11 0 -7 9 -9 21 -6 11 3 41 -4 67 -15 31 -14
47 -17 50 -9 5 16 42 14 42 -3 0 -7 -7 -19 -15 -26 -21 -18 -9 -30 31 -30 37
0 47 19 14 27 -11 3 -20 9 -20 14 0 12 17 12 24 0 9 -13 46 -1 46 15 0 8 0 17
0 22 0 4 -15 7 -33 8 -130 4 -167 8 -167 20 0 17 23 30 28 16 2 -7 16 -12 30
-12 27 0 27 1 -5 16 -18 9 -33 21 -33 26 0 5 -5 6 -10 3 -6 -3 -10 -2 -10 3 0
5 16 12 37 15 27 5 40 2 50 -11 8 -9 12 -12 9 -5 -4 8 3 11 21 11 68 -3 123 3
123 13 0 5 -4 8 -9 4 -6 -3 -14 2 -19 11 -7 12 -17 15 -41 9 -17 -4 -28 -11
-25 -17 4 -6 -1 -8 -12 -5 -11 3 -38 11 -61 18 -24 7 -43 16 -43 20 0 4 -7 9
-16 11 -13 3 -13 5 1 23 10 13 18 16 21 9 3 -7 13 -10 24 -7 12 3 20 -2 24
-15 4 -11 13 -23 21 -26 9 -3 12 0 9 8 -4 10 3 14 20 12 14 0 26 -5 26 -10 0
-6 6 -2 13 9 15 20 56 28 78 14 12 -7 12 -12 1 -30 -10 -16 -10 -19 -1 -13 9
5 10 2 6 -11 -6 -15 -3 -17 20 -12 14 3 37 0 50 -6 23 -10 53 4 53 25 0 6 -6
5 -14 -2 -19 -15 -58 -9 -64 9 -3 10 2 12 22 7 14 -3 26 -2 26 3 0 13 27 21
45 15 8 -4 12 -11 8 -17 -4 -6 -1 -7 6 -3 7 5 35 10 63 12 54 3 79 14 34 14
-15 0 -29 7 -33 16 -8 22 18 45 45 38 23 -7 31 -24 10 -24 -9 0 -8 -4 2 -10
22 -14 30 -12 23 6 -4 12 0 14 18 10 13 -3 61 -7 107 -9 75 -3 82 -2 82 15 0
19 27 78 35 78 3 0 -2 -16 -10 -36 -21 -50 -20 -54 18 -54 27 -1 29 -2 14 -11
-9 -5 -22 -7 -27 -4 -6 3 -10 1 -10 -4 0 -12 23 -14 58 -5 17 5 21 11 17 25
-8 25 -1 24 35 -3 35 -25 53 -17 22 11 -12 10 -22 20 -22 22 0 2 21 2 46 0 32
-2 44 0 40 8 -5 7 2 11 19 11 32 0 26 -13 -15 -30 -38 -16 -39 -29 -2 -25 15
2 35 -4 45 -13 9 -8 20 -12 24 -9 3 4 13 1 21 -6 13 -10 15 -9 9 6 -10 26 13
67 37 67 18 0 19 2 6 11 -13 9 -13 10 0 6 9 -2 14 -13 12 -25 -2 -17 1 -20 13
-16 11 5 31 -7 61 -37 36 -35 41 -45 29 -52 -8 -4 -21 -5 -28 -2 -6 4 -3 -1 7
-9 17 -14 18 -16 3 -16 -9 0 -17 -7 -17 -16 0 -12 6 -15 21 -11 14 4 19 2 16
-7 -3 -8 3 -27 13 -44 10 -16 16 -33 13 -36 -4 -3 1 -6 11 -6 9 0 15 4 12 9
-3 5 0 11 8 14 8 3 17 -1 20 -10 4 -8 13 -13 21 -9 18 6 30 -32 20 -63 -7 -23
4 -28 23 -9 9 9 12 6 12 -14 0 -31 17 -45 33 -29 8 8 7 11 -2 11 -10 0 -12 9
-7 31 5 25 3 30 -9 25 -21 -8 -19 1 8 27 13 13 22 34 22 52 0 28 2 30 45 33
24 2 47 7 50 12 3 5 20 2 39 -7 27 -13 34 -14 41 -3 11 19 40 4 40 -20 0 -18
-5 -20 -36 -18 -25 2 -39 -2 -42 -11 -3 -9 0 -11 8 -6 10 6 11 2 6 -18 -7 -30
13 -42 31 -18 10 13 12 10 13 -21 0 -26 -7 -44 -22 -58 -12 -11 -19 -23 -15
-26 12 -12 47 28 47 53 0 12 5 23 10 23 6 0 10 -7 10 -15 0 -8 5 -15 11 -15 6
0 8 -7 4 -17 -4 -13 -3 -15 5 -7 8 8 8 19 0 40 -9 27 -9 28 5 10 16 -21 17
-27 19 -91 1 -31 -4 -44 -21 -58 -13 -10 -23 -26 -23 -35 0 -10 -8 -22 -19
-29 -22 -14 -35 -64 -14 -56 10 4 13 -6 13 -41 0 -51 3 -54 28 -29 16 16 16
16 0 10 -19 -7 -26 17 -8 28 5 3 7 12 4 19 -3 8 9 20 31 30 27 13 35 22 30 36
-4 12 5 30 25 53 28 32 29 36 15 51 -9 9 -22 16 -30 16 -9 0 -11 7 -7 22 3 12
7 17 10 10 2 -7 8 -9 14 -6 5 3 2 14 -8 25 -16 17 -16 19 -1 19 10 0 17 5 17
10 0 6 -7 10 -15 10 -9 0 -15 9 -15 25 0 16 -6 25 -15 25 -8 0 -15 5 -15 10 0
6 5 10 10 10 18 0 10 18 -10 23 -30 8 -24 27 9 27 16 0 31 6 34 14 4 11 -12
13 -81 12 -52 0 -86 3 -85 9 1 6 14 11 27 13 20 3 23 6 14 16 -14 15 -48 9
-48 -7 0 -7 -4 -7 -12 1 -7 7 -20 12 -30 12 -10 0 -18 5 -18 11 0 7 7 8 18 4
20 -8 21 -8 45 -6 9 0 17 6 17 12 0 5 -4 8 -9 4 -13 -8 -91 6 -91 16 0 4 10
10 23 12 16 3 14 5 -9 6 -18 0 -34 8 -38 16 -7 18 13 19 98 5 60 -10 85 -27
63 -43 -7 -4 8 -5 33 -2 33 4 41 3 30 -4 -13 -9 -13 -11 1 -11 9 0 26 9 39 20
25 22 79 26 111 10 21 -12 25 -36 6 -43 -6 -2 -9 -8 -5 -12 4 -4 15 3 24 14
26 29 74 36 113 16 19 -9 41 -13 53 -9 13 4 18 2 14 -4 -11 -18 14 -25 88 -22
167 5 169 5 174 -9 3 -10 -3 -12 -27 -9 -41 6 -48 -5 -16 -26 22 -15 26 -15
31 -2 4 11 11 13 23 7 10 -6 23 -6 32 0 7 5 28 7 44 4 27 -5 28 -5 13 8 -10 8
-18 22 -18 32 0 15 4 13 25 -9 27 -29 60 -34 73 -10 8 15 15 15 61 4 31 -7 55
-20 62 -31 12 -24 67 -26 76 -3 4 12 14 14 36 10 77 -15 107 -27 107 -42 0
-10 6 -14 15 -11 8 4 17 2 20 -3 4 -6 15 -10 26 -10 10 0 19 -4 19 -10 0 -5 9
-10 20 -10 13 0 20 -7 20 -20 0 -29 17 -25 24 6 5 18 10 23 19 16 7 -5 43 -19
80 -32 58 -19 67 -25 62 -41 -4 -11 -2 -19 4 -19 6 0 10 6 8 13 -3 16 14 13
108 -20 65 -23 81 -32 83 -50 2 -13 10 -23 18 -23 8 0 14 -6 14 -14 0 -11 -7
-13 -31 -6 -16 5 -37 6 -46 3 -12 -5 -15 -2 -10 10 4 11 1 17 -7 17 -9 0 -12
-7 -9 -20 3 -11 9 -20 14 -20 5 0 6 -7 3 -15 -4 -10 4 -19 25 -28 24 -10 28
-16 19 -25 -9 -9 -8 -12 5 -12 12 0 17 8 17 28 0 20 3 23 9 12 6 -8 7 -19 4
-25 -3 -5 4 0 17 13 12 13 20 26 16 29 -6 6 19 33 31 33 11 0 43 -36 69 -75 9
-14 19 -23 22 -21 3 3 -1 12 -8 21 -14 17 0 21 18 3 8 -8 8 -17 1 -30 -9 -17
-8 -18 10 -9 27 15 34 14 28 -3 -4 -9 4 -16 21 -21 27 -7 94 -52 101 -68 2 -4
14 -12 27 -17 13 -5 24 -14 24 -20 0 -13 -17 -13 -25 0 -11 18 -26 10 -20 -10
4 -12 2 -20 -5 -20 -7 0 -3 -8 9 -17 19 -16 20 -23 11 -52 -7 -25 -7 -32 1
-24 6 6 14 32 16 57 3 25 9 43 14 40 4 -2 6 -11 2 -19 -3 -8 -1 -15 5 -15 5 0
7 -11 4 -25 -2 -14 -8 -25 -13 -25 -5 0 -9 -11 -9 -25 0 -14 5 -25 10 -25 6 0
10 5 10 11 0 27 30 41 73 34 23 -4 39 -4 34 1 -4 4 -24 9 -44 11 -21 2 -38 5
-40 6 -1 2 -5 23 -9 47 l-7 45 44 -40 c24 -23 65 -55 91 -73 27 -18 48 -35 48
-38 0 -3 -13 -10 -30 -15 -22 -8 -30 -17 -30 -35 0 -32 -24 -40 -56 -19 -18
11 -50 17 -109 18 -46 2 -86 5 -90 8 -13 13 -55 -4 -55 -22 0 -11 -4 -19 -10
-19 -5 0 -10 7 -10 16 0 9 -6 14 -12 11 -7 -2 -12 -15 -10 -28 3 -23 2 -23
-12 -4 -8 11 -10 22 -5 23 15 6 10 49 -7 56 -22 8 -24 8 -24 -8 0 -8 8 -17 18
-19 10 -3 6 -5 -10 -6 -34 -1 -44 2 -41 12 5 14 -11 7 -34 -15 l-24 -22 -6 22
c-3 12 -9 20 -13 17 -4 -2 -5 8 -1 23 5 25 6 26 9 4 3 -22 26 -27 28 -6 0 5 4
17 8 27 11 24 -12 51 -30 36 -10 -8 -14 -8 -14 0 0 6 -8 11 -18 11 -10 0 -23
5 -29 11 -8 8 -13 8 -17 0 -4 -6 -12 -11 -18 -11 -6 0 -6 6 2 16 13 15 31 15
160 -1 27 -3 30 -2 15 5 -11 5 -34 9 -52 9 -17 1 -35 6 -38 11 -4 6 -11 7 -17
4 -6 -4 -13 -2 -17 5 -5 7 -21 8 -51 2 -27 -5 -35 -9 -20 -10 l25 -1 -29 -15
c-15 -8 -35 -15 -44 -15 -20 0 -9 -11 13 -14 14 -2 18 -14 20 -49 1 -28 -3
-47 -9 -47 -7 0 -7 -3 0 -8 7 -4 -15 -8 -49 -9 -36 -2 -64 -8 -69 -15 -6 -10
-8 -10 -8 0 0 6 -9 12 -21 12 -15 0 -19 5 -14 19 3 12 0 21 -10 25 -8 3 -15
12 -15 21 0 8 -5 15 -11 15 -6 0 -9 -6 -6 -13 3 -9 -7 -13 -37 -13 -84 -1
-128 -11 -107 -24 8 -4 0 -16 -23 -34 -20 -15 -36 -22 -36 -16 0 6 -10 8 -25
4 -28 -7 -32 3 -10 32 15 19 15 19 9 -1 -6 -16 -5 -18 7 -8 7 7 21 13 30 13
20 0 33 51 16 62 -7 5 -13 0 -15 -10 -2 -12 -18 -22 -47 -30 -32 -9 -48 -20
-59 -41 -14 -27 -34 -41 -58 -41 -6 0 -9 3 -5 6 3 3 2 17 -4 31 -5 14 -5 22 0
19 5 -4 16 -3 25 0 18 7 22 60 6 84 -8 11 -9 8 -4 -12 5 -23 0 -33 -26 -58
-17 -16 -29 -34 -25 -40 3 -5 3 -10 -2 -10 -17 0 -32 16 -38 43 -4 15 -12 27
-17 27 -6 0 -8 -6 -5 -14 9 -22 -5 -28 -25 -9 -22 20 -24 37 -3 29 17 -6 21
19 5 29 -5 3 -10 1 -10 -4 0 -6 -7 -11 -15 -11 -17 0 -21 35 -5 45 8 5 8 11 1
19 -7 9 -7 16 1 24 17 17 -14 16 -59 -3 -27 -12 -33 -12 -24 -2 6 8 8 17 4 20
-3 4 1 7 10 7 18 0 23 25 7 35 -5 3 -10 19 -10 35 0 16 -4 32 -10 35 -6 3 -10
16 -10 29 0 19 4 22 36 18 31 -4 35 -2 32 14 -3 16 -12 19 -56 18 -49 -1 -67
8 -39 20 9 3 7 9 -6 19 -15 13 -50 15 -109 8 -18 -2 -6 -21 12 -21 11 0 20 -5
20 -12 0 -9 3 -9 12 0 22 22 38 13 38 -20 0 -26 3 -30 11 -18 9 12 10 12 5 -3
-3 -10 -6 -28 -6 -38 0 -11 -4 -17 -10 -14 -5 3 -8 0 -5 -7 3 -7 -4 -24 -14
-37 l-19 -24 -11 21 c-6 12 -21 22 -33 22 -19 0 -20 4 -15 53 6 61 -4 90 -25
69 -6 -6 -28 -12 -48 -12 -51 0 -78 -30 -61 -66 9 -20 9 -30 0 -40 -7 -8 -9
-17 -6 -21 4 -3 -2 -18 -13 -33 -11 -15 -24 -39 -30 -54 -7 -20 -16 -26 -40
-26 -16 0 -30 5 -30 10 0 6 5 10 10 10 6 0 10 5 10 11 0 6 -8 9 -17 7 -10 -2
-18 -9 -18 -16 0 -15 -6 -16 -46 -7 -18 4 -29 12 -26 19 3 7 -2 12 -11 10 -35
-5 -61 -17 -66 -30 -4 -11 6 -14 44 -14 28 0 50 -4 50 -10 0 -5 -6 -10 -12
-10 -9 0 -8 -4 2 -10 12 -8 11 -10 -7 -10 -12 0 -23 -6 -26 -12 -3 -10 -7 -10
-17 -1 -10 9 -16 8 -27 -3 -20 -19 -39 -18 -22 2 11 13 9 14 -16 8 -24 -6 -27
-4 -22 10 4 9 2 16 -3 16 -6 0 -10 -4 -10 -10 0 -5 -7 -10 -15 -10 -8 0 -15
-6 -15 -14 0 -9 -8 -12 -25 -8 -14 2 -25 9 -25 16 1 19 28 48 39 41 6 -3 11
-1 11 5 0 8 13 10 41 5 29 -5 40 -4 35 4 -4 6 -18 11 -32 11 -17 0 -24 6 -24
19 0 12 -7 18 -17 17 -14 -1 -18 7 -18 36 0 27 -3 34 -12 27 -6 -6 -9 -17 -6
-26 4 -9 -2 -22 -15 -32 -18 -14 -19 -18 -6 -29 11 -11 14 -10 14 3 0 17 9 19
29 6 16 -10 6 -31 -14 -31 -8 0 -19 -8 -25 -17 -8 -13 -13 -14 -16 -5 -7 15
-41 16 -46 1 -2 -7 -18 -12 -36 -13 -18 0 -32 -6 -32 -11 0 -6 -12 -18 -27
-27 -23 -13 -30 -14 -40 -3 -6 7 -9 16 -6 19 4 3 2 6 -3 7 -19 1 -40 7 -64 18
-22 10 -21 11 13 6 20 -3 37 -2 37 3 0 5 15 13 33 19 17 5 24 9 15 7 -15 -2
-29 6 -77 43 -3 2 0 8 7 15 8 8 15 8 27 -2 12 -10 15 -10 15 4 0 27 -59 21
-69 -6 -5 -13 -7 -26 -4 -30 2 -5 -2 -8 -10 -8 -7 0 -20 11 -27 25 -14 25 -53
35 -65 15 -7 -11 -54 -13 -79 -4 -19 7 -9 34 13 34 28 0 71 24 71 40 0 13 -1
13 -10 0 -8 -12 -10 -10 -10 8 0 13 4 21 9 17 5 -3 12 -1 15 4 4 5 -7 9 -24 9
-20 -1 -32 -7 -36 -21 -4 -14 -8 -16 -14 -7 -5 8 -22 11 -44 8 -23 -2 -37 1
-40 9 -3 7 -11 12 -17 11 -6 -2 -14 3 -17 11 -3 8 0 11 7 7 14 -9 15 36 0 51
-16 16 -49 4 -49 -19 0 -15 -5 -18 -20 -13 -12 4 -27 2 -35 -5 -7 -6 -21 -10
-31 -8 -19 3 -39 -47 -23 -58 15 -9 10 -24 -7 -24 -10 0 -13 -6 -9 -19 3 -12
0 -21 -10 -25 -22 -8 -18 -26 5 -26 24 0 88 39 112 69 10 12 25 21 33 21 21 0
19 -38 -2 -42 -15 -3 -15 -5 3 -10 27 -7 39 1 48 29 5 16 2 23 -11 26 -10 3 2
4 27 3 48 -3 47 1 33 -68 -4 -20 -11 -28 -27 -28 -29 0 -53 -15 -34 -22 18 -7
88 3 88 12 0 4 19 8 43 9 23 2 55 3 71 4 23 2 29 -3 32 -21 3 -19 1 -22 -15
-17 -16 5 -18 2 -14 -14 3 -12 9 -18 14 -16 4 3 7 -3 6 -14 0 -11 -5 -17 -9
-15 -4 3 -8 0 -8 -6 0 -6 -5 -8 -12 -3 -20 12 -48 14 -48 3 0 -6 -6 -10 -13
-10 -8 0 -27 -11 -43 -25 -19 -17 -35 -23 -51 -19 -18 5 -23 2 -23 -14 0 -11
6 -22 13 -25 10 -3 10 -9 0 -26 -7 -11 -13 -23 -13 -26 0 -3 25 -4 55 -4 33 1
55 6 55 13 0 7 3 6 8 -2 13 -19 443 -13 450 7 3 8 1 11 -4 8 -16 -10 -94 -11
-91 -2 2 11 16 14 75 18 30 1 41 6 37 15 -3 8 -5 15 -5 17 0 2 -16 -3 -35 -11
-21 -8 -35 -10 -35 -4 0 5 6 10 14 10 8 0 16 5 18 10 4 13 31 14 71 4 21 -5
27 -3 25 7 -2 7 7 15 19 17 17 3 20 -1 16 -17 -3 -12 -1 -21 6 -21 6 0 11 4
11 9 0 5 9 13 21 16 11 4 18 9 15 12 -9 9 27 32 51 33 12 0 25 -4 28 -10 3 -5
18 -10 33 -11 26 0 26 -1 4 -9 -12 -5 -29 -7 -37 -4 -11 5 -13 2 -9 -10 5 -13
14 -15 34 -11 32 7 51 -11 23 -22 -10 -4 -24 -13 -31 -20 -16 -15 -58 -17 -67
-3 -3 6 1 10 9 10 18 0 20 8 7 29 -7 11 -12 11 -32 -2 -13 -9 -41 -19 -62 -22
-39 -8 -47 -31 -9 -29 12 0 19 -3 16 -8 -3 -4 -18 -8 -34 -8 -22 0 -28 4 -24
15 4 8 1 15 -5 15 -6 0 -11 -4 -11 -10 0 -5 -7 -10 -16 -10 -8 0 -12 -5 -9
-10 4 -6 51 -9 115 -8 60 0 107 5 104 10 -3 4 0 8 5 8 6 0 11 -4 11 -10 0 -5
21 -10 48 -10 33 0 43 3 32 10 -20 12 -12 17 42 22 36 4 45 2 41 -8 -3 -8 -1
-14 5 -14 6 0 16 -2 24 -5 8 -3 18 6 26 24 13 29 45 41 115 41 16 0 26 4 22
10 -7 12 -114 2 -131 -11 -7 -6 -16 -4 -23 5 -18 21 23 43 46 25 12 -11 17
-10 24 4 6 10 22 17 37 17 16 0 34 6 41 12 11 11 13 9 8 -9 -5 -21 -1 -23 30
-23 27 0 34 -3 29 -15 -3 -9 0 -15 10 -15 11 0 13 6 9 20 -6 17 -3 19 17 11
13 -5 22 -14 21 -20 -2 -6 4 -11 12 -11 9 0 21 -11 27 -25 6 -14 18 -25 25
-25 8 0 11 5 7 11 -5 8 -1 8 14 0 12 -6 24 -16 27 -21 4 -6 62 -10 141 -9 117
0 136 2 141 17 12 32 44 66 75 79 36 16 51 17 43 3 -3 -6 -1 -10 4 -10 6 0 11
5 11 10 0 6 11 3 25 -6 29 -19 31 -32 8 -50 -26 -19 -35 -17 -28 6 4 11 2 20
-4 20 -6 0 -11 -4 -11 -10 0 -5 -6 -7 -14 -4 -8 3 -17 1 -20 -4 -3 -6 -15 -8
-26 -5 -12 3 -22 -1 -26 -11 -3 -9 -10 -14 -14 -11 -4 3 -11 -2 -14 -10 -5
-14 24 -15 239 -15 145 1 245 5 245 11 0 5 5 9 11 9 5 0 7 -5 4 -10 -8 -13
168 -9 200 4 16 6 17 6 5 -3 -11 -8 3 -11 57 -11 49 0 72 4 70 11 -1 6 4 14
10 16 7 3 13 -2 13 -11 0 -13 11 -16 58 -15 36 0 50 3 38 8 -18 7 -18 8 -2 14
24 10 26 9 26 -8 0 -11 13 -15 53 -15 49 0 53 2 55 25 1 13 -5 28 -12 32 -9 5
-12 18 -9 35 l5 27 42 -24 c50 -28 55 -57 12 -65 -17 -3 -29 -9 -28 -15 1 -6
69 -11 172 -13 l170 -2 0 69 c0 64 -3 73 -27 96 -15 14 -23 25 -16 25 6 0 9 9
6 21 -5 18 -3 20 17 14 15 -5 21 -3 18 5 -2 6 -8 11 -13 10 -5 -1 -12 7 -16
17 -7 17 -8 17 -8 -1 -1 -11 -6 -16 -15 -13 -7 3 -13 0 -12 -6 0 -7 -2 -13 -6
-14 -21 -7 -37 0 -77 37 -45 41 -67 51 -57 25 4 -11 -2 -15 -23 -15 -20 0 -30
6 -34 20 -5 21 -32 26 -56 11 -16 -11 -6 -31 16 -31 12 0 13 -3 4 -14 -11 -13
-15 -12 -32 2 -23 20 -201 113 -206 108 -5 -5 81 -82 98 -88 8 -3 11 -8 7 -12
-3 -4 -26 2 -50 15 -58 29 -72 41 -58 49 12 8 -269 205 -378 265 -42 23 -121
70 -175 104 -95 60 -149 81 -297 115 -31 7 -70 21 -87 30 -38 19 -205 76 -224
76 -8 0 -36 11 -64 24 -39 19 -53 22 -64 13 -11 -9 -6 -13 25 -20 62 -12 52
-17 -27 -13 -85 5 -144 25 -112 38 12 6 9 7 -10 3 -16 -3 -35 -1 -43 6 -11 9
-17 9 -29 -1 -8 -6 -20 -8 -26 -4 -8 4 -9 3 -5 -4 9 -15 -9 -15 -51 0 -28 10
-36 10 -42 -1 -5 -7 -12 -12 -17 -12 -5 1 -9 -5 -9 -11 0 -7 -13 -15 -30 -18
-41 -7 -178 7 -244 26 -29 8 -60 13 -68 10 -8 -3 -12 -2 -9 3 7 11 -39 13
-174 10 -69 -2 -89 2 -83 17 3 8 0 14 -7 14 -6 0 -9 8 -5 19 4 14 -7 24 -57
50 -35 17 -90 47 -123 66 -33 19 -66 35 -72 35 -11 0 -88 51 -133 87 -69 57
-109 97 -104 104 3 5 0 9 -6 9 -15 0 -140 127 -140 143 0 6 -14 27 -31 45 -16
17 -27 37 -24 42 6 10 -34 77 -48 78 -4 0 -11 2 -15 4 -10 4 -52 96 -52 114 0
8 -9 36 -21 61 -22 49 -25 69 -14 96 4 10 3 17 -3 17 -6 0 -12 -6 -15 -12 -3
-9 -11 -4 -23 12 -25 33 -32 56 -33 114 -1 48 -1 48 -24 33 -31 -20 -45 -10
-49 33 -2 20 -8 34 -15 33 -6 -1 -17 12 -23 30 -44 114 -62 164 -66 182 -5 22
25 67 33 48 6 -16 63 4 63 22 0 11 -7 12 -32 4 -18 -6 -41 -15 -51 -20 -22
-12 -104 -23 -162 -21 -22 0 -53 1 -69 1 -16 0 -33 6 -38 13 -6 10 -13 7 -28
-11 -16 -18 -20 -20 -20 -7 0 26 30 66 107 141 69 68 72 72 67 110 -6 50 -8
51 -34 25 -12 -12 -24 -19 -27 -16 -9 9 7 76 19 76 6 0 8 9 5 20 -3 11 -1 20
3 20 5 0 10 15 12 33 2 24 8 33 26 35 16 3 22 -2 22 -16 0 -11 3 -28 7 -37 5
-15 8 -15 24 6 l19 24 0 -31 c0 -34 6 -45 24 -38 7 3 10 23 9 52 l-3 47 15
-30 c7 -16 12 -37 10 -45 -3 -8 -1 -21 4 -29 7 -10 12 -7 23 15 8 18 21 29 33
29 14 0 20 7 20 23 0 12 5 26 11 30 5 4 17 23 26 42 24 51 64 96 71 79 4 -11
9 -10 23 5 11 10 13 16 7 12 -20 -11 -15 12 6 31 11 9 18 20 16 24 -3 4 2 12
10 19 12 10 15 9 15 -4 0 -10 4 -15 9 -12 5 4 11 1 13 -5 2 -6 23 -11 46 -12
47 -2 46 -1 31 -30 l-11 -22 20 20 c51 51 92 71 92 45 0 -5 -6 -10 -13 -10 -8
0 -22 -9 -32 -20 -22 -24 -8 -26 23 -4 13 9 30 13 39 10 14 -6 14 -8 -3 -20
-10 -8 -16 -18 -12 -21 4 -4 20 7 36 24 21 23 40 33 68 36 29 3 34 1 21 -6 -9
-6 -17 -16 -17 -24 0 -8 -8 -18 -17 -24 -10 -5 -14 -13 -10 -18 5 -4 14 0 21
10 7 9 16 17 20 17 4 0 14 7 23 15 8 8 18 13 23 10 5 -3 20 -1 35 5 17 7 24 7
20 0 -3 -6 0 -10 7 -10 7 -1 0 -7 -17 -15 -23 -10 -25 -13 -8 -11 11 1 27 7
35 12 32 26 40 27 33 5 -5 -18 -1 -21 34 -27 23 -4 41 -10 41 -15 0 -5 11 -9
24 -9 27 0 44 -29 24 -42 -8 -5 -2 -8 17 -8 22 0 26 -3 15 -9 -8 -6 -27 -7
-42 -4 -17 3 -28 1 -28 -5 0 -6 25 -16 56 -22 35 -7 52 -15 44 -20 -8 -5 -9
-9 -1 -14 6 -4 16 -4 22 0 6 3 15 1 19 -5 4 -7 25 -19 46 -26 26 -9 32 -15 19
-16 -28 -2 -27 -2 -55 6 -22 7 -23 6 -11 -9 12 -14 11 -16 -5 -17 -18 0 -18
-1 -1 -8 17 -6 17 -8 3 -20 -8 -7 -20 -9 -27 -5 -7 4 -10 2 -7 -7 3 -8 13 -16
23 -17 9 -2 15 0 11 6 -3 5 3 12 14 15 13 3 18 10 14 21 -4 10 -1 16 7 16 18
-1 59 -35 59 -49 0 -6 8 -11 17 -11 9 0 14 -3 10 -6 -10 -10 -47 7 -47 22 0
16 -16 19 -25 4 -3 -5 -1 -10 5 -10 7 0 10 -7 6 -15 -4 -11 1 -15 19 -15 14 0
25 -4 25 -10 0 -5 9 -10 20 -10 11 0 43 -9 71 -19 28 -11 57 -17 64 -15 7 3
16 0 21 -7 4 -7 3 -10 -4 -6 -12 8 -42 -2 -42 -14 0 -4 13 -16 29 -25 17 -10
28 -21 26 -25 -3 -4 3 -9 13 -13 9 -3 42 -22 72 -41 30 -19 57 -30 58 -25 2 6
8 10 14 10 6 0 7 -7 4 -16 -3 -8 -2 -12 4 -9 5 3 30 -18 57 -46 26 -29 54 -57
61 -63 7 -6 21 -18 30 -27 9 -9 32 -24 49 -33 18 -9 43 -30 55 -46 12 -17 27
-30 33 -30 10 0 35 -40 35 -56 0 -8 -90 65 -131 105 -19 20 -50 44 -68 54 -18
9 -35 26 -38 37 -3 11 -11 19 -17 18 -7 -2 -33 18 -59 45 -50 50 -94 64 -84
26 4 -14 2 -19 -8 -15 -7 2 -15 2 -18 -1 -12 -12 77 -78 93 -68 5 3 12 0 16
-6 4 -8 3 -9 -4 -5 -7 4 -12 2 -12 -3 0 -10 22 -16 44 -12 5 1 21 -10 37 -24
15 -15 29 -25 31 -24 1 2 13 -3 25 -12 15 -11 19 -19 12 -29 -11 -18 -12 -31
-1 -28 4 2 18 -8 31 -21 18 -18 25 -20 31 -11 11 18 63 -4 98 -42 15 -16 37
-34 50 -39 22 -9 31 -29 12 -29 -5 0 -10 3 -10 8 0 8 -61 44 -66 39 -2 -2 12
-19 31 -38 19 -19 35 -40 35 -46 0 -7 5 -13 10 -13 6 0 10 -7 10 -15 0 -13 -4
-14 -20 -5 -17 9 -20 8 -20 -7 0 -10 -7 -27 -15 -37 -21 -28 -19 -34 18 -41
40 -9 114 -44 178 -85 26 -18 52 -29 58 -26 5 3 15 -1 22 -10 10 -13 10 -17
-2 -25 -19 -12 -66 -11 -90 1 -15 9 -19 7 -19 -5 0 -15 -2 -15 -15 -1 -23 22
-106 57 -129 54 -11 -2 -27 -16 -37 -33 -23 -39 -23 -44 -1 -44 23 -1 158 -28
202 -41 49 -14 53 -13 29 11 -11 11 -18 23 -15 27 8 8 66 -49 66 -65 0 -7 6
-10 16 -6 10 3 22 0 28 -8 15 -18 56 -42 63 -36 2 3 -3 20 -12 39 l-17 33 38
-36 c50 -47 80 -62 109 -55 17 4 22 11 18 26 -9 33 5 23 27 -19 11 -22 16 -42
12 -45 -4 -3 -28 0 -51 5 -24 5 -46 8 -48 5 -3 -3 4 -18 16 -35 12 -16 18 -36
15 -45 -5 -13 -10 -13 -42 2 -21 9 -49 25 -64 35 -16 10 -32 15 -38 12 -6 -3
-31 4 -58 18 -65 32 -138 67 -266 127 l-110 51 -20 -21 c-26 -26 -15 -37 74
-76 36 -15 76 -35 90 -45 14 -9 45 -22 70 -29 25 -7 51 -17 57 -22 7 -6 24 -7
37 -4 15 4 26 1 28 -6 3 -7 19 -11 40 -10 20 1 39 -2 42 -7 4 -5 27 -20 51
-32 25 -12 45 -26 45 -30 0 -5 8 -6 18 -2 9 3 14 3 10 -2 -8 -8 34 -45 51 -45
7 0 23 -7 36 -16 21 -13 25 -14 25 -2 0 8 -6 20 -12 28 -7 7 5 -1 27 -18 22
-18 44 -32 50 -32 5 0 23 -7 38 -15 38 -20 59 -11 47 21 -6 15 -6 24 0 24 9 0
13 -13 25 -72 3 -20 -19 -43 -34 -34 -6 4 -15 -3 -21 -15 -10 -18 -18 -21 -51
-16 -21 3 -39 1 -39 -4 0 -5 -10 -14 -23 -20 -13 -6 -29 -20 -36 -31 -19 -31
2 -40 79 -34 54 3 62 2 47 -9 -20 -15 -21 -22 -4 -28 6 -2 3 -2 -8 0 -11 2
-42 6 -70 9 l-50 5 65 -26 c36 -14 96 -32 134 -40 38 -9 74 -19 80 -24 16 -12
120 -41 149 -41 14 0 29 -5 32 -10 3 -5 3 -10 0 -10 -13 0 -162 32 -190 41
-267 84 -413 119 -565 133 -51 5 -53 4 -30 -9 14 -8 35 -14 48 -15 13 0 20 -4
17 -10 -4 -6 14 -10 47 -10 30 0 59 -5 65 -11 7 -7 22 -13 35 -14 37 -4 112
-26 124 -36 6 -5 20 -7 30 -3 14 4 15 3 5 -4 -18 -13 3 -25 29 -17 13 4 35 -4
66 -24 25 -17 48 -31 51 -31 3 0 22 -12 42 -27 20 -16 40 -27 44 -25 5 1 6 -2
3 -7 -11 -16 38 -45 259 -152 148 -72 357 -208 520 -340 153 -123 230 -164
260 -139 12 10 21 10 44 0 16 -6 39 -10 50 -8 20 3 18 7 -21 48 -24 25 -59 56
-77 70 -19 14 -44 34 -56 45 -13 11 -40 30 -61 41 -21 12 -40 27 -42 33 -7 21
39 11 62 -14 28 -30 39 -23 21 12 -16 31 -11 45 12 36 11 -4 14 -3 9 5 -4 7
-1 12 9 12 9 0 24 8 33 17 16 15 15 16 -18 11 -19 -4 -44 -10 -54 -14 -14 -5
-17 -4 -12 4 4 7 1 12 -8 12 -8 0 -19 6 -23 14 -9 16 -91 24 -112 11 -9 -5
-12 -4 -7 3 8 13 -30 36 -47 28 -7 -2 -5 -5 4 -5 23 -1 33 -30 13 -38 -20 -7
-24 -2 -31 40 -5 32 -4 34 20 32 14 -2 31 -6 37 -10 7 -4 14 2 17 14 5 19 7
19 31 7 24 -13 27 -12 39 11 13 26 9 48 -8 37 -5 -3 -7 -9 -4 -14 8 -12 -13
-23 -27 -14 -7 4 -24 9 -38 10 -14 1 -19 0 -12 -3 17 -7 15 -33 -3 -33 -16 0
-16 1 -20 38 -1 13 -10 29 -20 36 -11 8 -14 15 -8 19 6 4 8 18 5 32 -2 14 1
32 8 40 16 19 14 20 -28 28 -30 6 -32 5 -26 -18 5 -19 2 -25 -10 -25 -9 0 -16
-8 -16 -17 -1 -15 -4 -14 -20 6 -19 22 -20 22 -20 3 0 -11 6 -23 13 -26 6 -3
0 -3 -14 0 -15 3 -30 1 -33 -5 -9 -14 -76 -15 -76 -1 0 5 -6 7 -14 4 -14 -5
-31 22 -18 30 4 2 24 -4 45 -14 l37 -18 0 29 c0 22 -5 29 -20 29 -11 0 -19 6
-17 13 1 7 -7 11 -24 9 -18 -1 -29 5 -38 22 -19 35 -5 51 26 31 21 -14 26 -15
36 -2 16 19 45 28 52 17 3 -5 12 -7 20 -3 11 4 17 -4 21 -26 4 -18 12 -30 18
-28 6 2 10 12 8 22 -3 14 1 16 20 11 13 -4 32 -9 43 -11 11 -2 22 -4 25 -5 3
-1 17 -1 32 0 14 1 29 -3 33 -9 12 -21 25 -11 19 14 -4 15 -1 32 6 40 14 17
60 21 60 5 0 -5 6 -10 13 -10 23 0 67 -25 67 -37 0 -8 -14 -14 -32 -14 l-33
-1 30 -8 c17 -4 62 -8 100 -9 62 -1 68 -3 52 -15 -12 -9 -14 -16 -8 -21 6 -3
11 -1 11 4 0 11 21 10 50 -2 21 -8 38 -10 85 -7 22 1 31 5 21 7 -15 4 -16 7
-5 14 10 6 10 9 2 9 -19 0 -16 37 4 44 9 4 21 2 26 -3 5 -5 16 -7 25 -4 12 5
14 0 10 -25 -2 -18 -3 -30 0 -27 2 2 11 -2 19 -10 8 -8 19 -15 24 -15 5 0 9
549 9 1370 l0 1370 -2400 0 -2400 0 0 -1350z m3920 990 c0 -6 67 -11 167 -12
l168 -3 13 -28 c7 -15 22 -33 33 -40 23 -14 25 -37 4 -37 -11 0 -15 -11 -15
-40 0 -29 4 -40 15 -40 9 0 15 -9 15 -24 0 -14 10 -33 24 -43 22 -18 23 -20 9
-56 -8 -20 -19 -37 -24 -37 -5 0 -9 -4 -9 -9 0 -20 -62 -71 -86 -71 -21 0 -24
-4 -24 -40 0 -36 -2 -40 -25 -40 -19 0 -25 -5 -25 -22 0 -29 -28 -58 -57 -58
-20 0 -23 -5 -23 -40 l0 -40 40 0 40 0 0 -40 c0 -22 4 -40 9 -40 5 0 16 -18
25 -40 9 -22 23 -40 31 -40 11 0 15 -12 15 -50 0 -43 -4 -55 -27 -75 -24 -21
-26 -26 -13 -34 13 -9 12 -14 -8 -33 -19 -20 -24 -21 -33 -8 -8 13 -13 11 -34
-12 -13 -16 -29 -28 -35 -28 -5 0 -10 -7 -10 -15 0 -12 -16 -15 -80 -15 -64 0
-80 3 -80 15 0 8 -7 15 -15 15 -11 0 -15 11 -15 40 0 22 -4 40 -10 40 -5 0
-10 18 -10 40 0 23 5 40 11 40 14 0 2 152 -12 161 -14 8 19 79 36 79 11 0 15
11 15 40 0 29 -4 40 -15 40 -12 0 -15 16 -15 80 0 79 0 80 -25 80 -24 0 -25
-3 -25 -55 l0 -56 -25 18 c-18 14 -24 27 -25 56 0 20 5 37 10 37 6 0 10 18 10
40 0 29 -4 40 -15 40 -12 0 -15 16 -15 80 0 47 -4 80 -10 80 -5 0 -10 -7 -10
-16 0 -14 -3 -14 -15 -4 -9 8 -15 30 -15 56 0 32 4 44 15 44 9 0 15 -9 15 -25
0 -14 5 -25 10 -25 10 0 12 7 15 45 0 11 9 46 19 78 l17 57 50 0 c27 0 49 -4
49 -10z m-2616 -156 c-11 -7 -24 -18 -31 -24 -16 -14 -28 -13 -42 4 -15 18 11
40 37 32 12 -4 25 0 33 10 10 12 14 13 18 3 2 -7 -5 -18 -15 -25z m-170 5 c-9
-15 -34 -10 -28 5 3 8 12 12 20 9 8 -3 11 -9 8 -14z m69 6 c-3 -9 -8 -14 -10
-11 -3 3 -2 9 2 15 9 16 15 13 8 -4z m-193 -39 c-25 -24 -47 -42 -50 -39 -6 5
72 81 85 82 6 0 -10 -19 -35 -43z m457 38 c-3 -3 -12 -4 -19 -1 -8 3 -5 6 6 6
11 1 17 -2 13 -5z m-37 -18 c0 -11 -19 -15 -25 -6 -3 5 1 10 9 10 9 0 16 -2
16 -4z m-341 -15 c9 -6 4 -10 -18 -13 -24 -4 -28 -2 -20 9 13 15 19 16 38 4z
m26 -20 c-3 -6 -11 -11 -16 -11 -5 0 -4 6 3 14 14 16 24 13 13 -3z m-165 5 c0
-2 -7 -7 -16 -10 -8 -3 -12 -2 -9 4 6 10 25 14 25 6z m130 -14 c0 -5 -18 -23
-40 -41 -22 -18 -38 -36 -35 -42 9 -14 -5 -11 -20 5 -12 11 -11 16 8 33 48 43
87 63 87 45z m-196 -24 c-4 -6 -9 -23 -11 -37 -9 -76 -16 -101 -28 -101 -8 0
-16 -8 -18 -17 -4 -13 -5 -12 -6 5 0 12 6 25 14 28 8 4 15 15 15 26 0 11 5 29
11 40 6 11 7 18 1 14 -5 -3 -15 -19 -22 -36 -7 -16 -16 -30 -21 -30 -14 0 -11
16 6 30 8 7 15 21 15 32 0 10 7 21 15 24 8 4 15 12 15 20 0 8 5 14 11 14 5 0
7 -5 3 -12z m31 -8 c-3 -5 -11 -10 -16 -10 -6 0 -7 5 -4 10 3 6 11 10 16 10 6
0 7 -4 4 -10z m5 -30 c-6 -11 -15 -20 -20 -20 -14 0 -12 6 6 24 21 22 27 20
14 -4z m34 -8 c3 -5 -1 -9 -9 -9 -8 0 -12 4 -9 9 3 4 7 8 9 8 2 0 6 -4 9 -8z
m-50 -57 c-4 -17 -10 -23 -16 -17 -6 6 -5 17 3 30 17 27 22 22 13 -13z m59
-15 c-6 -21 -33 -49 -33 -33 0 5 3 13 8 17 4 4 8 12 8 17 3 17 4 19 13 19 5 0
7 -9 4 -20z m917 10 c0 -5 -7 -10 -16 -10 -8 0 -12 5 -9 10 3 6 10 10 16 10 5
0 9 -4 9 -10z m-880 -10 c0 -5 -5 -10 -11 -10 -5 0 -7 5 -4 10 3 6 8 10 11 10
2 0 4 -4 4 -10z m-60 -66 c0 -8 -4 -12 -10 -9 -5 3 -10 10 -10 16 0 5 5 9 10
9 6 0 10 -7 10 -16z m1057 -67 c2 -19 1 -19 -20 -1 -12 10 -24 20 -26 21 -3 2
7 2 20 1 17 -1 26 -9 26 -21z m63 -21 c0 -6 13 -20 29 -31 17 -11 28 -21 26
-23 -7 -7 -105 61 -100 69 7 11 45 -1 45 -15z m197 -171 c49 -38 63 -55 45
-55 -5 0 -33 23 -63 51 -63 60 -56 61 18 4z m334 -193 c13 -34 -18 -28 -36 8
-15 29 -15 29 7 21 12 -4 25 -17 29 -29z m59 -62 c0 12 3 12 16 -2 9 -8 14
-23 12 -33 -3 -15 -6 -15 -30 5 -16 12 -28 29 -28 38 0 13 2 13 15 -4 11 -14
14 -15 15 -4z m1190 -55 c0 -8 -7 -15 -16 -15 -14 0 -14 3 -4 15 7 8 14 15 16
15 2 0 4 -7 4 -15z m-1325 -16 c11 -16 1 -19 -13 -3 -7 8 -8 14 -3 14 5 0 13
-5 16 -11z m235 -53 c0 -6 -9 0 -20 14 -26 33 -25 52 0 21 11 -13 20 -28 20
-35z m1090 -1 c0 -21 -5 -25 -31 -25 l-31 0 7 -77 c4 -43 11 -79 15 -81 8 -3
-21 -96 -33 -109 -4 -3 -7 -24 -7 -45 0 -21 -4 -38 -9 -38 -5 0 -12 -9 -16
-20 -3 -11 -19 -33 -36 -49 -16 -16 -29 -37 -29 -45 0 -12 -11 -16 -45 -16
l-45 0 0 -40 c0 -22 5 -40 10 -40 18 0 12 -121 -7 -142 -15 -17 -15 -18 0 -18
10 0 17 -6 18 -12 0 -10 2 -10 6 0 2 6 13 12 23 12 19 0 32 -35 36 -95 3 -64
3 -65 31 -65 34 0 63 -26 63 -57 0 -12 5 -23 10 -23 6 0 10 -18 10 -40 0 -28
-4 -40 -14 -40 -9 0 -13 -8 -10 -22 2 -13 1 -17 -2 -9 -5 11 -8 11 -15 0 -7
-12 -9 -12 -9 -1 0 15 -39 51 -55 52 -5 0 -30 14 -55 30 -25 16 -53 30 -62 30
-10 0 -18 5 -18 11 0 7 -25 40 -56 75 -31 35 -53 64 -50 64 3 0 -3 20 -14 45
-12 27 -15 45 -8 45 7 0 7 5 -1 14 -7 8 -13 27 -14 43 -2 21 -8 29 -25 31 -16
2 -22 8 -18 18 3 8 1 24 -4 36 -7 19 -9 20 -9 4 -1 -11 -6 -16 -15 -13 -8 3
-16 2 -18 -4 -2 -5 -9 0 -16 11 -7 12 -8 20 -2 20 5 0 10 -5 10 -11 0 -5 5 -7
11 -4 7 5 4 13 -7 26 -9 10 -21 16 -26 13 -5 -3 -7 5 -5 18 2 12 2 17 0 11 -3
-7 -9 -13 -14 -13 -5 0 -9 6 -9 13 1 17 29 65 30 50 1 -52 60 50 60 104 0 18
5 33 10 33 6 0 10 10 10 22 0 14 18 39 47 65 37 35 54 43 84 43 32 0 46 9 109
70 40 39 78 70 85 70 8 0 22 11 33 25 11 14 25 25 31 25 6 0 11 11 11 25 0 23
4 25 40 25 36 0 40 -2 40 -25z m-1072 -94 c27 -19 33 -21 52 -21 5 0 15 -10
21 -22 11 -20 8 -20 -37 7 -51 29 -84 55 -70 55 4 0 20 -9 34 -19z m-2128 -26
c0 -11 11 -15 40 -15 22 0 40 -4 40 -8 0 -4 14 -13 30 -19 17 -6 29 -17 28
-24 -2 -7 10 -19 25 -27 15 -7 33 -22 40 -33 6 -10 17 -19 24 -19 8 0 13 -15
13 -40 l0 -40 -40 0 c-29 0 -40 -4 -40 -15 0 -11 -11 -15 -40 -15 -22 0 -40
-4 -40 -10 0 -5 -18 -10 -40 -10 -38 0 -40 -2 -40 -30 0 -29 -2 -30 -44 -30
-26 0 -48 6 -56 15 -7 8 -21 15 -31 15 -11 0 -19 6 -20 13 0 10 -2 10 -6 0 -2
-8 -22 -13 -44 -13 -30 0 -39 -4 -39 -17 0 -14 -2 -15 -12 -4 -10 11 -10 14 0
18 19 7 14 23 -13 45 -22 17 -25 28 -25 77 0 46 4 62 21 77 17 15 22 16 29 4
7 -12 12 -11 29 4 12 11 21 24 21 30 1 16 32 49 65 68 40 22 125 24 125 3z
m185 -55 c3 -5 2 -10 -4 -10 -5 0 -13 5 -16 10 -3 6 -2 10 4 10 5 0 13 -4 16
-10z m-505 -130 c0 -22 -4 -40 -10 -40 -5 0 -10 18 -10 40 0 22 5 40 10 40 6
0 10 -18 10 -40z m2660 -22 c0 -18 -4 -19 -37 -13 -21 3 -45 14 -53 22 -16 17
-15 17 33 -2 14 -6 20 -2 24 14 4 17 8 19 19 10 8 -6 14 -20 14 -31z m136 -38
c0 -12 -4 -16 -9 -11 -5 5 -6 14 -3 20 10 15 12 14 12 -9z m134 -134 c0 -3 -4
-8 -10 -11 -5 -3 -10 -1 -10 4 0 6 5 11 10 11 6 0 10 -2 10 -4z m89 -156 c11
-24 11 -24 -3 -6 -9 11 -16 24 -16 30 0 12 5 7 19 -24z m50 -79 c-3 -7 -13 3
-23 21 l-19 33 23 -21 c12 -12 21 -27 19 -33z m-214 19 c3 -5 1 -10 -4 -10 -6
0 -11 5 -11 10 0 6 2 10 4 10 3 0 8 -4 11 -10z m253 -169 c3 -8 -1 -12 -9 -9
-7 2 -15 10 -17 17 -3 8 1 12 9 9 7 -2 15 -10 17 -17z m69 -207 c-3 -3 -12 -4
-19 -1 -8 3 -5 6 6 6 11 1 17 -2 13 -5z m-1847 -34 c0 -11 -48 -25 -57 -16 -4
3 1 6 10 6 10 0 17 5 17 10 0 6 7 10 15 10 8 0 15 -4 15 -10z m93 -52 c-2 -5
6 -8 19 -8 20 -1 21 -2 5 -11 -11 -7 -35 -7 -74 0 -31 6 -58 11 -60 11 -2 0
-3 9 -3 19 0 18 17 30 48 37 8 1 17 5 20 9 8 7 52 -48 45 -57z m2017 53 c0 -6
-4 -13 -10 -16 -5 -3 -10 1 -10 9 0 9 5 16 10 16 6 0 10 -4 10 -9z m-16 -27
c9 -3 16 -14 15 -23 0 -10 -2 -11 -6 -3 -6 14 -33 16 -33 2 0 -5 5 -10 10 -10
6 0 10 -5 10 -12 0 -6 -7 -4 -18 5 -10 10 -24 17 -30 17 -21 0 -13 18 11 23
12 2 23 5 24 6 1 0 8 -2 17 -5z m-2141 -18 c4 -10 0 -12 -14 -9 -10 3 -16 9
-13 14 8 13 21 11 27 -5z m2192 4 c3 -6 -1 -7 -9 -4 -18 7 -21 14 -7 14 6 0
13 -4 16 -10z m-2245 -20 c0 -5 -2 -10 -4 -10 -3 0 -8 5 -11 10 -3 6 -1 10 4
10 6 0 11 -4 11 -10z m300 -10 c0 -5 -2 -10 -4 -10 -3 0 -8 5 -11 10 -3 6 -1
10 4 10 6 0 11 -4 11 -10z m60 0 c0 -5 -6 -10 -14 -10 -8 0 -18 5 -21 10 -3 6
3 10 14 10 12 0 21 -4 21 -10z m1950 0 c0 -13 -11 -13 -30 0 -12 8 -11 10 8
10 12 0 22 -4 22 -10z m740 -10 c0 -5 7 -10 15 -10 17 0 18 -2 9 -24 -8 -22
-17 -20 -48 9 -32 30 -33 35 -1 35 14 0 25 -4 25 -10z m-106 -15 c6 -17 -19
-21 -29 -5 -11 18 -23 11 -18 -10 4 -14 0 -20 -11 -20 -10 0 -14 5 -11 11 4 6
-1 17 -11 24 -17 13 -15 14 27 15 33 0 49 -5 53 -15z m-3209 -5 c3 -5 1 -10
-4 -10 -6 0 -11 5 -11 10 0 6 2 10 4 10 3 0 8 -4 11 -10z m-730 -10 c3 -5 -1
-10 -10 -10 -9 0 -13 5 -10 10 3 6 8 10 10 10 2 0 7 -4 10 -10z m1197 -12 c-7
-7 -12 -8 -12 -2 0 14 12 26 19 19 2 -3 -1 -11 -7 -17z m1883 8 c17 -1 48 -10
70 -20 149 -65 185 -82 185 -89 0 -10 -37 0 -150 40 -52 19 -111 39 -130 45
-19 6 -44 17 -55 25 -19 14 -18 15 15 8 19 -3 49 -7 65 -9z m-1813 -23 l3 -28
23 23 c28 28 34 28 26 -3 -4 -16 -2 -25 6 -25 6 0 8 -4 5 -10 -3 -5 -1 -10 5
-10 7 0 9 8 5 20 -7 22 -5 23 19 14 18 -7 22 -59 5 -70 -6 -3 -16 -1 -22 5 -6
6 -19 11 -28 11 -9 0 -34 16 -55 35 -21 19 -33 35 -26 35 6 0 9 7 6 15 -4 9 0
15 9 15 10 0 17 -11 19 -27z m2824 -20 c-14 -14 -23 4 -13 27 l10 25 5 -23 c2
-13 1 -26 -2 -29z m-4196 -33 c12 -8 12 -10 -3 -16 -9 -3 -26 -4 -37 -1 -11 3
-23 1 -26 -4 -7 -13 -24 -1 -24 17 0 16 65 20 90 4z m310 0 c0 -5 -5 -10 -11
-10 -5 0 -7 5 -4 10 3 6 8 10 11 10 2 0 4 -4 4 -10z m-530 -20 c0 -5 -2 -10
-4 -10 -3 0 -8 5 -11 10 -3 6 -1 10 4 10 6 0 11 -4 11 -10z m2365 0 c3 -5 1
-10 -4 -10 -6 0 -11 5 -11 10 0 6 2 10 4 10 3 0 8 -4 11 -10z m323 4 c33 -9
27 -21 -8 -16 -16 2 -30 8 -30 13 0 10 7 11 38 3z m-2712 -29 c15 -14 23 -25
18 -25 -4 0 -3 -5 3 -11 15 -15 4 -51 -15 -47 -11 2 -17 15 -18 36 -1 19 -7
39 -13 45 -11 11 -15 27 -7 27 3 0 17 -11 32 -25z m2457 18 c-7 -2 -19 -2 -25
0 -7 3 -2 5 12 5 14 0 19 -2 13 -5z m-773 -28 c0 -8 -4 -15 -10 -15 -5 0 -10
7 -10 15 0 8 5 15 10 15 6 0 10 -7 10 -15z m65 -6 c-4 -5 -13 -9 -22 -9 -13 0
-13 3 -3 15 13 15 35 11 25 -6z m-1800 -9 c3 -5 -1 -10 -9 -10 -9 0 -16 5 -16
10 0 6 4 10 9 10 6 0 13 -4 16 -10z m1616 -4 c-9 -11 -9 -15 1 -19 8 -4 7 -6
-4 -6 -18 -1 -24 19 -11 32 13 13 25 7 14 -7z m-1314 -2 c-3 -3 -12 -4 -19 -1
-8 3 -5 6 6 6 11 1 17 -2 13 -5z m3660 0 c-3 -3 -12 -4 -19 -1 -8 3 -5 6 6 6
11 1 17 -2 13 -5z m-3795 -45 c-3 -22 -1 -30 7 -25 7 5 11 -3 11 -24 l0 -31
-22 21 c-12 11 -36 20 -52 21 l-31 1 27 11 c14 5 31 21 37 34 15 33 28 28 23
-8z m1535 -36 c-3 -10 -5 -2 -5 17 0 19 2 27 5 18 2 -10 2 -26 0 -35z m-34 20
c-7 -2 -19 -2 -25 0 -7 3 -2 5 12 5 14 0 19 -2 13 -5z m322 -13 c3 -5 -1 -10
-9 -10 -8 0 -18 5 -21 10 -3 6 1 10 9 10 8 0 18 -4 21 -10z m2223 -139 c3 -8
-1 -12 -9 -9 -7 2 -15 10 -17 17 -3 8 1 12 9 9 7 -2 15 -10 17 -17z m-2188
-106 c-15 -29 -43 -35 -33 -7 7 20 34 44 41 37 3 -3 -1 -16 -8 -30z m1624 6
c3 -4 -6 -6 -19 -3 -14 2 -25 6 -25 8 0 8 39 4 44 -5z m-2174 -63 c0 -18 -2
-20 -9 -8 -6 8 -7 18 -5 22 9 14 14 9 14 -14z m520 -3 c0 -8 -2 -15 -4 -15 -2
0 -11 -3 -20 -6 -10 -4 -16 -1 -16 9 0 14 13 24 33 26 4 1 7 -6 7 -14z m582 0
c10 -10 -20 -80 -34 -83 -13 -3 -16 27 -9 81 1 8 35 10 43 2z m-1197 -45 c3
-5 1 -10 -4 -10 -6 0 -11 5 -11 10 0 6 2 10 4 10 3 0 8 -4 11 -10z m71 -5 c-8
-8 -18 -15 -22 -15 -3 0 -1 7 6 15 7 8 17 15 22 15 5 0 3 -7 -6 -15z m-76 -65
c0 -5 -8 -10 -17 -10 -15 0 -16 2 -3 10 19 12 20 12 20 0z m2925 -50 c17 -7
14 -9 -13 -9 -20 -1 -31 3 -27 9 7 12 13 12 40 0z m160 -19 c-14 -14 -93 -26
-80 -13 6 6 21 12 35 15 45 8 54 7 45 -2z m-1800 -51 c4 -7 11 -8 18 -1 16 13
67 2 67 -15 0 -7 -8 -12 -17 -12 -10 1 -44 -2 -75 -7 -61 -8 -68 -3 -41 27 18
20 38 23 48 8z m980 0 c3 -5 -1 -10 -10 -10 -9 0 -13 5 -10 10 3 6 8 10 10 10
2 0 7 -4 10 -10z m-1155 -10 c-12 -8 -11 -10 8 -10 15 0 22 -6 22 -19 0 -21
-36 -35 -44 -17 -2 6 -5 1 -5 -11 -1 -17 5 -23 21 -23 22 0 22 0 3 -19 -19
-19 -40 -25 -77 -22 -19 1 -26 31 -8 31 6 0 13 8 17 18 3 9 13 25 21 35 14 15
13 17 -9 18 -23 1 -22 1 6 14 37 17 69 20 45 5z m-480 -19 c0 -5 -19 -12 -41
-16 -31 -5 -38 -10 -28 -17 12 -8 11 -9 -1 -5 -18 4 -20 32 -3 32 6 0 15 3 19
8 10 10 54 9 54 -2z m1630 -8 c0 -10 -9 -29 -20 -43 l-20 -25 0 36 c0 20 3 39
7 42 13 13 33 7 33 -10z m-1493 -9 c-3 -3 -12 -4 -19 -1 -8 3 -5 6 6 6 11 1
17 -2 13 -5z m-411 -25 c3 -5 -9 -9 -25 -9 -20 0 -31 5 -31 14 0 15 46 11 56
-5z m-72 -23 c-3 -8 -12 -12 -20 -9 -8 3 -14 0 -14 -6 0 -6 5 -11 10 -11 6 0
10 -7 10 -15 0 -19 -7 -19 -27 1 -10 10 -25 13 -44 9 -31 -7 -36 -1 -16 19 17
18 37 24 74 25 24 1 31 -3 27 -13z m273 2 c-16 -10 -55 -10 -61 1 -3 5 12 8
34 7 21 0 33 -4 27 -8z m948 -9 c11 -16 1 -19 -13 -3 -7 8 -8 14 -3 14 5 0 13
-5 16 -11z m209 -14 c-6 -16 -24 -21 -24 -7 0 11 11 22 21 22 5 0 6 -7 3 -15z
m666 5 c0 -5 -4 -10 -10 -10 -5 0 -10 5 -10 10 0 6 5 10 10 10 6 0 10 -4 10
-10z m470 -20 c-6 -11 -13 -20 -15 -20 -3 0 -5 9 -5 20 0 11 7 20 15 20 13 0
14 -4 5 -20z m-2335 0 c3 -5 2 -10 -4 -10 -5 0 -13 5 -16 10 -3 6 -2 10 4 10
5 0 13 -4 16 -10z m2098 -10 c9 -11 14 -20 11 -20 -13 0 -44 21 -44 30 0 16
14 11 33 -10z m427 -6 c0 -2 -7 -4 -15 -4 -8 0 -15 4 -15 10 0 5 7 7 15 4 8
-4 15 -8 15 -10z m-2049 -7 c-1 -12 -15 -9 -19 4 -3 6 1 10 8 8 6 -3 11 -8 11
-12z m739 3 c0 -5 -4 -10 -10 -10 -5 0 -10 5 -10 10 0 6 5 10 10 10 6 0 10 -4
10 -10z m-1420 -10 c0 -5 -7 -10 -16 -10 -8 0 -12 5 -9 10 3 6 10 10 16 10 5
0 9 -4 9 -10z m2427 -6 c-3 -3 -12 -4 -19 -1 -8 3 -5 6 6 6 11 1 17 -2 13 -5z"/>
<path d="M3920 2175 c0 -11 11 -15 40 -15 29 0 40 4 40 15 0 11 -11 15 -40 15
-29 0 -40 -4 -40 -15z"/>
<path d="M3424 1490 c2 -19 6 -44 10 -55 6 -16 6 -17 -3 -5 -8 11 -11 11 -11
2 0 -22 28 -80 49 -104 18 -18 21 -19 21 -5 0 9 -4 17 -10 17 -19 0 -10 31 15
54 31 29 32 46 3 46 -30 1 -65 31 -71 61 -3 14 -4 9 -3 -11z"/>
<path d="M3740 1180 c0 -5 5 -10 10 -10 6 0 10 5 10 10 0 6 -4 10 -10 10 -5 0
-10 -4 -10 -10z"/>
<path d="M1153 2957 c-24 -11 -43 -25 -43 -29 0 -5 20 3 43 17 24 14 47 22 50
18 4 -3 7 -1 7 5 0 16 -8 15 -57 -11z"/>
<path d="M1435 2970 c3 -5 11 -10 16 -10 6 0 7 5 4 10 -3 6 -11 10 -16 10 -6
0 -7 -4 -4 -10z"/>
<path d="M1510 2965 c-14 -8 -19 -14 -11 -15 8 0 19 -7 26 -16 11 -16 18 -15
84 5 40 12 72 24 70 25 -2 2 -31 0 -63 -5 -61 -8 -89 -3 -65 12 25 15 -13 10
-41 -6z m35 -14 c3 -5 1 -12 -4 -15 -5 -3 -11 1 -15 9 -6 16 9 21 19 6z"/>
<path d="M1342 2938 c-19 -19 -14 -30 8 -18 11 6 20 15 20 20 0 14 -14 12 -28
-2z"/>
<path d="M1700 2930 c0 -10 31 -18 48 -13 22 8 13 18 -18 19 -17 1 -30 -2 -30
-6z"/>
<path d="M1220 2920 c0 -5 7 -7 15 -4 8 4 15 8 15 10 0 2 -7 4 -15 4 -8 0 -15
-4 -15 -10z"/>
<path d="M1160 2910 c-9 -6 -10 -10 -3 -10 6 0 15 5 18 10 8 12 4 12 -15 0z"/>
<path d="M1481 2904 c-40 -18 -36 -27 7 -18 18 4 32 13 32 20 0 8 -1 14 -2 13
-2 0 -18 -7 -37 -15z"/>
<path d="M1560 2910 c0 -5 7 -7 15 -4 8 4 15 8 15 10 0 2 -7 4 -15 4 -8 0 -15
-4 -15 -10z"/>
<path d="M1056 2895 c-11 -8 -17 -17 -14 -20 2 -3 13 4 23 15 21 23 18 25 -9
5z"/>
<path d="M1680 2895 c33 -19 46 -19 30 0 -7 8 -22 15 -34 15 -20 -1 -20 -2 4
-15z"/>
<path d="M1608 2893 c7 -3 16 -2 19 1 4 3 -2 6 -13 5 -11 0 -14 -3 -6 -6z"/>
<path d="M1079 2863 l-24 -28 28 24 c25 23 32 31 24 31 -2 0 -14 -12 -28 -27z"/>
<path d="M1265 2879 c-15 -6 -11 -8 18 -8 20 -1 37 1 37 3 0 9 -37 12 -55 5z"/>
<path d="M1677 2874 c-4 -4 -7 -17 -7 -28 1 -19 1 -20 11 -3 11 19 8 43 -4 31z"/>
<path d="M770 2848 c0 -9 5 -20 11 -23 17 -11 20 0 4 21 -13 17 -14 17 -15 2z"/>
<path d="M1010 2844 c0 -14 3 -14 15 -4 8 7 15 14 15 16 0 2 -7 4 -15 4 -8 0
-15 -7 -15 -16z"/>
<path d="M1632 2835 c12 -27 28 -24 28 6 0 12 -7 19 -20 19 -17 0 -18 -3 -8
-25z"/>
<path d="M1076 2819 c-14 -11 -26 -27 -26 -35 0 -8 -4 -14 -8 -14 -4 0 -13
-19 -19 -42 -10 -36 -9 -40 1 -25 14 17 32 25 21 8 -3 -6 15 -13 40 -16 58 -9
104 16 124 68 13 35 12 38 -10 57 -32 26 -89 26 -123 -1z"/>
<path d="M1340 2830 c0 -5 5 -10 10 -10 6 0 10 5 10 10 0 6 -4 10 -10 10 -5 0
-10 -4 -10 -10z"/>
<path d="M957 2803 c-11 -10 -8 -43 3 -43 6 0 10 11 10 25 0 26 -2 29 -13 18z"/>
<path d="M1835 2790 c3 -5 8 -10 11 -10 2 0 4 5 4 10 0 6 -5 10 -11 10 -5 0
-7 -4 -4 -10z"/>
<path d="M840 2761 c0 -25 6 -27 13 -6 4 8 2 17 -3 20 -6 4 -10 -3 -10 -14z"/>
<path d="M811 2754 c0 -11 3 -14 6 -6 3 7 2 16 -1 19 -3 4 -6 -2 -5 -13z"/>
<path d="M872 2739 c2 -20 -1 -23 -22 -21 -21 4 -22 2 -11 -12 13 -15 15 -15
32 0 21 19 24 39 8 50 -7 4 -9 -2 -7 -17z"/>
<path d="M941 2734 c0 -11 3 -14 6 -6 3 7 2 16 -1 19 -3 4 -6 -2 -5 -13z"/>
<path d="M1306 2668 c-9 -5 -20 -7 -23 -4 -3 3 -13 -2 -22 -11 -12 -12 -13
-17 -3 -21 7 -2 10 -8 7 -12 -3 -5 -1 -11 5 -15 9 -5 15 15 11 38 -1 4 8 3 19
-3 32 -17 48 -10 35 17 -9 17 -15 19 -29 11z"/>
<path d="M1827 2673 c-12 -11 4 -23 30 -23 15 0 36 -12 53 -30 15 -16 33 -30
39 -30 6 0 11 -4 11 -9 0 -5 11 -11 25 -13 14 -3 25 -4 25 -3 0 2 -21 16 -47
31 -41 23 -44 28 -28 35 18 6 17 8 -8 18 -16 6 -35 11 -43 11 -9 0 -23 4 -33
10 -10 5 -21 7 -24 3z"/>
<path d="M815 2651 c-3 -5 2 -11 10 -15 8 -3 17 -1 20 3 3 5 -2 11 -10 15 -8
3 -17 1 -20 -3z"/>
<path d="M1975 2651 c17 -3 28 -9 25 -13 -3 -4 5 -15 18 -23 12 -9 22 -22 22
-30 0 -8 9 -19 20 -25 25 -13 26 -30 3 -30 -15 0 -16 -2 -3 -10 8 -5 16 -6 18
-1 3 9 49 1 85 -14 17 -7 18 -6 6 12 -6 11 -19 20 -27 19 -8 0 -18 11 -22 25
-15 54 -86 101 -150 98 -23 -1 -22 -2 5 -8z"/>
<path d="M1588 2643 c7 -3 16 -2 19 1 4 3 -2 6 -13 5 -11 0 -14 -3 -6 -6z"/>
<path d="M1968 2633 c6 -2 18 -2 25 0 6 3 1 5 -13 5 -14 0 -19 -2 -12 -5z"/>
<path d="M1180 2620 c0 -5 -12 -10 -26 -10 -14 0 -23 -4 -19 -10 8 -13 75 -13
95 0 17 11 13 15 -22 24 -17 4 -28 2 -28 -4z"/>
<path d="M1705 2620 c-3 -5 -1 -10 4 -10 6 0 11 5 11 10 0 6 -2 10 -4 10 -3 0
-8 -4 -11 -10z"/>
<path d="M1970 2616 c0 -2 7 -7 16 -10 8 -3 12 -2 9 4 -6 10 -25 14 -25 6z"/>
<path d="M1320 2598 c0 -7 9 -19 19 -25 16 -10 20 -9 25 4 8 19 8 18 -21 27
-16 5 -23 3 -23 -6z"/>
<path d="M835 2580 c-10 -11 -22 -20 -27 -20 -5 0 -26 -11 -46 -25 -43 -29
-42 -29 22 -10 27 8 62 15 78 15 16 0 36 7 45 15 17 18 18 17 -20 33 -35 15
-31 16 -52 -8z"/>
<path d="M1759 2582 c14 -26 -1 -37 -31 -22 -22 11 -22 10 -4 -4 23 -19 42
-20 51 -5 4 6 14 8 22 5 8 -3 26 -3 39 0 20 5 22 9 13 20 -13 16 -39 19 -39 5
0 -5 6 -12 13 -14 9 -4 9 -6 -1 -6 -8 -1 -28 9 -44 21 -30 21 -30 21 -19 0z"/>
<path d="M1375 2570 c3 -5 13 -10 21 -10 8 0 14 -2 14 -4 0 -2 3 -11 6 -20 5
-12 -1 -16 -24 -16 -17 0 -34 -4 -37 -10 -7 -11 27 -12 62 -2 21 7 22 8 6 40
-9 20 -23 32 -35 32 -10 0 -16 -4 -13 -10z"/>
<path d="M1280 2560 c0 -13 11 -13 30 0 12 8 11 10 -7 10 -13 0 -23 -4 -23
-10z"/>
<path d="M1905 2550 c3 -6 -4 -10 -16 -10 -22 0 -22 0 -3 -16 19 -15 19 -16
-1 -8 -11 4 -53 6 -94 5 -48 -2 -71 1 -67 8 9 13 -44 27 -53 14 -3 -6 -13 -13
-21 -16 -11 -4 -9 -6 6 -6 11 -1 29 -10 39 -21 18 -20 18 -20 -15 -14 -30 7
-32 6 -21 -13 17 -33 -8 -46 -78 -41 -52 4 -57 2 -43 -10 15 -12 15 -13 -5 -9
-12 3 -27 -1 -34 -9 -6 -7 -21 -12 -32 -11 -18 2 -21 -3 -19 -22 l2 -23 -20
23 -20 24 5 -26 c4 -17 1 -30 -11 -40 -16 -13 -17 -12 -10 5 7 19 6 19 -14 1
-11 -10 -20 -24 -20 -32 0 -8 -4 -11 -10 -8 -5 3 -10 -1 -10 -11 0 -11 -6 -15
-19 -11 -23 6 -34 -14 -25 -49 8 -31 24 -31 24 0 0 14 5 28 10 31 6 3 10 1 10
-4 0 -6 3 -10 8 -10 20 3 32 -2 32 -16 0 -8 5 -15 10 -15 6 0 10 7 10 16 0 10
6 14 15 11 8 -4 17 -2 20 3 4 6 13 7 23 1 9 -4 23 -6 31 -3 7 2 16 -1 20 -7 4
-6 21 -12 38 -14 31 -3 129 -56 106 -57 -21 0 -15 -20 6 -20 39 0 51 -11 51
-47 0 -20 -4 -32 -10 -28 -6 4 -8 11 -5 16 14 21 -7 28 -39 12 -29 -14 -38
-14 -65 -2 -17 8 -31 20 -31 26 0 7 -6 13 -14 13 -7 0 -16 9 -19 20 -3 11 -10
20 -16 20 -9 0 -9 -5 -1 -20 9 -17 8 -20 -11 -20 -15 0 -19 5 -15 15 7 18 -10
20 -18 3 -4 -7 -4 -3 -2 10 3 15 -1 25 -12 29 -9 4 -21 11 -25 17 -6 8 -10 7
-14 -2 -2 -6 -9 -10 -14 -6 -5 3 -9 -4 -9 -15 0 -12 -7 -21 -15 -21 -14 0 -19
16 -16 50 1 11 -2 10 -14 -4 -14 -18 -14 -27 2 -91 2 -12 1 -15 -4 -9 -10 15
-84 56 -89 51 -3 -2 2 -10 11 -17 8 -7 15 -18 15 -26 0 -7 21 -28 46 -46 l46
-32 -27 -9 c-20 -7 -31 -5 -46 9 -24 22 -26 0 -1 -25 29 -30 54 -40 79 -30 20
7 23 6 21 -9 -2 -14 6 -18 41 -20 24 -2 49 2 54 7 14 14 27 14 27 0 0 -12 29
-38 43 -39 4 0 7 8 7 18 0 26 57 44 98 33 24 -7 32 -6 32 3 0 21 68 48 91 36
16 -9 19 -7 19 10 0 11 -4 20 -9 20 -5 0 -13 9 -16 20 -3 11 -11 20 -16 20 -6
0 -7 -5 -4 -11 4 -6 -2 -5 -14 3 -12 7 -21 18 -21 25 0 6 -3 19 -6 28 -6 15
-4 16 16 3 13 -7 38 -28 57 -46 18 -18 37 -31 43 -27 5 3 19 0 30 -8 13 -9 37
-12 69 -9 30 2 51 0 55 -7 9 -14 56 -14 92 -1 20 8 32 7 48 -3 30 -19 115 -41
150 -39 16 2 37 -5 47 -14 9 -8 26 -14 36 -12 14 3 11 7 -14 18 -18 8 -33 18
-33 22 0 5 -9 8 -20 8 -11 0 -20 7 -20 15 0 8 -7 15 -15 15 -9 0 -12 6 -9 15
4 8 1 15 -5 15 -6 0 -11 -7 -11 -15 0 -21 -16 -19 -40 7 -24 26 -25 34 -6 41
8 3 16 -2 19 -15 5 -16 10 -18 29 -12 13 4 33 8 45 8 12 1 25 4 28 8 4 4 20 1
36 -8 34 -17 38 -3 8 25 -14 13 -17 21 -9 26 7 4 2 15 -14 30 -14 13 -22 26
-17 30 5 3 16 -3 23 -13 14 -20 79 -66 135 -95 23 -12 39 -15 50 -8 14 8 12
12 -18 30 -19 11 -47 24 -64 27 -21 4 -40 19 -63 52 -67 96 -83 117 -95 121
-21 6 -57 44 -57 59 0 8 -6 12 -13 9 -19 -7 -40 8 -43 29 -2 10 -10 23 -18 30
-11 7 -12 14 -5 21 7 7 -1 13 -28 17 -21 4 -49 14 -62 23 -18 11 -25 12 -31 3
-5 -8 -13 -5 -25 11 -11 15 -15 18 -12 7 8 -22 -5 -23 -46 -1 -18 9 -26 18
-19 20 16 6 5 23 -14 23 -8 0 -12 -4 -9 -10z m25 -80 c8 -5 11 -13 6 -17 -5
-4 -11 -2 -13 5 -3 6 -9 10 -14 6 -5 -3 -9 0 -9 5 0 13 10 14 30 1z m-220 -44
c0 -22 -2 -23 -25 -13 -17 8 -20 13 -10 15 8 2 15 8 15 13 0 5 5 9 10 9 6 0
10 -11 10 -24z m312 4 c5 0 16 -7 24 -15 22 -22 -3 -19 -32 4 -13 10 -20 21
-16 25 3 4 8 2 10 -3 2 -6 8 -11 14 -11z m-212 -15 c14 -19 14 -19 -2 -6 -10
7 -18 18 -18 24 0 6 1 8 3 6 1 -2 9 -13 17 -24z m170 0 c7 -13 17 -23 23 -22
14 3 66 -73 67 -98 l1 -20 8 20 c5 11 4 25 -1 32 -6 7 -8 18 -5 25 4 8 6 7 6
-4 1 -10 10 -22 21 -28 12 -6 25 -21 30 -33 6 -12 15 -29 21 -38 13 -18 4 -69
-12 -69 -5 0 -8 12 -7 27 2 21 -2 28 -17 31 -11 2 -28 11 -37 20 -16 14 -18
14 -18 -1 0 -8 6 -17 13 -20 6 -2 9 -8 5 -12 -10 -10 -38 20 -38 40 0 8 -14
29 -30 45 -18 17 -28 35 -24 42 5 8 2 9 -9 5 -12 -5 -17 -1 -17 14 0 11 -7 22
-15 25 -11 5 -12 11 -4 25 13 25 23 24 39 -6z m-183 -67 c-3 -8 -6 -5 -6 6 -1
11 2 17 5 13 3 -3 4 -12 1 -19z m73 -8 c0 -5 -4 -10 -10 -10 -5 0 -10 5 -10
10 0 6 5 10 10 10 6 0 10 -4 10 -10z m34 -56 c10 -7 24 -10 32 -7 7 2 18 -4
25 -15 7 -12 19 -18 27 -14 11 4 13 1 7 -8 -5 -9 -4 -11 4 -6 7 5 21 -3 35
-19 13 -15 29 -24 35 -21 7 4 11 -1 11 -12 0 -21 63 -76 74 -65 3 4 6 1 6 -5
0 -5 3 -17 6 -26 8 -22 -35 -22 -50 0 -10 14 -14 13 -38 -5 -23 -18 -27 -19
-38 -6 -7 9 -10 18 -7 22 11 10 -14 45 -28 39 -15 -5 -69 50 -79 80 -3 11 -16
20 -28 21 -13 1 -18 -1 -13 -5 13 -8 45 -58 45 -69 0 -3 -13 6 -30 22 -20 19
-30 24 -30 14 -1 -10 -5 -9 -15 5 -15 19 -15 19 -15 -5 -1 -23 -1 -23 -29 10
-15 19 -33 31 -39 27 -16 -9 -25 11 -18 40 6 22 8 23 22 9 17 -16 44 -20 44
-6 0 5 -7 14 -15 21 -43 36 42 22 99 -16z m-214 -4 c0 -11 -2 -20 -3 -20 -2 0
-12 9 -22 20 -18 19 -17 20 3 20 15 0 22 -6 22 -20z m477 -122 c-3 -7 -5 -2
-5 12 0 14 2 19 5 13 2 -7 2 -19 0 -25z m46 -8 c-3 -12 -8 -19 -11 -16 -5 6 5
36 12 36 2 0 2 -9 -1 -20z m-846 -52 c-3 -8 -6 -5 -6 6 -1 11 2 17 5 13 3 -3
4 -12 1 -19z m53 -54 c0 -8 -4 -12 -10 -9 -5 3 -10 10 -10 16 0 5 5 9 10 9 6
0 10 -7 10 -16z m60 7 c0 -5 -9 -11 -20 -14 -13 -3 -20 0 -20 9 0 8 9 14 20
14 11 0 20 -4 20 -9z"/>
<path d="M2100 2276 c0 -8 5 -18 10 -21 6 -3 10 1 10 9 0 8 -4 18 -10 21 -5 3
-10 -1 -10 -9z"/>
<path d="M1946 2237 c3 -10 9 -15 12 -12 3 3 0 11 -7 18 -10 9 -11 8 -5 -6z"/>
<path d="M2040 2090 c0 -5 7 -10 16 -10 8 0 12 5 9 10 -3 6 -10 10 -16 10 -5
0 -9 -4 -9 -10z"/>
<path d="M2120 2500 c-12 -8 -10 -10 8 -10 13 0 20 4 17 10 -7 12 -6 12 -25 0z"/>
<path d="M1508 2488 c9 -9 15 -9 24 0 9 9 7 12 -12 12 -19 0 -21 -3 -12 -12z"/>
<path d="M1568 2493 c7 -3 16 -2 19 1 4 3 -2 6 -13 5 -11 0 -14 -3 -6 -6z"/>
<path d="M2190 2491 c0 -9 24 -21 42 -21 6 0 6 6 -2 15 -14 16 -40 20 -40 6z"/>
<path d="M1595 2480 c-3 -5 -1 -10 4 -10 6 0 11 5 11 10 0 6 -2 10 -4 10 -3 0
-8 -4 -11 -10z"/>
<path d="M1568 2453 c7 -3 16 -2 19 1 4 3 -2 6 -13 5 -11 0 -14 -3 -6 -6z"/>
<path d="M1097 2429 c7 -7 15 -10 18 -7 3 3 -2 9 -12 12 -14 6 -15 5 -6 -5z"/>
<path d="M2550 2192 c0 -5 7 -15 15 -22 8 -7 15 -9 15 -6 0 4 -7 14 -15 22 -8
9 -15 11 -15 6z"/>
<path d="M1260 2180 c0 -5 5 -10 10 -10 6 0 10 5 10 10 0 6 -4 10 -10 10 -5 0
-10 -4 -10 -10z"/>
<path d="M1570 2179 c0 -5 5 -7 10 -4 6 3 10 8 10 11 0 2 -4 4 -10 4 -5 0 -10
-5 -10 -11z"/>
<path d="M2562 2139 c2 -7 10 -15 17 -17 8 -3 12 1 9 9 -2 7 -10 15 -17 17 -8
3 -12 -1 -9 -9z"/>
<path d="M1196 2111 c-7 -10 41 -48 49 -39 3 2 -6 15 -19 27 -15 14 -26 18
-30 12z"/>
<path d="M2554 2078 c-4 -7 -3 -8 4 -4 7 4 12 3 12 -3 0 -6 7 -8 15 -5 8 3 24
-1 37 -10 31 -22 46 -20 17 2 -32 25 -76 35 -85 20z"/>
<path d="M1200 2060 c0 -5 13 -24 30 -42 l30 -33 -18 42 c-15 38 -42 59 -42
33z"/>
<path d="M2280 2060 c0 -5 5 -10 10 -10 6 0 10 5 10 10 0 6 -4 10 -10 10 -5 0
-10 -4 -10 -10z"/>
<path d="M2370 2045 c0 -20 37 -38 55 -27 12 6 8 12 -20 25 -29 14 -35 14 -35
2z"/>
<path d="M1132 2037 c-9 -11 -10 -17 -2 -22 15 -9 23 -1 18 21 -3 15 -4 16
-16 1z"/>
<path d="M2561 1996 c-9 -11 -6 -12 14 -8 14 2 22 8 19 13 -8 13 -20 11 -33
-5z"/>
<path d="M2119 1986 c7 -8 37 -24 69 -37 31 -12 111 -46 177 -74 134 -58 216
-75 241 -51 11 12 12 20 5 35 -6 11 -9 26 -6 33 3 7 -1 22 -8 32 -11 15 -17
17 -35 7 -16 -9 -33 -9 -61 -1 -22 6 -68 10 -103 9 -37 -1 -96 8 -143 21 -44
12 -85 22 -92 24 -7 1 -16 5 -19 9 -4 4 -14 7 -22 7 -11 0 -12 -3 -3 -14z"/>
<path d="M2403 1993 c-20 -8 -15 -23 7 -23 11 0 20 7 20 15 0 15 -6 17 -27 8z"/>
<path d="M1850 1971 c-37 -7 -41 -22 -14 -52 8 -8 14 -20 14 -25 0 -5 -12 8
-27 29 -21 29 -32 37 -48 33 -11 -3 -26 -6 -32 -6 -27 0 -11 -30 35 -67 100
-83 284 -193 322 -193 10 0 23 -7 30 -15 17 -20 43 -19 64 4 14 15 28 18 82
16 40 -2 64 0 62 6 -2 6 -30 22 -63 37 -66 29 -67 30 -129 122 -70 103 -78
108 -176 114 -47 2 -101 1 -120 -3z"/>
<path d="M2080 1971 c0 -6 8 -16 18 -23 10 -7 37 -38 60 -69 34 -45 55 -62
111 -88 75 -34 170 -55 214 -45 37 8 34 20 -10 34 -49 16 -286 136 -340 172
-45 30 -53 33 -53 19z"/>
<path d="M1200 1885 c0 -33 7 -48 43 -85 23 -25 50 -51 59 -58 14 -11 16 -10
11 7 -3 12 -9 21 -14 21 -5 0 -9 6 -9 13 0 8 -15 33 -32 57 -18 24 -39 52 -45
64 -12 19 -13 17 -13 -19z"/>
<path d="M1342 1915 c4 -5 4 -13 -1 -19 -6 -7 -4 -18 5 -30 9 -13 14 -15 14
-6 0 9 6 8 20 -5 11 -10 20 -24 20 -31 0 -11 61 -56 68 -50 7 7 -102 141 -117
145 -9 2 -13 0 -9 -4z"/>
<path d="M1580 1899 c-30 -56 157 -201 315 -245 96 -26 116 -10 38 30 -105 54
-248 153 -301 209 -32 32 -38 33 -52 6z"/>
<path d="M1407 1878 c45 -80 230 -224 300 -235 36 -5 33 -2 -57 63 -52 38
-118 93 -147 122 -44 46 -92 82 -110 82 -2 0 4 -14 14 -32z"/>
<path d="M1531 1827 c56 -53 129 -103 129 -89 0 5 -21 28 -47 53 -27 25 -52
52 -58 61 -5 8 -26 18 -45 22 l-35 6 56 -53z"/>
<path d="M1750 1865 c0 -15 68 -78 102 -96 57 -30 55 -23 -14 31 -35 27 -69
54 -75 60 -7 6 -13 8 -13 5z"/>
<path d="M1350 1812 c0 -5 12 -31 26 -56 27 -49 63 -76 149 -115 28 -12 57
-27 65 -32 8 -5 25 -13 37 -18 24 -11 63 -50 63 -63 0 -5 -6 -6 -12 -2 -7 4
-2 -4 12 -18 17 -19 28 -24 37 -17 16 14 7 34 -24 54 -34 22 -22 30 16 11 36
-19 45 -20 35 -4 -5 8 -2 9 12 4 10 -4 60 -24 109 -43 50 -19 94 -38 99 -44
15 -14 -1 -11 -36 7 -35 18 -88 35 -88 28 0 -2 28 -18 63 -35 34 -17 64 -34
67 -38 31 -37 57 -49 95 -42 l40 8 -47 12 c-26 7 -55 22 -64 33 -18 19 -18 19
26 0 25 -10 97 -36 160 -56 63 -21 126 -42 139 -47 13 -5 25 -8 28 -6 4 5 -3
8 -147 61 -141 51 -200 78 -200 88 0 5 3 8 8 6 71 -37 167 -76 300 -122 157
-54 246 -77 132 -34 -233 87 -431 171 -360 152 14 -3 37 -13 52 -20 61 -31
415 -155 436 -153 11 1 -71 37 -86 38 -19 1 -223 84 -218 88 2 2 50 -14 107
-35 141 -53 419 -138 556 -171 21 -5 47 -12 58 -16 14 -5 17 -5 10 2 -11 11
-84 35 -385 127 -179 54 -295 95 -276 96 11 0 243 -69 351 -105 209 -69 33 13
-225 105 -173 62 -368 145 -363 153 4 6 0 8 -10 4 -9 -3 -19 -1 -23 5 -4 7 -3
8 4 4 7 -4 12 -5 12 -2 0 3 -14 13 -31 22 -30 15 -31 15 -56 -15 -29 -35 -55
-39 -110 -16 -46 19 -79 19 -87 -1 -5 -13 -14 -15 -44 -10 -20 4 -50 9 -67 10
-16 2 -47 11 -67 20 -21 9 -40 16 -42 16 -13 0 -87 87 -93 107 -3 13 -9 23
-14 23 -5 0 -6 -7 -3 -15 10 -24 -9 -17 -40 15 -31 33 -86 66 -86 52z m505
-240 c-3 -3 -11 0 -18 7 -9 10 -8 11 6 5 10 -3 15 -9 12 -12z m151 9 c-7 -11
43 -43 104 -67 25 -9 50 -21 55 -26 11 -10 -57 16 -137 52 -48 21 -59 34 -35
43 18 8 19 8 13 -2z m-109 -17 c-3 -3 -12 -4 -19 -1 -8 3 -5 6 6 6 11 1 17 -2
13 -5z m-7 -34 c8 -5 11 -10 5 -10 -5 0 -17 5 -25 10 -8 5 -10 10 -5 10 6 0
17 -5 25 -10z m159 -27 c2 -2 -3 -3 -12 -3 -9 0 -22 10 -28 23 l-12 22 24 -20
c13 -11 26 -21 28 -22z m-112 11 c-3 -3 -12 -4 -19 -1 -8 3 -5 6 6 6 11 1 17
-2 13 -5z m40 -10 c-3 -3 -12 -4 -19 -1 -8 3 -5 6 6 6 11 1 17 -2 13 -5z m253
-44 c19 -11 32 -19 29 -20 -11 0 -79 30 -79 35 0 9 14 5 50 -15z"/>
<path d="M2366 1670 c-16 -17 -36 -30 -43 -30 -8 0 -12 -4 -8 -9 3 -6 -7 -6
-27 0 -48 13 -77 11 -119 -8 -45 -21 -56 -39 -28 -46 11 -3 16 -1 13 5 -3 5 2
5 12 -1 30 -17 415 -153 420 -148 3 2 -21 14 -53 27 -32 12 -71 28 -88 35 -16
7 -61 26 -98 40 -37 15 -66 30 -63 32 2 3 13 0 24 -6 34 -18 37 -12 6 11 -51
38 -50 41 2 14 28 -15 62 -26 75 -24 21 3 19 6 -21 26 -37 18 -40 21 -15 16
24 -4 28 -3 18 7 -7 7 -13 16 -13 21 0 8 32 -2 40 -12 3 -4 16 -11 30 -15 23
-7 22 -5 -9 24 -19 17 -33 33 -30 35 2 2 45 -16 94 -40 50 -24 95 -44 102 -44
6 0 24 -5 40 -12 15 -7 33 -13 38 -13 6 -1 18 -5 28 -10 10 -4 21 -5 24 -1 7
7 -36 56 -48 56 -5 0 -47 23 -95 50 -108 62 -161 67 -208 20z"/>
<path d="M1417 1578 c-5 -16 32 -68 49 -68 7 0 10 8 7 20 -3 11 -12 20 -19 20
-8 0 -14 9 -14 20 0 22 -16 27 -23 8z"/>
<path d="M1498 1523 c7 -3 16 -2 19 1 4 3 -2 6 -13 5 -11 0 -14 -3 -6 -6z"/>
<path d="M1530 1503 c0 -15 29 -49 30 -35 0 7 -7 20 -15 28 -8 9 -15 11 -15 7z"/>
<path d="M1692 1426 c7 -8 15 -12 17 -11 5 6 -10 25 -20 25 -5 0 -4 -6 3 -14z"/>
<path d="M2700 1385 c0 -6 32 -19 70 -29 14 -3 7 3 -15 13 -42 21 -55 24 -55
16z"/>
<path d="M2780 1380 c8 -5 20 -10 25 -10 6 0 3 5 -5 10 -8 5 -19 10 -25 10 -5
0 -3 -5 5 -10z"/>
<path d="M2220 1356 c0 -2 7 -7 16 -10 8 -3 12 -2 9 4 -6 10 -25 14 -25 6z"/>
<path d="M2520 1300 c8 -5 22 -9 30 -9 10 0 8 3 -5 9 -27 12 -43 12 -25 0z"/>
<path d="M1779 1261 c33 -46 119 -111 147 -111 13 0 24 -4 24 -9 0 -9 52 -31
72 -31 24 0 -58 58 -88 63 -22 4 -57 24 -92 55 -75 64 -91 72 -63 33z"/>
<path d="M2710 1270 c8 -5 20 -10 25 -10 6 0 3 5 -5 10 -8 5 -19 10 -25 10 -5
0 -3 -5 5 -10z"/>
<path d="M3122 1264 c10 -10 20 -16 22 -13 3 3 -5 11 -17 18 -21 13 -21 12 -5
-5z"/>
<path d="M3070 1246 c0 -2 7 -6 15 -10 8 -3 15 -1 15 4 0 6 -7 10 -15 10 -8 0
-15 -2 -15 -4z"/>
<path d="M2080 1172 c0 -7 -4 -10 -10 -7 -5 3 -10 2 -10 -3 0 -5 15 -15 33
-22 48 -18 80 -31 99 -41 31 -16 32 -10 2 17 -15 15 -44 31 -63 36 -20 6 -39
15 -43 22 -6 8 -8 7 -8 -2z"/>
<path d="M2644 1043 c15 -4 16 -7 5 -14 -11 -7 -11 -9 3 -9 9 0 19 4 22 9 6 9
-17 22 -37 20 -7 -1 -3 -4 7 -6z"/>
<path d="M1058 913 c7 -3 16 -2 19 1 4 3 -2 6 -13 5 -11 0 -14 -3 -6 -6z"/>
<path d="M1104 909 c-9 -15 1 -21 26 -17 21 3 21 3 1 15 -14 9 -22 9 -27 2z"/>
<path d="M1968 913 c6 -2 18 -2 25 0 6 3 1 5 -13 5 -14 0 -19 -2 -12 -5z"/>
<path d="M1034 891 c3 -5 14 -11 25 -14 14 -3 18 -1 14 9 -3 8 -14 14 -25 14
-10 0 -17 -4 -14 -9z"/>
<path d="M1257 883 c-4 -3 -37 -14 -74 -23 -64 -15 -97 -40 -54 -40 12 0 21 5
21 10 0 6 19 10 43 10 33 0 49 6 67 25 13 14 19 25 13 25 -5 0 -13 -3 -16 -7z"/>
<path d="M4430 886 c0 -2 11 -6 25 -8 14 -3 25 -1 25 3 0 5 -11 9 -25 9 -14 0
-25 -2 -25 -4z"/>
<path d="M1640 870 c0 -5 5 -10 11 -10 5 0 7 5 4 10 -3 6 -8 10 -11 10 -2 0
-4 -4 -4 -10z"/>
<path d="M2230 860 c-9 -6 -10 -10 -3 -10 6 0 15 5 18 10 8 12 4 12 -15 0z"/>
<path d="M4027 856 c-4 -10 -1 -13 9 -9 7 3 14 9 14 14 0 14 -17 10 -23 -5z"/>
<path d="M4255 860 c-9 -14 18 -50 37 -50 10 0 18 -4 18 -10 0 -5 12 -9 28 -9
23 2 24 2 5 6 -13 2 -23 8 -23 13 0 14 23 25 27 13 7 -20 103 17 103 40 0 16
-63 2 -68 -15 -5 -22 -16 -23 -32 -3 -7 9 -21 13 -31 10 -10 -4 -27 -1 -38 4
-12 7 -22 8 -26 1z"/>
<path d="M4457 842 c-16 -18 -15 -19 9 -32 19 -11 24 -19 20 -36 -8 -30 6 -37
39 -22 22 10 28 9 36 -3 7 -12 9 -11 9 3 0 34 -13 48 -51 54 -21 4 -39 10 -39
15 0 5 4 9 10 9 5 0 7 7 4 15 -8 20 -17 19 -37 -3z"/>
<path d="M2170 840 c0 -5 5 -10 10 -10 6 0 10 5 10 10 0 6 -4 10 -10 10 -5 0
-10 -4 -10 -10z"/>
<path d="M4682 836 c13 -14 28 -12 28 5 0 5 -9 9 -20 9 -17 0 -19 -2 -8 -14z"/>
<path d="M1000 830 c0 -5 -7 -10 -17 -10 -9 0 -14 -2 -11 -5 8 -9 58 6 58 16
0 5 -7 9 -15 9 -8 0 -15 -4 -15 -10z"/>
<path d="M1616 825 c-11 -8 -16 -18 -11 -22 4 -5 10 -2 12 5 3 6 11 12 19 12
8 0 14 5 14 10 0 14 -11 12 -34 -5z"/>
<path d="M870 816 c0 -11 -9 -16 -29 -16 -24 0 -28 -3 -24 -20 3 -11 0 -20 -6
-20 -6 0 -11 -4 -11 -10 0 -5 7 -7 15 -4 8 4 15 1 15 -6 0 -9 7 -7 20 5 22 20
79 22 125 5 35 -13 65 -13 65 1 0 7 -10 9 -25 7 -18 -4 -25 -1 -26 11 0 10 -2
12 -6 4 -6 -15 -51 -6 -71 13 -10 10 -9 15 5 23 16 9 16 10 1 11 -9 0 -23 3
-32 6 -11 4 -16 1 -16 -10z"/>
<path d="M1220 820 c0 -5 5 -10 10 -10 6 0 10 5 10 10 0 6 -4 10 -10 10 -5 0
-10 -4 -10 -10z"/>
<path d="M760 809 c0 -5 5 -7 10 -4 6 3 10 8 10 11 0 2 -4 4 -10 4 -5 0 -10
-5 -10 -11z"/>
<path d="M642 798 c-7 -7 -12 -19 -11 -27 0 -11 4 -8 11 7 14 27 32 29 23 2
-8 -24 10 -27 19 -3 4 9 1 20 -6 25 -17 10 -22 10 -36 -4z"/>
<path d="M730 800 c0 -5 5 -10 10 -10 6 0 10 5 10 10 0 6 -4 10 -10 10 -5 0
-10 -4 -10 -10z"/>
<path d="M2620 790 c0 -5 5 -10 10 -10 6 0 10 5 10 10 0 6 -4 10 -10 10 -5 0
-10 -4 -10 -10z"/>
<path d="M2952 785 c-16 -9 -20 -15 -12 -20 13 -8 60 13 60 27 0 11 -21 8 -48
-7z"/>
<path d="M1200 782 c0 -15 18 -34 29 -31 7 3 3 11 -9 21 -11 10 -20 14 -20 10z"/>
<path d="M40 760 c0 -11 5 -20 10 -20 6 0 10 9 10 20 0 11 -4 20 -10 20 -5 0
-10 -9 -10 -20z"/>
<path d="M1290 770 c0 -5 5 -10 11 -10 5 0 7 5 4 10 -3 6 -8 10 -11 10 -2 0
-4 -4 -4 -10z"/>
<path d="M1650 765 c-7 -8 -18 -15 -26 -15 -7 0 -18 -9 -24 -20 -12 -23 2 -27
20 -5 6 8 15 14 18 13 4 0 19 0 35 1 31 1 35 16 8 30 -14 8 -22 7 -31 -4z"/>
<path d="M4350 770 c0 -5 5 -10 10 -10 6 0 10 5 10 10 0 6 -4 10 -10 10 -5 0
-10 -4 -10 -10z"/>
<path d="M1546 748 c-10 -11 -15 -23 -11 -26 3 -4 9 -1 13 5 4 6 14 12 24 14
13 3 13 6 3 16 -9 8 -16 6 -29 -9z"/>
<path d="M4397 753 c6 -16 34 -14 40 3 2 7 -7 12 -21 12 -17 0 -23 -5 -19 -15z"/>
<path d="M1916 745 c4 -8 10 -15 15 -15 4 0 6 7 3 15 -4 8 -10 15 -15 15 -4 0
-6 -7 -3 -15z"/>
<path d="M4446 736 c-15 -23 -14 -25 5 -31 25 -8 37 1 22 16 -6 6 -9 18 -6 25
8 22 -3 16 -21 -10z"/>
<path d="M740 730 c-14 -11 -34 -20 -45 -20 -19 -1 -19 -1 -2 -11 10 -6 27 -9
38 -6 13 4 19 0 19 -11 0 -14 2 -14 9 -3 5 8 16 11 24 8 8 -3 19 -1 23 3 14
14 56 0 50 -16 -3 -8 1 -14 10 -14 11 0 14 8 12 28 -2 22 0 26 17 24 l20 -4
-20 17 c-11 9 -14 14 -7 10 6 -3 12 -1 12 4 0 15 -4 14 -45 -10 -26 -16 -39
-18 -49 -10 -7 6 -17 7 -21 3 -5 -4 -5 1 -2 11 8 23 -11 22 -43 -3z"/>
<path d="M1300 740 c0 -5 5 -10 10 -10 6 0 10 5 10 10 0 6 -4 10 -10 10 -5 0
-10 -4 -10 -10z"/>
<path d="M2204 739 c-7 -11 16 -32 25 -23 3 3 -1 9 -8 13 -11 7 -11 10 0 14 9
3 10 6 2 6 -6 1 -15 -4 -19 -10z"/>
<path d="M2615 719 c-8 -36 -1 -46 39 -51 35 -4 46 16 17 32 -12 6 -21 20 -21
30 0 32 -28 23 -35 -11z"/>
<path d="M2455 730 c-4 -6 5 -10 20 -10 15 0 24 4 20 10 -3 6 -12 10 -20 10
-8 0 -17 -4 -20 -10z"/>
<path d="M2970 730 c20 -13 40 -13 40 0 0 6 -12 10 -27 10 -22 0 -25 -2 -13
-10z"/>
<path d="M406 711 c5 -5 19 -12 31 -16 18 -5 22 -3 17 9 -3 9 -18 16 -32 16
-16 0 -22 -4 -16 -9z"/>
<path d="M1432 703 c3 -19 48 -32 48 -14 0 6 -5 11 -11 11 -5 0 -7 5 -4 10 3
6 -3 10 -15 10 -15 0 -20 -5 -18 -17z"/>
<path d="M1556 711 c-3 -5 0 -12 6 -14 7 -3 0 -6 -17 -7 -24 -1 -26 -3 -11 -9
23 -9 76 -2 76 11 0 5 -5 6 -12 2 -6 -4 -17 1 -24 10 -7 10 -15 13 -18 7z"/>
<path d="M1653 713 c-13 -2 -23 -9 -23 -15 0 -6 10 -8 23 -4 12 3 25 6 30 6 4
0 7 5 7 10 0 6 -3 9 -7 9 -5 -1 -18 -4 -30 -6z"/>
<path d="M4368 712 c-10 -2 -18 -8 -18 -13 0 -13 47 -11 56 3 4 6 3 8 -4 4 -5
-3 -12 -3 -14 2 -1 4 -11 6 -20 4z"/>
<path d="M1045 700 c4 -6 11 -8 16 -5 14 9 11 15 -7 15 -8 0 -12 -5 -9 -10z"/>
<path d="M1351 688 c0 -16 2 -18 6 -8 3 8 11 18 17 22 7 5 4 8 -6 8 -12 0 -18
-7 -17 -22z"/>
<path d="M2022 685 c0 -16 2 -22 5 -12 2 9 2 23 0 30 -3 6 -5 -1 -5 -18z"/>
<path d="M4640 699 c0 -5 5 -7 10 -4 6 3 10 8 10 11 0 2 -4 4 -10 4 -5 0 -10
-5 -10 -11z"/>
<path d="M4753 685 c-20 -24 -21 -25 -2 -25 19 0 21 -4 21 -65 0 -54 -1 -55
-21 -55 -11 0 -23 5 -26 10 -3 6 -15 10 -26 10 -14 0 -19 -7 -19 -28 0 -31 32
-68 49 -58 17 11 32 -30 21 -58 -7 -19 -14 -24 -27 -19 -16 6 -16 5 -4 -11 11
-13 16 -14 22 -4 6 8 9 0 9 -22 0 -34 19 -83 20 -51 0 8 8 20 17 27 17 11 16
14 -12 38 -20 17 -25 26 -14 26 8 0 20 -5 26 -11 9 -9 11 32 11 155 -1 176 -5
187 -45 141z"/>
<path d="M1281 680 c0 -15 -6 -31 -13 -38 -9 -9 -9 -12 0 -12 16 0 25 23 19
52 -4 22 -4 22 -6 -2z"/>
<path d="M1948 693 c7 -3 16 -2 19 1 4 3 -2 6 -13 5 -11 0 -14 -3 -6 -6z"/>
<path d="M3220 689 c0 -9 -7 -20 -16 -23 -24 -9 1 -36 33 -36 19 0 23 4 18 19
-4 13 0 21 10 24 11 4 11 4 -2 3 -10 -1 -23 5 -30 14 -11 13 -12 13 -13 -1z"/>
<path d="M470 676 c0 -16 28 -42 36 -33 7 6 -18 47 -28 47 -5 0 -8 -6 -8 -14z"/>
<path d="M910 671 c0 -11 -9 -23 -20 -26 -24 -8 -25 -14 -2 -42 l17 -22 48 35
c44 32 47 37 31 48 -9 7 -26 11 -36 8 -10 -2 -18 1 -18 7 0 6 -4 11 -10 11 -5
0 -10 -9 -10 -19z"/>
<path d="M1740 680 c-13 -9 -13 -10 1 -10 8 0 20 -12 26 -27 9 -24 11 -25 12
-7 2 30 -21 56 -39 44z"/>
<path d="M45 670 c3 -5 8 -10 11 -10 2 0 4 5 4 10 0 6 -5 10 -11 10 -5 0 -7
-4 -4 -10z"/>
<path d="M820 670 c0 -5 5 -10 11 -10 5 0 7 5 4 10 -3 6 -8 10 -11 10 -2 0 -4
-4 -4 -10z"/>
<path d="M1400 665 c0 -8 8 -15 18 -16 10 0 12 -3 5 -6 -10 -3 -9 -10 3 -28
13 -20 13 -24 -1 -39 -18 -18 -28 -20 -39 -8 -11 10 -106 11 -106 0 0 -15 30
-21 45 -8 11 9 22 9 49 0 20 -6 40 -9 46 -5 14 9 70 -23 70 -40 0 -17 12 -19
26 -5 14 14 36 -4 28 -24 -5 -14 -9 -15 -16 -4 -7 10 -11 9 -23 -6 -19 -25
-19 -36 -1 -36 8 0 16 -6 19 -12 5 -16 37 8 37 28 0 20 17 26 40 14 14 -8 20
-8 20 0 0 6 5 8 10 5 6 -3 10 1 10 9 0 14 -26 22 -54 17 -5 -1 -6 5 -2 14 3 9
6 19 6 21 0 2 9 4 20 4 11 0 20 5 20 10 0 14 -12 13 -35 -3 -39 -27 -151 -4
-139 28 3 8 -1 21 -9 30 -8 8 -13 23 -11 32 3 11 -3 23 -16 31 -17 10 -20 10
-20 -3z"/>
<path d="M1791 663 c7 -12 15 -20 18 -17 3 2 -3 12 -13 22 -17 16 -18 16 -5
-5z"/>
<path d="M2492 668 c-17 -17 -15 -36 7 -47 15 -9 20 -7 24 9 7 28 -14 55 -31
38z"/>
<path d="M720 661 c0 -5 5 -13 10 -16 6 -3 10 -2 10 4 0 5 -4 13 -10 16 -5 3
-10 2 -10 -4z"/>
<path d="M1140 660 c8 -5 20 -10 25 -10 6 0 3 5 -5 10 -8 5 -19 10 -25 10 -5
0 -3 -5 5 -10z"/>
<path d="M3460 656 c0 -8 5 -18 10 -21 6 -3 10 1 10 9 0 8 -4 18 -10 21 -5 3
-10 -1 -10 -9z"/>
<path d="M4490 660 c0 -5 5 -10 10 -10 6 0 10 5 10 10 0 6 -4 10 -10 10 -5 0
-10 -4 -10 -10z"/>
<path d="M3080 649 c-14 -6 -43 -11 -65 -11 -22 0 -50 -7 -62 -15 -24 -16 -31
-33 -13 -33 20 0 52 -42 47 -61 -3 -10 -1 -22 4 -25 5 -3 9 -11 9 -17 0 -7
-13 3 -28 21 -15 17 -33 32 -40 32 -15 0 -15 -12 1 -29 9 -11 9 -14 0 -18 -10
-3 -10 -9 0 -24 14 -23 27 -25 27 -3 0 13 6 15 28 10 15 -4 32 -14 38 -22 20
-26 27 -15 22 36 -4 39 -11 55 -33 74 -31 27 -28 41 10 49 19 3 25 1 21 -9 -3
-8 -1 -14 5 -14 5 0 12 7 15 15 7 17 54 21 54 5 0 -5 5 -10 10 -10 16 0 11 47
-6 54 -9 3 -16 6 -17 5 -1 0 -13 -5 -27 -10z m-65 -129 c3 -5 1 -10 -4 -10 -6
0 -11 5 -11 10 0 6 2 10 4 10 3 0 8 -4 11 -10z"/>
<path d="M774 635 c11 -8 22 -12 25 -9 6 6 -19 24 -34 24 -5 -1 -1 -7 9 -15z"/>
<path d="M1916 635 c-9 -26 -7 -32 5 -12 6 10 9 21 6 23 -2 3 -7 -2 -11 -11z"/>
<path d="M1956 625 c-15 -23 -15 -25 5 -39 14 -9 18 -19 13 -28 -4 -7 2 -5 13
5 16 14 22 15 26 5 3 -7 6 -3 6 10 1 12 -2 21 -6 21 -21 -3 -34 2 -28 11 4 6
10 8 15 5 5 -3 12 0 16 6 7 12 -12 29 -32 29 -7 0 -19 -11 -28 -25z"/>
<path d="M4708 643 c7 -3 16 -2 19 1 4 3 -2 6 -13 5 -11 0 -14 -3 -6 -6z"/>
<path d="M700 630 c0 -13 18 -22 24 -11 3 5 -1 11 -9 15 -8 3 -15 1 -15 -4z"/>
<path d="M2428 633 c7 -3 16 -2 19 1 4 3 -2 6 -13 5 -11 0 -14 -3 -6 -6z"/>
<path d="M3267 619 c-15 -14 -15 -16 3 -32 26 -22 27 -22 35 10 3 15 11 31 17
34 6 4 0 6 -14 6 -13 -1 -32 -9 -41 -18z"/>
<path d="M465 620 c-8 -13 9 -20 24 -11 10 6 9 10 -3 14 -8 3 -18 2 -21 -3z"/>
<path d="M516 622 c-2 -4 -1 -14 5 -22 7 -12 9 -10 9 8 0 23 -5 28 -14 14z"/>
<path d="M4718 600 c5 -35 8 -37 15 -10 3 10 -1 24 -7 29 -10 8 -11 3 -8 -19z"/>
<path d="M27 613 c-4 -3 -7 -11 -7 -17 0 -6 5 -5 12 2 6 6 9 14 7 17 -3 3 -9
2 -12 -2z"/>
<path d="M640 609 c0 -5 5 -7 10 -4 6 3 10 8 10 11 0 2 -4 4 -10 4 -5 0 -10
-5 -10 -11z"/>
<path d="M740 605 c0 -8 -4 -15 -10 -15 -16 0 -12 -14 8 -26 12 -7 24 -7 42 4
23 13 23 13 3 9 -24 -5 -40 7 -23 18 12 7 4 25 -11 25 -5 0 -9 -7 -9 -15z"/>
<path d="M1250 616 c0 -2 7 -9 15 -16 9 -7 15 -8 15 -2 0 5 -7 12 -15 16 -8 3
-15 4 -15 2z"/>
<path d="M1791 604 c0 -11 3 -14 6 -6 3 7 2 16 -1 19 -3 4 -6 -2 -5 -13z"/>
<path d="M3327 613 c-12 -11 -8 -23 8 -23 8 0 15 -5 15 -11 0 -6 6 -9 13 -6 6
2 11 12 9 22 -2 9 1 14 7 11 5 -4 12 -2 16 4 9 14 -18 13 -33 -2 -9 -9 -12 -9
-12 0 0 13 -13 16 -23 5z"/>
<path d="M685 600 c3 -5 8 -10 11 -10 2 0 4 5 4 10 0 6 -5 10 -11 10 -5 0 -7
-4 -4 -10z"/>
<path d="M1085 600 c3 -5 13 -10 21 -10 8 0 12 5 9 10 -3 6 -13 10 -21 10 -8
0 -12 -4 -9 -10z"/>
<path d="M1548 603 c6 -2 18 -2 25 0 6 3 1 5 -13 5 -14 0 -19 -2 -12 -5z"/>
<path d="M1606 594 c-4 -10 -1 -14 6 -12 15 5 23 28 10 28 -5 0 -13 -7 -16
-16z"/>
<path d="M1674 603 c10 -10 46 -11 46 -1 0 4 -12 8 -27 8 -14 0 -23 -3 -19 -7z"/>
<path d="M3650 596 c0 -9 5 -16 10 -16 6 0 10 4 10 9 0 6 -4 13 -10 16 -5 3
-10 -1 -10 -9z"/>
<path d="M366 578 c-9 -34 -7 -58 4 -58 6 0 10 9 10 19 0 11 5 21 11 23 11 4
2 38 -11 38 -4 0 -10 -10 -14 -22z"/>
<path d="M2480 581 c0 -25 6 -27 13 -6 4 8 2 17 -3 20 -6 4 -10 -3 -10 -14z"/>
<path d="M180 581 c0 -5 7 -14 15 -21 16 -14 18 -10 9 14 -6 17 -24 22 -24 7z"/>
<path d="M465 568 c1 -12 7 -24 13 -26 13 -4 15 8 6 32 -9 23 -21 19 -19 -6z"/>
<path d="M630 576 c0 -6 11 -12 25 -12 32 -2 32 12 0 18 -15 3 -25 1 -25 -6z"/>
<path d="M1480 580 c0 -5 5 -10 10 -10 6 0 10 5 10 10 0 6 -4 10 -10 10 -5 0
-10 -4 -10 -10z"/>
<path d="M1645 580 c-4 -6 3 -10 14 -10 25 0 27 6 6 13 -8 4 -17 2 -20 -3z"/>
<path d="M2740 580 c0 -5 15 -10 33 -9 27 0 29 2 12 9 -28 12 -45 12 -45 0z"/>
<path d="M3090 580 l-25 -8 28 -1 c15 -1 27 4 27 9 0 6 -1 10 -2 9 -2 -1 -14
-5 -28 -9z"/>
<path d="M3500 575 c-10 -13 -9 -15 8 -15 15 0 20 5 16 15 -4 8 -7 15 -9 15
-1 0 -8 -7 -15 -15z"/>
<path d="M2083 566 c7 -18 -9 -31 -47 -40 -21 -5 -26 -10 -17 -15 26 -16 104
42 84 63 -12 11 -25 6 -20 -8z"/>
<path d="M3550 570 c0 -5 5 -10 10 -10 6 0 10 5 10 10 0 6 -4 10 -10 10 -5 0
-10 -4 -10 -10z"/>
<path d="M63 555 c-16 -17 -17 -35 -3 -35 6 0 10 7 10 15 0 8 5 15 10 15 6 0
10 5 10 10 0 14 -13 12 -27 -5z"/>
<path d="M430 561 c0 -5 5 -13 10 -16 6 -3 10 -2 10 4 0 5 -4 13 -10 16 -5 3
-10 2 -10 -4z"/>
<path d="M570 556 c7 -7 14 -6 21 1 9 9 7 12 -9 10 -14 -1 -18 -5 -12 -11z"/>
<path d="M1650 540 c-14 -10 -21 -22 -17 -27 5 -4 14 0 21 9 7 10 24 22 37 27
21 8 21 10 4 10 -11 0 -31 -8 -45 -19z"/>
<path d="M3700 550 c0 -5 5 -10 11 -10 5 0 7 5 4 10 -3 6 -8 10 -11 10 -2 0
-4 -4 -4 -10z"/>
<path d="M4430 539 c7 -11 14 -19 16 -16 7 7 -7 37 -17 37 -6 0 -5 -9 1 -21z"/>
<path d="M308 543 c-10 -2 -18 -14 -18 -25 0 -14 -5 -18 -16 -14 -8 3 -12 2
-9 -4 12 -19 34 -10 49 20 8 17 14 29 13 29 -1 -1 -10 -3 -19 -6z"/>
<path d="M632 538 c-7 -7 -12 -18 -12 -25 0 -9 -8 -11 -25 -7 -14 3 -25 2 -25
-4 0 -19 49 -19 77 -1 20 14 23 19 11 19 -11 0 -15 5 -12 15 7 18 2 19 -14 3z"/>
<path d="M4480 540 c0 -6 7 -10 15 -10 8 0 15 2 15 4 0 2 -7 6 -15 10 -8 3
-15 1 -15 -4z"/>
<path d="M1270 520 c0 -11 -6 -23 -13 -26 -17 -6 -18 -34 -1 -34 7 0 16 9 19
20 3 11 11 21 16 21 5 1 14 2 21 3 6 0 13 6 15 13 3 7 -3 9 -16 6 -12 -3 -21
-1 -21 6 0 6 -4 11 -10 11 -5 0 -10 -9 -10 -20z"/>
<path d="M2690 536 c0 -2 7 -6 15 -10 8 -3 15 -1 15 4 0 6 -7 10 -15 10 -8 0
-15 -2 -15 -4z"/>
<path d="M3260 525 c0 -8 5 -15 10 -15 6 0 10 7 10 15 0 8 -4 15 -10 15 -5 0
-10 -7 -10 -15z"/>
<path d="M3302 529 c2 -6 8 -10 13 -10 5 0 11 4 13 10 2 6 -4 11 -13 11 -9 0
-15 -5 -13 -11z"/>
<path d="M1 514 c0 -11 3 -14 6 -6 3 7 2 16 -1 19 -3 4 -6 -2 -5 -13z"/>
<path d="M180 519 c0 -5 5 -7 10 -4 6 3 10 8 10 11 0 2 -4 4 -10 4 -5 0 -10
-5 -10 -11z"/>
<path d="M830 520 c0 -5 5 -10 11 -10 5 0 7 5 4 10 -3 6 -8 10 -11 10 -2 0 -4
-4 -4 -10z"/>
<path d="M110 510 c0 -5 5 -10 10 -10 6 0 10 5 10 10 0 6 -4 10 -10 10 -5 0
-10 -4 -10 -10z"/>
<path d="M390 501 c0 -12 5 -21 10 -21 6 0 10 6 10 14 0 8 -4 18 -10 21 -5 3
-10 -3 -10 -14z"/>
<path d="M2735 510 c-3 -5 -1 -10 4 -10 6 0 11 5 11 10 0 6 -2 10 -4 10 -3 0
-8 -4 -11 -10z"/>
<path d="M2543 499 c-6 -6 -9 -18 -6 -26 4 -11 8 -10 19 4 22 30 12 47 -13 22z"/>
<path d="M2577 491 c-3 -15 -1 -18 12 -14 13 5 14 3 4 -8 -7 -7 -13 -22 -13
-32 0 -15 -5 -18 -25 -15 -14 3 -25 2 -25 -1 0 -3 -12 -15 -27 -25 -23 -17
-26 -18 -35 -2 -5 9 -20 16 -34 16 -14 0 -22 4 -19 10 11 17 -11 11 -39 -11
-35 -27 -33 -34 12 -35 20 -1 53 -4 72 -8 28 -4 38 -1 52 17 l18 22 0 -23 c0
-13 4 -21 9 -18 5 3 7 15 4 26 -4 16 0 20 19 20 27 0 50 45 41 80 -7 25 -19
26 -26 1z"/>
<path d="M150 483 c0 -5 5 -15 10 -23 8 -12 10 -11 10 8 0 12 -4 22 -10 22 -5
0 -10 -3 -10 -7z"/>
<path d="M1196 473 c-6 -14 -5 -15 5 -6 7 7 10 15 7 18 -3 3 -9 -2 -12 -12z"/>
<path d="M2310 480 c-8 -5 -18 -7 -22 -4 -8 5 -58 -25 -58 -35 0 -4 19 -7 43
-7 29 1 46 7 56 19 16 22 3 41 -19 27z"/>
<path d="M0 464 c0 -13 3 -14 14 -5 12 10 17 8 26 -8 9 -18 8 -20 -7 -15 -17
5 -17 5 -1 -6 13 -8 16 -19 11 -40 -3 -19 -1 -30 6 -30 6 0 11 -9 11 -21 0
-15 -5 -19 -15 -15 -8 3 -15 1 -15 -5 0 -6 -7 -9 -15 -5 -11 4 -15 -2 -15 -24
0 -30 13 -40 25 -20 3 6 11 10 17 10 7 0 6 -5 -1 -14 -10 -12 -9 -20 5 -40 13
-21 14 -29 4 -41 -10 -12 -10 -15 3 -15 8 0 17 -7 21 -15 3 -9 0 -15 -9 -15
-8 0 -15 -4 -15 -10 0 -5 4 -10 9 -10 6 0 9 -12 8 -27 -2 -22 2 -28 18 -28 14
0 19 6 17 18 -2 9 1 17 7 17 5 0 16 3 25 6 9 3 16 1 16 -5 0 -6 -10 -11 -22
-11 -21 0 -21 -1 -6 -17 14 -13 20 -14 32 -4 9 7 22 11 29 8 8 -3 20 -1 28 4
10 6 7 9 -13 9 -18 0 -28 5 -28 15 0 11 -12 15 -42 16 -24 0 -36 3 -28 6 31
12 42 25 28 35 -9 6 -5 7 10 3 17 -5 27 -1 37 11 16 22 11 34 -16 34 -20 0
-26 16 -8 22 13 4 1 38 -13 38 -6 0 -16 -7 -23 -17 -11 -14 -13 -13 -17 9 -3
16 3 35 19 54 21 27 23 28 23 7 0 -12 5 -25 10 -28 6 -3 10 -15 10 -25 0 -10
5 -22 11 -25 19 -12 22 4 6 29 -18 27 -18 60 2 94 17 31 7 60 -14 42 -8 -7
-12 -16 -9 -21 3 -5 0 -9 -6 -9 -7 0 -10 -7 -6 -15 4 -11 -2 -15 -23 -15 -34
0 -44 19 -36 64 5 27 2 33 -23 49 -38 21 -62 22 -62 1z m110 -264 c0 -5 -4
-10 -10 -10 -5 0 -10 5 -10 10 0 6 5 10 10 10 6 0 10 -4 10 -10z"/>
<path d="M270 470 c0 -5 5 -10 10 -10 6 0 10 5 10 10 0 6 -4 10 -10 10 -5 0
-10 -4 -10 -10z"/>
<path d="M595 464 c22 -16 35 -18 35 -5 0 5 -12 11 -27 14 -26 5 -26 4 -8 -9z"/>
<path d="M1435 471 c-3 -5 0 -13 6 -16 5 -4 8 -13 5 -21 -3 -8 -1 -14 4 -14 6
0 10 9 10 20 0 11 -5 20 -11 20 -5 0 -7 5 -4 10 3 6 4 10 1 10 -3 0 -7 -4 -11
-9z"/>
<path d="M1802 465 c-7 -8 -9 -15 -4 -15 5 0 15 7 22 15 16 19 -1 19 -18 0z"/>
<path d="M1950 455 c0 -8 7 -15 15 -15 22 0 37 -38 33 -81 -3 -36 -2 -39 22
-38 19 1 21 2 6 6 -10 3 -15 8 -10 12 5 3 22 21 38 40 l28 35 -22 8 c-16 6
-21 14 -17 28 3 11 1 18 -4 14 -14 -8 -11 -31 7 -48 9 -9 11 -16 4 -16 -6 0
-9 -4 -6 -9 3 -5 -3 -11 -14 -14 -15 -4 -20 0 -20 15 0 10 4 16 10 13 7 -4 7
3 0 19 -5 14 -6 26 -2 27 13 1 -32 18 -50 18 -10 1 -18 -6 -18 -14z"/>
<path d="M2480 455 c0 -8 4 -15 10 -15 5 0 7 7 4 15 -4 8 -8 15 -10 15 -2 0
-4 -7 -4 -15z"/>
<path d="M1083 453 c-21 -4 -21 -5 -5 -34 9 -16 24 -29 32 -28 10 0 11 2 3 6
-19 7 -16 27 8 41 13 8 25 10 32 4 7 -5 23 -6 37 -2 45 12 -52 24 -107 13z"/>
<path d="M1761 443 c-16 -17 -11 -25 8 -14 7 5 12 13 10 19 -2 6 -10 4 -18 -5z"/>
<path d="M390 440 c-13 -8 -12 -10 3 -10 9 0 17 5 17 10 0 12 -1 12 -20 0z"/>
<path d="M3172 425 c0 -16 2 -22 5 -12 2 9 2 23 0 30 -3 6 -5 -1 -5 -18z"/>
<path d="M1220 433 c0 -5 5 -15 10 -23 8 -12 10 -11 10 8 0 12 -4 22 -10 22
-5 0 -10 -3 -10 -7z"/>
<path d="M1397 414 c-10 -13 -14 -24 -10 -24 13 0 43 39 35 44 -4 2 -15 -7
-25 -20z"/>
<path d="M1891 409 c-13 -37 -8 -47 13 -30 8 7 13 22 11 33 -7 32 -12 32 -24
-3z"/>
<path d="M3117 416 c-6 -15 1 -26 15 -26 4 0 8 9 8 20 0 23 -15 27 -23 6z"/>
<path d="M3280 420 c0 -5 5 -10 10 -10 6 0 10 5 10 10 0 6 -4 10 -10 10 -5 0
-10 -4 -10 -10z"/>
<path d="M3353 423 c-7 -3 -13 -11 -13 -18 0 -18 27 -27 33 -11 7 17 -5 34
-20 29z"/>
<path d="M4690 420 c0 -5 5 -10 10 -10 6 0 10 5 10 10 0 6 -4 10 -10 10 -5 0
-10 -4 -10 -10z"/>
<path d="M393 386 c-8 -27 -8 -36 3 -40 7 -3 16 4 19 15 4 10 12 19 19 19 8 0
19 7 26 15 8 9 9 15 2 15 -6 0 -13 -4 -16 -9 -3 -5 -16 -11 -28 -14 -22 -6
-22 -6 2 13 24 19 24 20 4 20 -15 0 -24 -9 -31 -34z"/>
<path d="M1731 404 c0 -11 3 -14 6 -6 3 7 2 16 -1 19 -3 4 -6 -2 -5 -13z"/>
<path d="M2805 410 c3 -5 8 -10 11 -10 2 0 4 5 4 10 0 6 -5 10 -11 10 -5 0 -7
-4 -4 -10z"/>
<path d="M253 393 c-18 -6 -16 -23 1 -23 17 0 30 16 19 23 -5 2 -14 2 -20 0z"/>
<path d="M2995 390 c-4 -6 3 -10 14 -10 25 0 27 6 6 13 -8 4 -17 2 -20 -3z"/>
<path d="M3058 393 c7 -3 16 -2 19 1 4 3 -2 6 -13 5 -11 0 -14 -3 -6 -6z"/>
<path d="M3678 393 c7 -3 16 -2 19 1 4 3 -2 6 -13 5 -11 0 -14 -3 -6 -6z"/>
<path d="M1254 379 c-3 -6 -2 -14 4 -18 7 -4 13 -17 15 -30 2 -12 10 -27 17
-31 8 -5 11 -12 7 -16 -9 -9 12 -34 29 -34 8 0 16 11 20 24 4 18 11 22 26 18
14 -3 19 -1 14 6 -4 7 -18 12 -32 12 -25 0 -33 15 -12 22 17 6 0 28 -22 28
-10 0 -25 7 -34 15 -17 18 -23 19 -32 4z"/>
<path d="M2232 364 c-11 -12 -9 -14 8 -14 11 0 20 -4 20 -9 0 -5 9 -11 20 -14
11 -3 20 -12 20 -21 0 -9 5 -16 10 -16 6 0 10 11 10 25 0 16 -6 25 -15 25 -8
0 -15 5 -15 10 0 6 -9 10 -19 10 -11 0 -21 4 -23 9 -1 5 -9 3 -16 -5z"/>
<path d="M931 363 c0 -10 59 -57 64 -51 2 2 -11 16 -30 31 -19 15 -35 24 -34
20z"/>
<path d="M3350 362 c0 -4 5 -13 12 -20 6 -6 9 -15 5 -18 -3 -4 -13 1 -22 10
-20 19 -25 20 -50 0 -19 -14 -18 -15 15 -12 23 2 34 -1 33 -9 -2 -7 4 -10 12
-7 8 4 15 1 15 -5 0 -6 -5 -11 -11 -11 -5 0 -7 -4 -4 -10 11 -17 23 -11 29 15
4 14 11 25 16 25 16 0 22 -20 11 -34 -9 -10 -7 -15 8 -19 13 -3 18 -1 15 8 -3
7 4 15 15 18 12 3 21 10 21 15 0 6 -8 8 -19 5 -11 -3 -32 7 -54 26 -35 32 -47
37 -47 23z"/>
<path d="M1 344 c0 -11 3 -14 6 -6 3 7 2 16 -1 19 -3 4 -6 -2 -5 -13z"/>
<path d="M2373 346 c-10 -11 -6 -17 19 -29 27 -13 33 -13 46 -1 11 12 12 17 1
30 -10 12 -14 12 -21 2 -8 -10 -11 -10 -15 0 -6 15 -15 15 -30 -2z"/>
<path d="M3238 353 c7 -3 16 -2 19 1 4 3 -2 6 -13 5 -11 0 -14 -3 -6 -6z"/>
<path d="M3510 350 c0 -5 5 -10 10 -10 6 0 10 5 10 10 0 6 -4 10 -10 10 -5 0
-10 -4 -10 -10z"/>
<path d="M845 340 c3 -5 13 -10 21 -10 8 0 14 5 14 10 0 6 -9 10 -21 10 -11 0
-17 -4 -14 -10z"/>
<path d="M3640 340 c0 -5 5 -10 10 -10 6 0 10 5 10 10 0 6 -4 10 -10 10 -5 0
-10 -4 -10 -10z"/>
<path d="M696 333 c-11 -11 -6 -23 9 -23 8 0 15 4 15 9 0 13 -16 22 -24 14z"/>
<path d="M3202 328 c-7 -7 -12 -23 -12 -37 1 -24 2 -24 16 8 16 37 14 47 -4
29z"/>
<path d="M396 317 c3 -10 9 -15 12 -12 3 3 0 11 -7 18 -10 9 -11 8 -5 -6z"/>
<path d="M1420 326 c0 -9 30 -14 35 -6 4 6 -3 10 -14 10 -12 0 -21 -2 -21 -4z"/>
<path d="M1865 319 c-4 -6 -1 -15 6 -20 21 -13 31 -11 27 8 -4 20 -24 28 -33
12z"/>
<path d="M2460 326 c0 -9 30 -14 35 -6 4 6 -3 10 -14 10 -12 0 -21 -2 -21 -4z"/>
<path d="M535 310 c3 -5 11 -10 16 -10 6 0 7 5 4 10 -3 6 -11 10 -16 10 -6 0
-7 -4 -4 -10z"/>
<path d="M801 309 c-1 -21 28 -34 43 -19 7 7 3 10 -11 10 -12 0 -24 6 -26 13
-4 7 -6 6 -6 -4z"/>
<path d="M1200 313 c-8 -4 -20 -13 -27 -22 -6 -9 -17 -16 -25 -16 -7 0 -12 -8
-12 -18 1 -10 -9 -25 -22 -34 -25 -16 -32 -47 -12 -59 7 -5 9 0 6 14 -4 13 0
23 8 26 8 3 14 -1 14 -9 0 -32 16 -13 17 21 1 44 6 49 33 34 l22 -12 -21 -19
c-12 -11 -21 -27 -21 -36 0 -12 8 -7 26 15 32 39 44 40 44 6 0 -16 4 -23 11
-18 7 4 9 20 6 40 -5 32 -5 32 14 13 10 -10 29 -19 42 -20 12 0 37 -2 55 -5
19 -2 32 1 32 7 0 6 -7 9 -15 5 -8 -3 -15 -1 -15 4 0 5 -6 7 -13 4 -8 -3 -26
0 -41 6 -21 8 -27 15 -23 30 3 11 1 18 -4 14 -11 -7 -45 12 -41 23 4 10 -18
14 -38 6z"/>
<path d="M3630 312 c0 -5 7 -9 15 -9 8 0 15 4 15 9 0 4 -7 8 -15 8 -8 0 -15
-4 -15 -8z"/>
<path d="M3840 304 c0 -8 5 -12 10 -9 6 4 8 11 5 16 -9 14 -15 11 -15 -7z"/>
<path d="M261 301 c-9 -6 -11 -16 -7 -27 7 -18 8 -18 17 -1 14 23 8 39 -10 28z"/>
<path d="M765 300 c-3 -5 -2 -10 4 -10 5 0 13 5 16 10 3 6 2 10 -4 10 -5 0
-13 -4 -16 -10z"/>
<path d="M4787 290 c3 -11 7 -20 9 -20 2 0 4 9 4 20 0 11 -4 20 -9 20 -5 0 -7
-9 -4 -20z"/>
<path d="M465 290 c3 -5 8 -10 11 -10 2 0 4 5 4 10 0 6 -5 10 -11 10 -5 0 -7
-4 -4 -10z"/>
<path d="M560 280 c0 -5 7 -10 16 -10 8 0 12 5 9 10 -3 6 -10 10 -16 10 -5 0
-9 -4 -9 -10z"/>
<path d="M690 280 c0 -5 5 -10 10 -10 6 0 10 5 10 10 0 6 -4 10 -10 10 -5 0
-10 -4 -10 -10z"/>
<path d="M2010 270 c0 -11 6 -20 14 -20 9 0 12 7 9 20 -3 11 -9 20 -14 20 -5
0 -9 -9 -9 -20z"/>
<path d="M2490 277 c0 -10 8 -17 18 -17 9 0 13 4 7 8 -5 4 -13 11 -17 16 -5 5
-8 2 -8 -7z"/>
<path d="M2548 283 c7 -3 16 -2 19 1 4 3 -2 6 -13 5 -11 0 -14 -3 -6 -6z"/>
<path d="M3947 270 c-3 -11 -1 -20 4 -20 5 0 9 2 9 4 0 2 3 11 6 20 3 9 2 16
-4 16 -5 0 -12 -9 -15 -20z"/>
<path d="M614 271 c5 -8 56 -3 56 5 0 2 -14 4 -31 4 -16 0 -28 -4 -25 -9z"/>
<path d="M1566 268 c-3 -7 -7 -30 -11 -51 -5 -30 -10 -37 -22 -33 -11 5 -14 2
-9 -10 4 -11 1 -14 -12 -12 -11 2 -19 16 -23 43 -5 40 -5 40 -16 14 -11 -25
-15 -26 -60 -21 -44 5 -47 4 -34 -12 12 -14 12 -16 -3 -10 -11 4 -16 1 -16
-10 0 -9 8 -16 21 -16 11 0 18 -4 15 -9 -3 -4 -17 -6 -31 -3 -18 3 -25 0 -25
-12 0 -9 5 -16 10 -16 6 0 10 -4 10 -9 0 -5 -17 -7 -39 -4 -31 4 -42 1 -59
-17 -15 -16 -26 -20 -42 -15 -15 5 -26 2 -32 -6 -7 -11 -8 -9 -6 6 3 14 11 19
25 18 12 -1 27 4 33 12 7 8 19 15 26 15 8 0 14 5 14 10 0 6 8 10 18 10 9 0 26
8 37 17 19 15 19 15 -10 8 -16 -4 -35 -8 -42 -8 -7 0 -10 -4 -8 -8 3 -3 -4 -9
-16 -12 -16 -4 -19 -2 -14 13 4 14 1 19 -12 19 -10 0 -40 1 -66 4 -42 3 -50 1
-57 -17 -7 -17 -9 -18 -9 -3 -1 21 -21 23 -21 2 0 -9 -10 -15 -26 -15 -20 0
-25 4 -20 18 4 11 0 9 -10 -6 -9 -12 -21 -22 -26 -22 -5 0 -16 -7 -24 -15 -14
-13 -14 -15 0 -15 9 0 16 5 16 10 0 6 5 10 10 10 21 0 9 -21 -17 -30 -16 -6
-36 -14 -45 -20 -10 -5 -19 -6 -23 -1 -3 5 1 12 7 14 9 4 9 6 1 6 -16 1 -4 41
13 41 22 0 16 17 -7 23 -12 3 -18 10 -14 16 3 6 11 9 16 6 5 -4 9 -1 9 4 0 6
-5 11 -11 11 -5 0 -7 5 -3 11 4 8 -1 9 -17 4 -27 -9 -44 -28 -29 -33 6 -2 8
-8 4 -13 -3 -5 -13 -5 -25 1 -14 8 -19 7 -19 -2 0 -9 -3 -9 -11 -1 -6 6 -18 9
-25 6 -8 -3 -14 0 -14 6 0 6 -5 11 -11 11 -8 0 -7 -5 1 -15 16 -19 8 -28 -28
-32 -26 -4 -62 -35 -62 -54 0 -5 16 -9 35 -9 24 0 35 5 35 15 0 8 -4 15 -10
15 -5 0 -10 3 -10 8 0 4 27 7 60 7 52 0 59 -2 54 -17 -3 -12 0 -18 10 -18 9 0
16 5 16 10 0 6 5 10 11 10 11 0 9 -16 -5 -51 -6 -13 2 -18 36 -25 24 -4 66 -8
95 -9 41 0 53 3 57 17 5 22 48 40 58 25 4 -6 28 -10 54 -9 43 2 46 0 28 -12
-11 -8 -15 -18 -10 -23 5 -4 11 -2 13 5 3 6 11 12 18 12 7 0 16 6 18 13 4 10
6 10 6 0 1 -7 12 -13 26 -13 14 0 25 -4 25 -10 0 -6 45 -10 115 -10 113 0 143
9 93 30 -19 7 -20 9 -5 9 10 1 25 8 33 16 18 18 50 20 60 3 4 -6 -1 -17 -11
-25 -17 -12 -17 -13 -2 -13 10 0 22 11 27 25 5 14 16 25 25 25 8 0 15 7 15 15
0 14 -3 13 -25 -1 -14 -9 -25 -13 -25 -9 0 12 74 85 86 85 14 0 23 20 17 37
-3 8 -13 3 -28 -13 -13 -14 -28 -23 -33 -20 -6 3 -13 -1 -16 -10 -3 -9 -12
-14 -20 -11 -7 3 -18 1 -24 -5 -6 -6 -15 -7 -21 -4 -14 9 -3 58 16 69 17 11
17 45 -2 63 -12 12 -16 13 -19 2z m-376 -130 c0 -5 9 -6 20 -3 24 7 26 -1 6
-21 -13 -12 -16 -12 -24 2 -8 15 -11 15 -35 0 -26 -18 -44 -8 -34 18 6 14 67
18 67 4z m347 5 c-4 -3 1 -11 10 -18 10 -8 12 -14 5 -19 -13 -8 -44 22 -37 35
4 5 11 9 17 9 6 0 8 -3 5 -7z m-697 -19 c0 -2 -7 -4 -15 -4 -8 0 -15 4 -15 10
0 5 7 7 15 4 8 -4 15 -8 15 -10z m650 6 c0 -5 -4 -10 -10 -10 -5 0 -10 5 -10
10 0 6 5 10 10 10 6 0 10 -4 10 -10z m-590 -10 c0 -5 -5 -10 -11 -10 -5 0 -7
5 -4 10 3 6 8 10 11 10 2 0 4 -4 4 -10z m595 -21 c-4 -6 -10 -8 -13 -5 -3 3
-11 1 -19 -5 -8 -8 -13 -8 -13 -1 0 11 16 20 38 21 7 1 10 -4 7 -10z m-451
-34 c-18 -14 -18 -14 1 -15 14 0 16 -3 8 -11 -15 -15 -66 -3 -60 14 2 7 14 13
26 15 12 2 25 11 28 20 5 11 8 12 11 3 2 -7 -4 -19 -14 -26z m116 15 c0 -5 -4
-10 -9 -10 -6 0 -13 5 -16 10 -3 6 1 10 9 10 9 0 16 -4 16 -10z m370 -10 c0
-5 -7 -7 -15 -4 -8 4 -15 8 -15 10 0 2 7 4 15 4 8 0 15 -4 15 -10z m-100 -10
c-20 -13 -33 -13 -25 0 3 6 14 10 23 10 15 0 15 -2 2 -10z m-127 -7 c-7 -2
-19 -2 -25 0 -7 3 -2 5 12 5 14 0 19 -2 13 -5z m62 -23 c-3 -5 -13 -10 -21
-10 -8 0 -12 5 -9 10 3 6 13 10 21 10 8 0 12 -4 9 -10z"/>
<path d="M2440 270 c0 -5 5 -10 10 -10 6 0 10 5 10 10 0 6 -4 10 -10 10 -5 0
-10 -4 -10 -10z"/>
<path d="M460 251 c-14 -27 -13 -54 3 -48 6 2 11 12 11 21 -1 9 2 16 6 16 4 0
10 7 14 15 8 22 -21 19 -34 -4z"/>
<path d="M851 251 c25 -45 32 -49 57 -38 22 10 33 8 110 -20 6 -3 12 2 12 12
0 9 -4 14 -9 11 -5 -3 -11 4 -15 16 -5 22 -6 22 -19 4 -13 -17 -14 -17 -20 -2
-5 14 -11 15 -27 6 -11 -6 -20 -7 -20 -1 0 5 -9 7 -20 4 -12 -3 -29 2 -42 13
-21 19 -21 19 -7 -5z"/>
<path d="M3036 258 c19 -11 20 -15 8 -26 -8 -7 -14 -20 -14 -30 0 -13 5 -11
25 10 28 30 32 48 11 48 -8 0 -23 3 -33 6 -13 4 -12 2 3 -8z"/>
<path d="M3470 260 c0 -5 5 -10 10 -10 6 0 10 5 10 10 0 6 -4 10 -10 10 -5 0
-10 -4 -10 -10z"/>
<path d="M555 250 c-3 -6 1 -7 9 -4 18 7 21 14 7 14 -6 0 -13 -4 -16 -10z"/>
<path d="M1405 249 c-4 -6 -4 -13 -1 -16 8 -8 36 5 36 17 0 13 -27 13 -35 -1z"/>
<path d="M2150 250 c0 -5 5 -10 11 -10 5 0 7 5 4 10 -3 6 -8 10 -11 10 -2 0
-4 -4 -4 -10z"/>
<path d="M3505 247 c-20 -12 -31 -47 -14 -47 5 0 9 5 9 10 0 6 7 10 15 10 8 0
15 9 15 20 0 11 -1 20 -2 19 -2 -1 -12 -6 -23 -12z"/>
<path d="M1838 239 c-10 -5 -18 -14 -18 -19 0 -17 15 -11 28 10 14 23 13 23
-10 9z"/>
<path d="M2096 235 c-4 -13 -2 -14 14 -5 23 13 26 20 6 20 -8 0 -16 -7 -20
-15z"/>
<path d="M3113 236 c0 -8 8 -11 19 -8 13 3 18 -1 18 -17 0 -22 14 -28 25 -11
4 6 12 7 18 3 6 -4 18 -8 27 -9 8 -2 22 -4 30 -6 8 -2 17 1 20 7 3 5 -21 17
-52 25 -31 8 -60 18 -64 23 -12 12 -41 8 -41 -7z"/>
<path d="M416 231 c-4 -7 -5 -15 -2 -18 9 -9 19 4 14 18 -4 11 -6 11 -12 0z"/>
<path d="M1056 225 c-22 -17 -15 -45 11 -45 15 0 16 2 3 10 -12 8 -12 10 -1
10 8 0 11 3 8 7 -4 3 -2 12 4 20 15 17 -1 16 -25 -2z"/>
<path d="M3360 230 c0 -5 7 -10 16 -10 8 0 12 5 9 10 -3 6 -10 10 -16 10 -5 0
-9 -4 -9 -10z"/>
<path d="M3625 221 c2 -9 4 -22 4 -28 1 -7 9 -13 19 -12 10 0 12 3 5 6 -20 7
-15 23 7 23 12 0 17 5 14 14 -8 20 -53 18 -49 -3z"/>
<path d="M230 215 c0 -8 -7 -15 -16 -15 -11 0 -14 -5 -10 -16 3 -9 6 -22 6
-30 0 -9 10 -14 28 -14 21 0 24 2 12 10 -13 8 -12 11 5 16 21 5 50 42 42 51
-3 2 -15 0 -26 -6 -17 -10 -20 -9 -15 4 4 10 0 15 -10 15 -9 0 -16 -7 -16 -15z"/>
<path d="M651 218 c-1 -13 -10 -18 -33 -19 l-33 -1 35 -10 c19 -6 29 -13 22
-15 -6 -3 -10 -9 -6 -14 5 -9 -2 -13 -48 -23 -20 -5 -28 -2 -28 8 0 8 -7 17
-16 20 -24 9 -31 7 -12 -5 15 -8 16 -13 5 -29 -14 -24 -27 -26 -27 -5 0 19
-56 21 -63 3 -3 -8 -6 -6 -6 5 -1 9 4 17 9 17 6 0 10 5 10 10 0 6 -9 10 -21
10 -11 0 -18 -4 -14 -9 3 -5 1 -12 -5 -16 -18 -11 -11 -45 9 -45 11 0 21 -6
24 -12 3 -10 8 -9 22 2 14 11 19 12 22 3 4 -10 9 -9 20 3 17 16 40 13 35 -5
-1 -6 8 -11 20 -11 20 0 20 1 5 18 -12 13 -13 19 -5 19 7 0 23 3 36 7 13 5 22
3 22 -3 0 -6 -5 -11 -10 -11 -6 0 -10 -6 -9 -12 4 -36 -1 -41 -43 -35 -24 3
-35 3 -25 0 9 -2 17 -9 17 -14 0 -6 -4 -7 -10 -4 -5 3 -10 2 -10 -4 0 -5 6
-12 13 -14 6 -3 -1 -6 -16 -6 -16 -1 -30 5 -33 14 -4 8 -10 13 -14 10 -5 -3
-16 2 -24 11 -9 8 -16 11 -16 5 0 -6 -4 -11 -10 -11 -5 0 -7 6 -4 14 3 9 -3
17 -15 21 -16 5 -21 15 -21 42 0 23 -4 33 -12 30 -7 -2 -14 -10 -14 -18 -1 -8
-2 -20 -3 -26 0 -7 -8 -13 -17 -13 -12 0 -14 3 -6 13 8 10 5 23 -12 51 -23 39
-23 39 -28 13 -4 -20 0 -28 13 -32 11 -4 19 -10 19 -15 0 -5 -8 -6 -17 -3 -14
6 -13 1 5 -22 l23 -29 -23 -17 c-13 -10 -32 -24 -43 -32 -24 -18 -11 -37 13
-19 31 22 41 24 57 9 13 -13 54 -16 260 -16 l246 0 10 26 c5 14 8 27 7 28 -10
9 -79 7 -110 -4 -21 -7 -42 -10 -48 -6 -5 3 -10 -2 -10 -12 -1 -16 -2 -16 -13
-2 -7 9 -25 19 -42 23 -29 8 -29 8 -7 17 26 10 28 18 8 33 -12 9 -13 17 -2 46
6 19 9 46 5 60 -4 16 -7 19 -8 8z m196 -204 c-3 -3 -12 -4 -19 -1 -8 3 -5 6 6
6 11 1 17 -2 13 -5z"/>
<path d="M3296 221 c-19 -7 -19 -8 2 -13 15 -4 22 -2 22 8 0 8 -1 14 -2 13 -2
0 -12 -4 -22 -8z"/>
<path d="M3430 220 c0 -5 10 -10 23 -10 18 0 19 2 7 10 -19 13 -30 13 -30 0z"/>
<path d="M3978 219 c-20 -13 19 -23 45 -12 21 10 21 10 -5 15 -15 3 -32 1 -40
-3z"/>
<path d="M1 204 c0 -11 3 -14 6 -6 3 7 2 16 -1 19 -3 4 -6 -2 -5 -13z"/>
<path d="M1734 209 c-3 -5 9 -9 25 -9 17 0 31 3 31 8 0 10 -49 12 -56 1z"/>
<path d="M535 200 c3 -5 13 -10 21 -10 8 0 14 5 14 10 0 6 -9 10 -21 10 -11 0
-17 -4 -14 -10z"/>
<path d="M1655 200 c3 -5 11 -10 16 -10 6 0 7 5 4 10 -3 6 -11 10 -16 10 -6 0
-7 -4 -4 -10z"/>
<path d="M2076 201 c-4 -5 3 -7 14 -4 23 6 26 13 6 13 -8 0 -17 -4 -20 -9z"/>
<path d="M3131 184 c0 -11 3 -14 6 -6 3 7 2 16 -1 19 -3 4 -6 -2 -5 -13z"/>
<path d="M3345 190 c-3 -5 3 -10 14 -10 12 0 21 5 21 10 0 6 -6 10 -14 10 -8
0 -18 -4 -21 -10z"/>
<path d="M965 177 c-13 -11 -15 -16 -6 -22 8 -4 21 1 34 14 17 16 18 21 6 21
-8 0 -23 -6 -34 -13z"/>
<path d="M3447 169 c7 -7 15 -10 18 -7 3 3 -2 9 -12 12 -14 6 -15 5 -6 -5z"/>
<path d="M4084 156 c-4 -9 -1 -23 6 -31 16 -19 50 -19 50 0 0 8 -9 15 -21 15
-11 0 -18 4 -14 9 3 5 1 12 -5 16 -6 3 -13 -1 -16 -9z"/>
<path d="M7 146 c-3 -8 -2 -18 3 -21 13 -8 24 15 12 27 -6 6 -11 4 -15 -6z"/>
<path d="M670 151 c0 -5 -3 -18 -7 -28 -6 -17 -5 -17 15 1 26 22 28 36 7 36
-8 0 -15 -4 -15 -9z"/>
<path d="M740 149 c0 -5 5 -7 10 -4 6 3 10 8 10 11 0 2 -4 4 -10 4 -5 0 -10
-5 -10 -11z"/>
<path d="M1697 153 c-14 -4 -16 -8 -6 -19 6 -8 17 -14 23 -14 6 0 4 5 -4 10
-11 7 -6 10 20 11 29 0 31 2 15 9 -22 10 -23 10 -48 3z"/>
<path d="M2 94 c2 -16 7 -20 22 -16 15 4 17 7 6 10 -8 3 -18 10 -22 16 -4 6
-6 1 -6 -10z"/>
<path d="M255 90 c-4 -6 5 -10 19 -10 14 0 26 5 26 10 0 6 -9 10 -19 10 -11 0
-23 -4 -26 -10z"/>
<path d="M3310 70 c0 -5 5 -10 11 -10 5 0 7 5 4 10 -3 6 -8 10 -11 10 -2 0 -4
-4 -4 -10z"/>
<path d="M2863 50 c-3 -13 -14 -20 -29 -20 -24 0 -32 -14 -14 -25 14 -8 57 22
63 45 3 11 1 20 -5 20 -5 0 -12 -9 -15 -20z"/>
<path d="M4466 63 c-12 -12 -5 -23 14 -23 11 0 20 4 20 9 0 11 -26 22 -34 14z"/>
<path d="M2909 53 c-17 -4 -32 -37 -21 -47 9 -10 112 -7 112 3 0 16 -21 24
-33 12 -16 -16 -37 -13 -37 5 0 10 6 14 15 10 8 -3 15 -1 15 3 0 7 -28 24 -33
20 -1 -1 -9 -3 -18 -6z"/>
<path d="M0 40 c0 -5 7 -10 15 -10 8 0 15 5 15 10 0 6 -7 10 -15 10 -8 0 -15
-4 -15 -10z"/>
<path d="M150 43 c0 -11 -60 -23 -112 -23 -15 0 -29 -4 -33 -10 -4 -6 21 -10
68 -10 69 0 75 2 80 22 4 12 4 24 2 27 -3 2 -5 0 -5 -6z"/>
<path d="M2732 39 c-12 -5 -22 -15 -22 -24 0 -11 11 -15 45 -15 48 0 64 19 18
21 l-28 1 30 7 30 7 -26 5 c-14 3 -36 2 -47 -2z"/>
<path d="M215 30 c-3 -5 -16 -10 -27 -10 -33 0 -14 -11 26 -15 30 -2 36 0 36
16 0 20 -24 26 -35 9z"/>
<path d="M1130 10 l-25 -8 27 -1 c15 -1 30 4 33 9 7 11 0 11 -35 0z"/>
<path d="M1550 10 c0 -5 5 -10 10 -10 6 0 10 5 10 10 0 6 -4 10 -10 10 -5 0
-10 -4 -10 -10z"/>
<path d="M888 3 c6 -2 18 -2 25 0 6 3 1 5 -13 5 -14 0 -19 -2 -12 -5z"/>
</g>
</svg>
